<?xml version="1.0" encoding="UTF-8"?>
<svg version="1.1" xmlns="http://www.w3.org/2000/svg" width="512" height="512">
<path d="M0 0 C6.45942334 4.62435989 10.81646673 10.29136737 15 17 C15.39058594 17.61230469 15.78117187 18.22460938 16.18359375 18.85546875 C24.76106058 33.97450561 25.31819811 53.89280161 20.90942383 70.34570312 C17.87931047 80.39432769 12.69030402 89.77638989 5 97 C4.34 97.33 3.68 97.66 3 98 C3.55488098 98.00364563 4.10976196 98.00729126 4.68145752 98.01104736 C10.45684694 98.0528584 16.2314406 98.12219341 22.00634766 98.20751953 C24.16154013 98.23574499 26.31683643 98.25695165 28.47216797 98.27099609 C31.5705283 98.29240347 34.66763827 98.3390432 37.765625 98.390625 C38.72929993 98.39185364 39.69297485 98.39308228 40.68585205 98.39434814 C44.49271007 98.47769633 47.22915095 98.58780588 50.61523438 100.3984375 C52.83062837 104.56050351 52.4899902 108.59620125 52.390625 113.234375 C52.38496521 114.22753723 52.37930542 115.22069946 52.37347412 116.24395752 C52.35110026 119.41313059 52.30090106 122.5811692 52.25 125.75 C52.22993635 127.89972324 52.21168534 130.04946423 52.1953125 132.19921875 C52.15123239 137.46653229 52.08431033 142.73318509 52 148 C52.7006105 147.64858444 53.40122101 147.29716888 54.12306213 146.93510437 C60.84011566 143.56641224 67.55821743 140.19982285 74.27740574 136.83539104 C77.72886178 135.10709209 81.17995567 133.37807927 84.63012695 131.6472168 C98.93470181 124.47158011 113.2427523 117.3179033 127.71339417 110.48075867 C133.95346606 107.52932481 140.08275717 104.41697691 146.16015625 101.14453125 C149.35953967 99.85509612 151.58130919 99.63887069 155 100 C157.30275556 101.8670991 158.67823871 103.35647741 160 106 C160.10086575 108.16778143 160.13513234 110.33874507 160.14044189 112.50886536 C160.14489858 113.52294143 160.14489858 113.52294143 160.1494453 114.55750388 C160.15814998 116.83367707 160.15964203 119.10979778 160.16113281 121.38598633 C160.16575976 123.01361708 160.17078425 124.64124673 160.17617798 126.26887512 C160.1893164 130.69870278 160.19574981 135.12851528 160.20018864 139.55835938 C160.2031172 142.32466668 160.20722161 145.09096981 160.21169281 147.85727501 C160.2253719 156.5086429 160.23503639 165.16000129 160.2388947 173.81137925 C160.24337581 183.80498836 160.26092442 193.79846073 160.2898953 203.79202825 C160.31149927 211.51183091 160.3215983 219.23159506 160.32293582 226.95142764 C160.32398483 231.56432419 160.32991279 236.17709227 160.34775543 240.78995705 C160.36421382 245.12950938 160.36640253 249.46883635 160.35761642 253.80840874 C160.35684483 255.40113554 160.36120484 256.99387434 160.37107468 258.58657074 C160.38376127 260.76137766 160.37793598 262.93538251 160.36749268 265.11018372 C160.36895924 266.3271182 160.3704258 267.54405268 160.3719368 268.79786396 C159.96421376 272.30809642 159.10955768 274.19272879 157 277 C154.16836193 278.41581903 152.15211519 278.23454428 149 278 C145.92993164 276.79760742 145.92993164 276.79760742 142.66015625 275.10546875 C142.06601425 274.8027858 141.47187225 274.50010284 140.85972595 274.18824768 C139.58583691 273.53768981 138.31470412 272.8817113 137.04614258 272.2208252 C134.34214642 270.8122512 131.62499995 269.42997112 128.90829468 268.04611206 C127.53377916 267.34571434 126.1599383 266.64399104 124.78677368 265.94094849 C119.23997978 263.10455889 113.63796342 260.40054616 108 257.75 C95.48709134 251.83999806 83.13941324 245.59725554 70.78125 239.37207031 C69.97470978 238.96668533 69.16816956 238.56130035 68.33718872 238.14363098 C66.81487019 237.37839059 65.29339502 236.61146929 63.7729187 235.84257507 C60.23219928 234.06380769 56.71427196 232.39659164 53 231 C52.98598145 232.96791504 52.98598145 232.96791504 52.97167969 234.97558594 C52.93180339 239.84376971 52.86605087 244.71131995 52.79248047 249.57910156 C52.76425721 251.6857896 52.74304944 253.7925838 52.72900391 255.89941406 C52.70759339 258.9282878 52.6609524 261.95588331 52.609375 264.984375 C52.60814636 265.92617615 52.60691772 266.86797729 52.60565186 267.83831787 C52.58593323 268.71892883 52.5662146 269.59953979 52.54589844 270.50683594 C52.53701599 271.27960876 52.52813354 272.05238159 52.51898193 272.84857178 C51.76972836 275.95458604 50.50922952 277.03641184 48 279 C44.71229935 279.49219131 44.71229935 279.49219131 40.72344971 279.48101807 C39.98907614 279.48443577 39.25470256 279.48785347 38.49807525 279.49137473 C36.03640612 279.49796537 33.57582653 279.47595922 31.11425781 279.45410156 C29.35014369 279.45297333 27.5860277 279.45360646 25.82191467 279.45587158 C21.03081788 279.45702062 16.24012055 279.43348053 11.44911671 279.40557575 C6.442966 279.3805938 1.43680644 279.37822263 -3.56939697 279.37347412 C-13.05020666 279.36103492 -22.53083215 279.32820049 -32.01156068 279.28807616 C-42.80465063 279.24338787 -53.59774931 279.22137881 -64.39090872 279.20129442 C-86.59404201 279.15946872 -108.79700941 279.08909827 -131 279 C-130.99555878 279.6203714 -130.99111755 280.2407428 -130.98654175 280.87991333 C-130.94190782 287.40250315 -130.91196931 293.92504881 -130.89013672 300.44775391 C-130.88014867 302.87420416 -130.8665536 305.30064259 -130.84912109 307.72705078 C-130.65195716 335.89829685 -133.13121195 359.17720289 -153.125 380.5625 C-167.81070659 394.82505911 -187.91703211 400.9225923 -208 401.375 C-231.1081222 400.83287397 -251.36397205 392.75524075 -267.52734375 375.84765625 C-281.26227802 360.02969877 -285.15639635 340.74189663 -285.14526367 320.38208008 C-285.15030159 319.02614746 -285.15030159 319.02614746 -285.15544128 317.64282227 C-285.16485921 314.68504421 -285.16688985 311.72732333 -285.16796875 308.76953125 C-285.17118803 306.68983437 -285.1745526 304.61013771 -285.17805481 302.53044128 C-285.18402347 298.18068925 -285.18589708 293.83095701 -285.18530273 289.48120117 C-285.18520132 283.94515926 -285.19884213 278.4092462 -285.21607494 272.87323475 C-285.22726968 268.57917209 -285.22921965 264.28513982 -285.22869301 259.99106407 C-285.22986233 257.95200851 -285.23422419 255.91295188 -285.24202538 253.8739109 C-285.33007728 228.48029742 -282.75761933 204.93378998 -264.05859375 185.86328125 C-253.60735174 175.75714338 -237.91489819 166 -223 166 C-223.00666183 165.24689041 -223.01332367 164.49378082 -223.02018738 163.71784973 C-223.08036296 156.61153931 -223.12600706 149.50531754 -223.15543652 142.39882374 C-223.17107533 138.74550802 -223.19228048 135.09240329 -223.22631836 131.43920898 C-223.25897625 127.91194784 -223.27686644 124.38488932 -223.28463173 120.85748863 C-223.29285133 118.86055692 -223.31626061 116.86370642 -223.33988953 114.86689758 C-223.34011612 113.64600937 -223.34034271 112.42512115 -223.34057617 111.16723633 C-223.34723801 110.09468094 -223.35389984 109.02212555 -223.36076355 107.91706848 C-222.94712163 104.57243513 -221.98743226 102.69794672 -220 100 C-216.9450722 98.4725361 -213.7236686 98.76008168 -210.3671875 98.68359375 C-209.61535187 98.66281265 -208.86351624 98.64203156 -208.08889771 98.62062073 C-205.68435915 98.55517295 -203.27971033 98.49626262 -200.875 98.4375 C-199.24608229 98.39431023 -197.61717578 98.35069579 -195.98828125 98.30664062 C-191.99230085 98.19949649 -187.99620941 98.09821567 -184 98 C-184.47268311 97.48703369 -184.94536621 96.97406738 -185.43237305 96.44555664 C-188.86678357 92.63707947 -191.79895106 89.21167435 -193.8125 84.4375 C-194.19019531 83.56996094 -194.56789063 82.70242187 -194.95703125 81.80859375 C-200.52711637 66.80900125 -200.20281747 50.56878898 -194.3125 35.69140625 C-188.14205321 23.03831745 -177.91864469 14.28763131 -165 9 C-164.24074219 8.6803125 -163.48148437 8.360625 -162.69921875 8.03125 C-148.36218244 3.09217529 -130.54288682 4.42674518 -117 11 C-110.76973735 14.62028776 -105.36504998 19.21810763 -100 24 C-99.54173828 23.01773438 -99.54173828 23.01773438 -99.07421875 22.015625 C-90.85327179 5.62004627 -78.46619944 -4.15711938 -61.1640625 -10.0546875 C-40.18404083 -16.32279274 -17.88310104 -11.94464703 0 0 Z M-96 86 C-97.4876306 87.88297827 -97.4876306 87.88297827 -98.9375 90.25 C-100.87218241 93.27819855 -102.83601708 96.11468944 -105 99 C-98.07 99 -91.14 99 -84 99 C-85.98 96.69 -87.96 94.38 -90 92 C-91.11375 90.2984375 -91.11375 90.2984375 -92.25 88.5625 C-92.8275 87.716875 -93.405 86.87125 -94 86 C-94.66 86 -95.32 86 -96 86 Z " fill="#020203" transform="translate(339,12)"/>
<path d="M0 0 C1.06446602 -0.01248528 1.06446602 -0.01248528 2.1504364 -0.02522278 C4.48731031 -0.04924008 6.82390458 -0.05808494 9.16088867 -0.06469727 C10.79367655 -0.07367045 12.42646362 -0.08279242 14.05924988 -0.09205627 C17.47962437 -0.10852674 20.8999012 -0.11624273 24.3203125 -0.11914062 C28.68832485 -0.12452008 33.05541051 -0.16218948 37.42316151 -0.20788479 C40.79566237 -0.23773052 44.16794217 -0.24486581 47.54056358 -0.24586678 C49.15003386 -0.2500548 50.75950565 -0.26243192 52.36884499 -0.28338432 C68.69779458 -0.47904347 68.69779458 -0.47904347 74.76635742 5.30639648 C80.94660366 11.54170395 82.16675903 17.05375012 82.8894043 25.55053711 C83.23992218 29.54231871 83.23992218 29.54231871 85.06576538 33.0096283 C88.0708098 35.30109263 91.8566247 34.7472961 95.49291992 34.74780273 C96.35517181 34.76101059 97.21742371 34.77421844 98.10580444 34.78782654 C100.86768737 34.82874552 103.6292401 34.85037331 106.39135742 34.86889648 C109.13194645 34.89280118 111.87222972 34.92118633 114.61264038 34.9606781 C116.31665456 34.98472912 118.02082801 34.99983519 119.7250061 35.00428772 C128.10056474 35.1122221 135.41975957 36.14471934 142.03979492 41.52514648 C147.25351448 46.90400648 148.88484316 53.60089244 148.90679932 60.88993835 C148.91250946 62.02675552 148.9182196 63.16357269 148.92410278 64.33483887 C148.92577957 66.19960876 148.92577957 66.19960876 148.92749023 68.10205078 C148.93245514 69.41466385 148.93742004 70.72727692 148.9425354 72.07966614 C148.95563921 75.67909183 148.96210072 79.27849889 148.96654606 82.87794471 C148.9694808 85.12936957 148.97358642 87.38078938 148.97805023 89.63221169 C148.99172151 96.68390875 149.00138927 103.73559423 149.00525212 110.78730363 C149.00972837 118.91310964 149.02725756 127.03874707 149.05625272 135.16450185 C149.07791312 141.45427119 149.08795877 147.74399325 149.08929324 154.03379947 C149.0903384 157.78607948 149.09618399 161.53820094 149.11411285 165.29044151 C149.13066857 168.82404631 149.13271304 172.35737465 149.12397385 175.89100456 C149.12284408 177.79412736 149.13650447 179.69724129 149.15072632 181.60031128 C149.10766661 190.49899383 148.33905887 198.73369503 141.76635742 205.30639648 C135.89163441 209.62251952 131.74303257 210.45580393 124.6076355 210.46029663 C123.76612698 210.46467888 122.92461846 210.46906114 122.05760968 210.47357619 C119.22728767 210.48697052 116.39699681 210.49314451 113.56665039 210.49926758 C111.54142618 210.50716811 109.51620337 210.51543703 107.49098206 210.52404785 C100.83018337 210.55027599 94.16937837 210.56557739 87.50854492 210.57983398 C85.21586223 210.58519355 82.92317958 210.59057106 80.63049698 210.59596634 C71.09297925 210.6175972 61.55546322 210.63633356 52.01792717 210.64758873 C38.3491218 210.66382501 24.68060084 210.69699292 11.01190269 210.75398958 C1.40158994 210.79269673 -8.20864676 210.81222242 -17.81903541 210.81750929 C-23.55889011 210.82116197 -29.29844152 210.83317458 -35.03821182 210.86561203 C-40.44076636 210.89570557 -45.8428343 210.90199967 -51.24545479 210.89022827 C-53.22514091 210.89000764 -55.20484969 210.89830403 -57.18445778 210.91588211 C-76.78403831 211.08040207 -76.78403831 211.08040207 -83.23364258 205.30639648 C-90.21133706 198.31633944 -90.45618194 189.25810697 -90.51580811 179.85734558 C-90.51333069 178.66176529 -90.51085327 177.466185 -90.50830078 176.234375 C-90.51341171 174.9518988 -90.51852264 173.66942261 -90.52378845 172.3480835 C-90.53709361 168.85422535 -90.53776674 165.36047593 -90.53522515 161.86659741 C-90.5341498 158.93936301 -90.53905308 156.01215011 -90.54383057 153.08492035 C-90.55489609 146.17427274 -90.55537966 139.26367951 -90.54931641 132.35302734 C-90.54327658 125.24624747 -90.55559456 118.13966558 -90.57688648 111.03291947 C-90.59455138 104.90947738 -90.60049621 98.78609805 -90.59724873 92.66263145 C-90.59544374 89.01492191 -90.59799318 85.36735368 -90.61196327 81.71966743 C-90.62697277 77.64892005 -90.61752894 73.57857115 -90.60595703 69.5078125 C-90.61360077 68.31425644 -90.62124451 67.12070038 -90.62911987 65.89097595 C-90.57872865 57.84610515 -89.99784217 49.61498135 -85.04614258 42.93139648 C-77.40801788 35.8024801 -69.04160245 35.18585804 -59.00317383 35.06030273 C-57.21345482 35.02739532 -55.4237414 34.99418321 -53.6340332 34.96069336 C-50.82946215 34.91312484 -48.02491858 34.86860127 -45.22021484 34.82958984 C-42.50181317 34.78996576 -39.78384023 34.73843774 -37.06567383 34.68530273 C-36.22502884 34.67688858 -35.38438385 34.66847443 -34.51826477 34.6598053 C-30.60241768 34.57638952 -28.56246143 34.52560905 -25.23364258 32.30639648 C-23.95253765 28.99935819 -24.10009683 25.56666041 -23.98364258 22.05639648 C-23.41826743 14.29770983 -20.99036027 9.57822936 -15.23364258 4.43139648 C-10.1059607 0.79928849 -6.26934662 0.05213866 0 0 Z " fill="#F9AF3B" transform="translate(350.233642578125,301.693603515625)"/>
<path d="M0 0 C80.85 0 161.7 0 245 0 C245 49.5 245 99 245 150 C189.23 150 133.46 150 76 150 C75.67 139.11 75.34 128.22 75 117 C72.185939 98.70860348 66.0237758 80.96894139 51 69 C35.35578952 57.57662849 19.28722477 52.60726873 0 51 C0 34.17 0 17.34 0 0 Z " fill="#209DBB" transform="translate(131,126)"/>
<path d="M0 0 C11.64325149 9.95480414 18.72739742 22.81811941 21.1484375 37.8984375 C21.71430703 45.62832558 21.57140179 53.39925596 21.546875 61.14453125 C21.54889975 63.40552362 21.55181451 65.66651534 21.55557251 67.92750549 C21.55997788 72.65038309 21.55362312 77.37308966 21.53955078 82.09594727 C21.52247007 88.11872974 21.53230475 94.1411107 21.55026817 100.16387844 C21.5611628 104.82846545 21.55763354 109.49295892 21.5498848 114.1575489 C21.54789795 116.37688305 21.55028815 118.59622597 21.55732346 120.81554985 C21.60839884 141.4537421 19.84789369 160.03631246 5.1484375 175.8984375 C4.57738281 176.52363281 4.00632812 177.14882813 3.41796875 177.79296875 C-7.93642327 188.89671194 -24.56031955 194.11418981 -40.1015625 194.1484375 C-42.68841222 194.10331451 -45.26593355 194.00640273 -47.8515625 193.8984375 C-48.68429688 193.87910156 -49.51703125 193.85976563 -50.375 193.83984375 C-64.51147385 192.97273662 -78.71537564 185.11623559 -88.265625 174.8671875 C-97.52342106 163.37475102 -102.92730924 150.53677713 -102.87011719 135.70898438 C-102.86609894 134.35782532 -102.86609894 134.35782532 -102.86199951 132.97937012 C-102.8585553 132.29266235 -102.85511108 131.60595459 -102.8515625 130.8984375 C-102.1942363 130.89035065 -101.5369101 130.88226379 -100.85966492 130.87393188 C-94.03034817 130.78800626 -87.20132571 130.68850801 -80.37231445 130.58105469 C-77.82223444 130.54272472 -75.27209961 130.50787902 -72.72192383 130.4765625 C-69.06051007 130.43099951 -65.399475 130.37299012 -61.73828125 130.3125 C-60.02254158 130.29517319 -60.02254158 130.29517319 -58.2721405 130.27749634 C-56.68083061 130.2476918 -56.68083061 130.2476918 -55.05737305 130.21728516 C-54.12249557 130.20396149 -53.1876181 130.19063782 -52.22441101 130.1769104 C-49.58604643 130.04927022 -49.58604643 130.04927022 -46.8515625 127.8984375 C-46.41329049 125.99385821 -46.41329049 125.99385821 -46.5390625 123.8984375 C-46.54486328 122.8465625 -46.54486328 122.8465625 -46.55078125 121.7734375 C-46.70243304 119.6567798 -46.70243304 119.6567798 -48.8515625 117.8984375 C-51.23636296 117.56712337 -51.23636296 117.56712337 -54.03564453 117.57958984 C-55.11661407 117.55972015 -56.19758362 117.53985046 -57.31130981 117.51937866 C-58.48217133 117.50782745 -59.65303284 117.49627625 -60.859375 117.484375 C-62.05513153 117.46500885 -63.25088806 117.4456427 -64.48287964 117.4256897 C-68.31403398 117.36575806 -72.14521815 117.3194539 -75.9765625 117.2734375 C-78.56902375 117.23527026 -81.16147216 117.19621929 -83.75390625 117.15625 C-90.11968769 117.06004525 -96.48552849 116.97606436 -102.8515625 116.8984375 C-102.8515625 110.6284375 -102.8515625 104.3584375 -102.8515625 97.8984375 C-101.26174561 97.87338135 -99.67192871 97.8483252 -98.03393555 97.82250977 C-92.14664369 97.72847888 -86.25947102 97.62824758 -80.37231445 97.52612305 C-77.82221256 97.48275783 -75.27208134 97.44108394 -72.72192383 97.40112305 C-69.06061961 97.34345911 -65.39946328 97.27975325 -61.73828125 97.21484375 C-60.5944548 97.19813126 -59.45062836 97.18141876 -58.2721405 97.16419983 C-56.68083061 97.134282 -56.68083061 97.134282 -55.05737305 97.10375977 C-53.65505684 97.08044334 -53.65505684 97.08044334 -52.22441101 97.05665588 C-49.70169737 96.98871042 -49.70169737 96.98871042 -46.8515625 95.8984375 C-46.74319797 94.46260749 -46.66580083 93.0244173 -46.6015625 91.5859375 C-46.55515625 90.78542969 -46.50875 89.98492187 -46.4609375 89.16015625 C-46.64080143 86.77728504 -46.64080143 86.77728504 -48.54925537 85.28410339 C-51.28354712 83.63844336 -52.90462463 83.50458966 -56.07910156 83.46606445 C-57.11987854 83.44627029 -58.16065552 83.42647614 -59.23297119 83.40608215 C-60.34976257 83.39969223 -61.46655396 83.39330231 -62.6171875 83.38671875 C-63.76572205 83.36876755 -64.91425659 83.35081635 -66.09759521 83.33232117 C-69.76554698 83.27814409 -73.43336805 83.24429781 -77.1015625 83.2109375 C-79.58855988 83.17777106 -82.07554 83.14328204 -84.5625 83.10742188 C-90.65875999 83.02241292 -96.75498071 82.95563641 -102.8515625 82.8984375 C-102.8515625 76.9584375 -102.8515625 71.0184375 -102.8515625 64.8984375 C-101.29727539 64.88385498 -99.74298828 64.86927246 -98.14160156 64.85424805 C-92.37899686 64.79630817 -86.61678467 64.71907443 -80.85449219 64.63598633 C-78.35976529 64.60271681 -75.86496275 64.57469127 -73.37011719 64.55200195 C-69.78547915 64.518494 -66.20153558 64.46617839 -62.6171875 64.41015625 C-61.50039612 64.40376633 -60.38360474 64.3973764 -59.23297119 64.39079285 C-58.19219421 64.37099869 -57.15141724 64.35120453 -56.07910156 64.33081055 C-55.16420959 64.31970749 -54.24931763 64.30860443 -53.30670166 64.29716492 C-50.38404173 63.82250969 -48.98386974 62.92604588 -46.8515625 60.8984375 C-46.36987522 58.61954408 -46.36987522 58.61954408 -46.6015625 56.2109375 C-46.65570313 54.99857422 -46.65570313 54.99857422 -46.7109375 53.76171875 C-46.75734375 53.14683594 -46.80375 52.53195312 -46.8515625 51.8984375 C-49.97922395 50.98783339 -52.82664723 50.74837538 -56.07910156 50.69311523 C-57.11987854 50.67317001 -58.16065552 50.65322479 -59.23297119 50.63267517 C-60.34976257 50.61596268 -61.46655396 50.59925018 -62.6171875 50.58203125 C-63.76572205 50.56125015 -64.91425659 50.54046906 -66.09759521 50.51905823 C-69.76552361 50.45368757 -73.43352343 50.39473556 -77.1015625 50.3359375 C-79.58854904 50.29274043 -82.07552837 50.24912575 -84.5625 50.20507812 C-90.65877872 50.09801892 -96.75512845 49.99622925 -102.8515625 49.8984375 C-102.73826885 47.21664999 -102.61278332 44.53633133 -102.48046875 41.85546875 C-102.45005493 41.10591919 -102.41964111 40.35636963 -102.38830566 39.58410645 C-101.65189551 25.35326937 -94.93975863 12.34354653 -84.6015625 2.5859375 C-60.18538734 -17.55845401 -25.64841854 -18.90253312 0 0 Z " fill="#DB6D41" transform="translate(171.8515625,204.1015625)"/>
<path d="M0 0 C1.06446602 -0.01248528 1.06446602 -0.01248528 2.1504364 -0.02522278 C4.48731031 -0.04924008 6.82390458 -0.05808494 9.16088867 -0.06469727 C10.79367655 -0.07367045 12.42646362 -0.08279242 14.05924988 -0.09205627 C17.47962437 -0.10852674 20.8999012 -0.11624273 24.3203125 -0.11914062 C28.68832485 -0.12452008 33.05541051 -0.16218948 37.42316151 -0.20788479 C40.79566237 -0.23773052 44.16794217 -0.24486581 47.54056358 -0.24586678 C49.15003386 -0.2500548 50.75950565 -0.26243192 52.36884499 -0.28338432 C68.69779458 -0.47904347 68.69779458 -0.47904347 74.76635742 5.30639648 C80.94660366 11.54170395 82.16675903 17.05375012 82.8894043 25.55053711 C83.23992218 29.54231871 83.23992218 29.54231871 85.06576538 33.0096283 C88.0708098 35.30109263 91.8566247 34.7472961 95.49291992 34.74780273 C96.35517181 34.76101059 97.21742371 34.77421844 98.10580444 34.78782654 C100.86768737 34.82874552 103.6292401 34.85037331 106.39135742 34.86889648 C109.13194645 34.89280118 111.87222972 34.92118633 114.61264038 34.9606781 C116.31665456 34.98472912 118.02082801 34.99983519 119.7250061 35.00428772 C128.10056474 35.1122221 135.41975957 36.14471934 142.03979492 41.52514648 C147.25351448 46.90400648 148.88484316 53.60089244 148.90679932 60.88993835 C148.91250946 62.02675552 148.9182196 63.16357269 148.92410278 64.33483887 C148.92577957 66.19960876 148.92577957 66.19960876 148.92749023 68.10205078 C148.93245514 69.41466385 148.93742004 70.72727692 148.9425354 72.07966614 C148.95563921 75.67909183 148.96210072 79.27849889 148.96654606 82.87794471 C148.9694808 85.12936957 148.97358642 87.38078938 148.97805023 89.63221169 C148.99172151 96.68390875 149.00138927 103.73559423 149.00525212 110.78730363 C149.00972837 118.91310964 149.02725756 127.03874707 149.05625272 135.16450185 C149.07791312 141.45427119 149.08795877 147.74399325 149.08929324 154.03379947 C149.0903384 157.78607948 149.09618399 161.53820094 149.11411285 165.29044151 C149.13066857 168.82404631 149.13271304 172.35737465 149.12397385 175.89100456 C149.12284408 177.79412736 149.13650447 179.69724129 149.15072632 181.60031128 C149.10766661 190.49899383 148.33905887 198.73369503 141.76635742 205.30639648 C135.89163441 209.62251952 131.74303257 210.45580393 124.6076355 210.46029663 C123.76612698 210.46467888 122.92461846 210.46906114 122.05760968 210.47357619 C119.22728767 210.48697052 116.39699681 210.49314451 113.56665039 210.49926758 C111.54142618 210.50716811 109.51620337 210.51543703 107.49098206 210.52404785 C100.83018337 210.55027599 94.16937837 210.56557739 87.50854492 210.57983398 C85.21586223 210.58519355 82.92317958 210.59057106 80.63049698 210.59596634 C71.09297925 210.6175972 61.55546322 210.63633356 52.01792717 210.64758873 C38.3491218 210.66382501 24.68060084 210.69699292 11.01190269 210.75398958 C1.40158994 210.79269673 -8.20864676 210.81222242 -17.81903541 210.81750929 C-23.55889011 210.82116197 -29.29844152 210.83317458 -35.03821182 210.86561203 C-40.44076636 210.89570557 -45.8428343 210.90199967 -51.24545479 210.89022827 C-53.22514091 210.89000764 -55.20484969 210.89830403 -57.18445778 210.91588211 C-76.78403831 211.08040207 -76.78403831 211.08040207 -83.23364258 205.30639648 C-90.21133706 198.31633944 -90.45618194 189.25810697 -90.51580811 179.85734558 C-90.51333069 178.66176529 -90.51085327 177.466185 -90.50830078 176.234375 C-90.51341171 174.9518988 -90.51852264 173.66942261 -90.52378845 172.3480835 C-90.53709361 168.85422535 -90.53776674 165.36047593 -90.53522515 161.86659741 C-90.5341498 158.93936301 -90.53905308 156.01215011 -90.54383057 153.08492035 C-90.55489609 146.17427274 -90.55537966 139.26367951 -90.54931641 132.35302734 C-90.54327658 125.24624747 -90.55559456 118.13966558 -90.57688648 111.03291947 C-90.59455138 104.90947738 -90.60049621 98.78609805 -90.59724873 92.66263145 C-90.59544374 89.01492191 -90.59799318 85.36735368 -90.61196327 81.71966743 C-90.62697277 77.64892005 -90.61752894 73.57857115 -90.60595703 69.5078125 C-90.61360077 68.31425644 -90.62124451 67.12070038 -90.62911987 65.89097595 C-90.57872865 57.84610515 -89.99784217 49.61498135 -85.04614258 42.93139648 C-77.40801788 35.8024801 -69.04160245 35.18585804 -59.00317383 35.06030273 C-57.21345482 35.02739532 -55.4237414 34.99418321 -53.6340332 34.96069336 C-50.82946215 34.91312484 -48.02491858 34.86860127 -45.22021484 34.82958984 C-42.50181317 34.78996576 -39.78384023 34.73843774 -37.06567383 34.68530273 C-36.22502884 34.67688858 -35.38438385 34.66847443 -34.51826477 34.6598053 C-30.60241768 34.57638952 -28.56246143 34.52560905 -25.23364258 32.30639648 C-23.95253765 28.99935819 -24.10009683 25.56666041 -23.98364258 22.05639648 C-23.41826743 14.29770983 -20.99036027 9.57822936 -15.23364258 4.43139648 C-10.1059607 0.79928849 -6.26934662 0.05213866 0 0 Z M-8.23364258 18.30639648 C-9.71954361 21.27819855 -9.39157081 24.12338925 -9.48364258 27.43139648 C-9.88031703 35.53145034 -11.92436913 40.0819762 -17.67114258 45.68139648 C-23.70102334 49.50522331 -29.35700891 49.57587886 -36.26879883 49.54467773 C-38.23169644 49.56008853 -40.19458721 49.5763915 -42.1574707 49.59350586 C-45.23420359 49.60999055 -48.31043335 49.61886375 -51.38720703 49.61181641 C-54.36914458 49.60919879 -57.34956409 49.63728619 -60.33129883 49.66967773 C-61.24911636 49.65947098 -62.1669339 49.64926422 -63.11256409 49.63874817 C-63.97373337 49.65193588 -64.83490265 49.6651236 -65.72216797 49.67871094 C-66.47462296 49.67934036 -67.22707794 49.67996979 -68.00233459 49.68061829 C-71.76999728 50.73727258 -72.99291317 52.06480107 -75.23364258 55.30639648 C-75.98386369 59.59536072 -75.90582633 63.84278246 -75.86474609 68.18725586 C-75.8719014 69.49668655 -75.8790567 70.80611725 -75.88642883 72.15522766 C-75.90492647 75.74012233 -75.89201552 79.32427225 -75.87233853 82.90913582 C-75.85593672 86.66375704 -75.86476705 90.41833165 -75.86985779 94.17297363 C-75.87437706 100.47782265 -75.85851949 106.78237483 -75.83056641 113.0871582 C-75.79851499 120.37240631 -75.79853061 127.65711911 -75.81578118 134.94240522 C-75.83165484 141.95571563 -75.82490739 148.9688301 -75.80784416 155.98213196 C-75.80097843 158.96451545 -75.80200112 161.94674167 -75.80938911 164.92912292 C-75.8184854 169.0948959 -75.79449856 173.25984449 -75.76708984 177.42553711 C-75.77361572 178.66205521 -75.7801416 179.8985733 -75.78686523 181.17256165 C-75.77414078 182.30811996 -75.76141632 183.44367828 -75.74830627 184.61364746 C-75.74549935 185.59808083 -75.74269243 186.58251419 -75.73980045 187.59677887 C-75.0907342 191.07142866 -73.64138587 192.76764949 -71.23364258 195.30639648 C-68.15686123 196.84478716 -64.92457017 196.45438957 -61.54789734 196.4535675 C-60.34393609 196.45908254 -60.34393609 196.45908254 -59.11565238 196.46470898 C-56.41107959 196.47577129 -53.70654518 196.47959395 -51.00195312 196.48339844 C-49.06890744 196.48966112 -47.13586297 196.49630774 -45.20281982 196.50331116 C-39.94037787 196.52073796 -34.67794501 196.53127729 -29.41548133 196.53951669 C-26.12989439 196.5446628 -22.84431029 196.55073868 -19.55872536 196.55702782 C-9.28526214 196.57608374 0.98819386 196.59031457 11.26167136 196.59863979 C23.13268185 196.60841763 35.00350613 196.6347498 46.87445098 196.67514068 C56.04222345 196.70526695 65.20994243 196.72010531 74.37776345 196.7234208 C79.85700652 196.72577509 85.33605076 196.73478481 90.81524086 196.75988197 C95.96903165 196.78310695 101.12249192 196.7874184 106.27632141 196.77712059 C108.1689889 196.77662377 110.06167235 196.78298693 111.95429039 196.79667664 C114.53647978 196.81431063 117.11747204 196.80733181 119.69966125 196.79414368 C120.45024962 196.80511292 121.20083799 196.81608217 121.97417146 196.82738382 C126.8485673 196.7671973 129.34928741 195.78353667 132.76635742 192.30639648 C134.05543812 189.72823509 133.90688501 187.86249339 133.92698669 184.97441101 C133.93703232 183.84297668 133.94707794 182.71154236 133.95742798 181.54582214 C133.96325897 180.29851822 133.96908997 179.05121429 133.97509766 177.76611328 C133.98488144 176.45712067 133.99466522 175.14812805 134.00474548 173.79946899 C134.0361454 169.45154793 134.05639795 165.10360762 134.07495117 160.75561523 C134.07989715 159.64636134 134.07989715 159.64636134 134.08494306 158.51469827 C134.11572284 151.54173363 134.14243288 144.56876471 134.15936184 137.59575176 C134.18127597 128.67369847 134.22326167 119.75224643 134.29279941 110.83043355 C134.34002479 104.55860809 134.36429332 98.28694494 134.37155873 92.01494724 C134.37651711 88.26812982 134.39161361 84.52198988 134.43130302 80.77536583 C134.47500544 76.59482751 134.47127584 72.41562251 134.46337891 68.23486328 C134.48337952 66.99363205 134.50338013 65.75240082 134.52398682 64.47355652 C134.62813863 58.66745926 134.62813863 58.66745926 132.54209137 53.42258072 C129.74788229 50.90449632 126.99356292 49.68232917 123.26489258 49.69458008 C122.43027496 49.68462006 121.59565735 49.67466003 120.73574829 49.66439819 C119.40898575 49.68441391 119.40898575 49.68441391 118.05541992 49.70483398 C117.12845306 49.6968277 116.20148621 49.68882141 115.24642944 49.68057251 C112.29429026 49.65756786 109.34353265 49.66693449 106.39135742 49.68139648 C103.44658172 49.68525722 100.50241692 49.68168552 97.55770874 49.66079712 C95.73012882 49.64880942 93.90237701 49.65120791 92.07485962 49.67050171 C85.68986925 49.64274454 79.83160589 48.85682523 74.74291992 44.62280273 C74.2969043 44.04401367 73.85088867 43.46522461 73.39135742 42.86889648 C72.69913086 42.00458008 72.69913086 42.00458008 71.99291992 41.12280273 C68.20934279 35.51973468 68.45162721 30.62760908 68.30541992 23.93530273 C67.69746904 19.84264789 66.65604416 18.20149462 63.76635742 15.30639648 C61.00314967 13.92479261 58.74419827 14.15621076 55.65185547 14.12939453 C54.36679611 14.1165593 53.08173676 14.10372406 51.75773621 14.09049988 C50.34785344 14.08233231 48.93796632 14.07488861 47.52807617 14.06811523 C46.46451369 14.06200194 46.46451369 14.06200194 45.3794651 14.05576515 C41.62602657 14.03490383 37.8726246 14.02060286 34.11914062 14.01123047 C30.24524526 14.00017031 26.37192501 13.96577604 22.49823284 13.92605877 C19.5170435 13.89989171 16.53599112 13.89153857 13.55469704 13.88794899 C12.1269626 13.88308259 10.69923431 13.87146687 9.27161217 13.852911 C7.27089684 13.82852431 5.2699018 13.8319039 3.26904297 13.83642578 C2.13146042 13.83055954 0.99387787 13.8246933 -0.17817688 13.81864929 C-3.90439843 14.41346994 -5.55471829 15.70258771 -8.23364258 18.30639648 Z " fill="#010101" transform="translate(350.233642578125,301.693603515625)"/>
<path d="M0 0 C3.1359157 1.77984405 3.84102736 2.52308207 5 6 C5.16590779 7.37649724 5.29350597 8.757851 5.39453125 10.140625 C7.40377593 34.92701984 14.84536288 55.78097811 31 75 C31.63808594 75.83144531 32.27617188 76.66289062 32.93359375 77.51953125 C47.81081361 95.37781974 73.34526172 106.4986882 96 109 C108.6307331 109.66203719 120.75698028 109.37502887 133 106 C134.216875 105.67128906 135.43375 105.34257812 136.6875 105.00390625 C150.75767611 100.76819698 162.90092262 93.58090414 174 84 C174.82628906 83.36449219 175.65257812 82.72898437 176.50390625 82.07421875 C194.13110296 67.42626655 205.24585812 42.24268928 208 20 C208.23380036 16.38778441 208.4320184 12.78166764 208.55859375 9.1640625 C209.03968074 5.71556287 209.9411141 3.78227824 212 1 C214.84083641 -0.42041821 216.85477278 -0.31452272 220 0 C222.30275556 1.8670991 223.67823871 3.35647741 225 6 C225.16288804 35.18953608 215.42941727 63.11202729 196 85 C195.00806641 86.22396484 195.00806641 86.22396484 193.99609375 87.47265625 C176.53679334 108.37743529 148.85176216 121.80383983 122 125 C119.69 125 117.38 125 115 125 C115 138.53 115 152.06 115 166 C126.66757382 165.92094516 126.66757382 165.92094516 138.33496094 165.81982422 C139.80142933 165.81398109 141.26790097 165.8088851 142.734375 165.8046875 C143.49121582 165.79445557 144.24805664 165.78422363 145.02783203 165.77368164 C152.0655083 165.77135283 152.0655083 165.77135283 155 168 C156.4375 171.3125 156.4375 171.3125 157 175 C155.88493049 177.44253321 154.88643445 179.11356555 153 181 C150.15520032 181.11120447 147.33445343 181.15739898 144.48876953 181.16113281 C143.59611389 181.16609772 142.70345825 181.17106262 141.78375244 181.17617798 C138.81676476 181.19083974 135.84983053 181.19760826 132.8828125 181.203125 C130.82876584 181.20887316 128.77471921 181.21463093 126.72067261 181.22039795 C122.40801746 181.23091938 118.09538103 181.23675456 113.78271484 181.24023438 C108.24854006 181.2457214 102.71461103 181.26974914 97.18051338 181.29820633 C92.93581412 181.31680296 88.6911744 181.32203672 84.44643784 181.32357025 C82.40582816 181.32660406 80.3652197 181.33465696 78.32464981 181.34775543 C75.47291467 181.36475381 72.62178436 181.36295092 69.77001953 181.35644531 C68.92210846 181.3656601 68.07419739 181.37487488 67.20059204 181.3843689 C61.42155302 181.34293592 61.42155302 181.34293592 59.31036186 179.62546921 C57.5246065 177.41028695 57.20211871 175.82966198 57 173 C57.71131551 170.219403 58.20969044 168.5716556 60.56542969 166.86767578 C64.10182859 165.60731059 67.56049138 165.75459681 71.265625 165.8046875 C72.32112549 165.80770874 72.32112549 165.80770874 73.39794922 165.81079102 C76.01536621 165.82122009 78.63268995 165.84914268 81.25 165.875 C87.1075 165.91625 92.965 165.9575 99 166 C99 152.47 99 138.94 99 125 C94.71 124.67 90.42 124.34 86 124 C82.81244205 123.38041042 79.79869001 122.7353532 76.6875 121.875 C75.88699219 121.65763184 75.08648437 121.44026367 74.26171875 121.21630859 C57.45219977 116.4454107 43.3338277 108.25967673 30 97 C29.18789063 96.33484375 28.37578125 95.6696875 27.5390625 94.984375 C4.75965916 75.58235953 -8.29750039 46.29806634 -10.69970703 16.79321289 C-10.78647705 15.59619751 -10.78647705 15.59619751 -10.875 14.375 C-10.93671387 13.61630615 -10.99842773 12.8576123 -11.06201172 12.07592773 C-11.31094185 7.46968741 -10.91006268 4.63409742 -8 1 C-5.19084526 -0.40457737 -3.11189466 -0.24895157 0 0 Z " fill="#000000" transform="translate(24,331)"/>
<path d="M0 0 C0 46.2 0 92.4 0 140 C-5.94 137.36 -11.88 134.72 -18 132 C-18.01458252 129.56197998 -18.02916504 127.12395996 -18.04418945 124.61206055 C-18.09448085 116.56530213 -18.16106606 108.51873833 -18.23571491 100.47217083 C-18.28048122 95.59254793 -18.3197234 90.71300973 -18.34643555 85.83325195 C-18.37240624 81.12578424 -18.41276402 76.41864139 -18.46318626 71.71137428 C-18.47989729 69.91364387 -18.49138512 68.11585721 -18.49761391 66.31805992 C-18.50720918 63.80373283 -18.5352123 61.29024486 -18.56762695 58.77612305 C-18.56619186 58.02949905 -18.56475677 57.28287506 -18.5632782 56.5136261 C-18.61678797 53.58735057 -18.6777742 51.49254563 -20.30436707 49.00617981 C-23.27422806 47.24387966 -25.80052335 48.18558776 -29 49 C-31.45531647 52.68297471 -31.2728067 54.55303961 -31.31884766 58.94995117 C-31.33391609 60.00399391 -31.33391609 60.00399391 -31.34928894 61.07933044 C-31.38016427 63.40053494 -31.39716787 65.72162387 -31.4140625 68.04296875 C-31.43277068 69.65294899 -31.45234383 71.26291939 -31.4727478 72.87287903 C-31.52411211 77.10934655 -31.56371473 81.34584588 -31.60089111 85.5824585 C-31.64090388 89.9059641 -31.69200864 94.22933692 -31.7421875 98.55273438 C-31.83899767 107.0350656 -31.92338606 115.51746244 -32 124 C-40.05620361 120.75246583 -47.88026825 117.20339544 -55.63671875 113.296875 C-56.68277786 112.77361633 -57.72883698 112.25035767 -58.80659485 111.71124268 C-60.99140225 110.61734164 -63.17524808 109.52151811 -65.3581543 108.42382812 C-68.71495588 106.73619656 -72.07499681 105.05515293 -75.43554688 103.375 C-77.56529471 102.3076718 -79.69485888 101.23997701 -81.82421875 100.171875 C-82.83135422 99.66775085 -83.83848969 99.16362671 -84.87614441 98.64422607 C-85.79833267 98.17994202 -86.72052094 97.71565796 -87.6706543 97.23730469 C-88.48495407 96.8282489 -89.29925385 96.41919312 -90.13822937 95.9977417 C-92 95 -92 95 -93 94 C-93.09311889 92.49581261 -93.11746028 90.98728644 -93.11352539 89.48022461 C-93.11344986 88.51930405 -93.11337433 87.55838348 -93.11329651 86.56834412 C-93.10813522 85.523564 -93.10297394 84.47878387 -93.09765625 83.40234375 C-93.0962413 82.33834854 -93.09482635 81.27435333 -93.09336853 80.17811584 C-93.08775064 76.76454917 -93.07519511 73.351047 -93.0625 69.9375 C-93.05748731 67.62955824 -93.052924 65.32161545 -93.04882812 63.01367188 C-93.0377754 57.34242574 -93.02101987 51.67121747 -93 46 C-82.13512568 40.24782238 -71.25534931 34.54233183 -60.25 29.0625 C-59.66426208 28.77007416 -59.07852417 28.47764832 -58.47503662 28.17636108 C-49.47911882 23.68624913 -40.43516032 19.30380246 -31.35009766 14.99707031 C-23.42129918 11.23001318 -15.5698386 7.31670815 -7.73876953 3.35083008 C-6.86849121 2.91150146 -5.99821289 2.47217285 -5.1015625 2.01953125 C-3.94648193 1.43328979 -3.94648193 1.43328979 -2.76806641 0.83520508 C-1 0 -1 0 0 0 Z " fill="#209CB9" transform="translate(484,131)"/>
<path d="M0 0 C9.83352061 9.23754966 14.64669498 20.29006801 15.15234375 33.66821289 C15.34477653 46.43158406 13.06702317 58.08970301 4.75 68.1875 C4.03263672 69.10595703 4.03263672 69.10595703 3.30078125 70.04296875 C-3.49151315 77.79337017 -15.57905731 83.47125535 -25.74707031 84.4206543 C-43.45069783 85.30520944 -56.51540508 83.29295022 -70.25 71.1875 C-79.82050666 61.45443696 -82.43064329 48.62413805 -82.5625 35.5 C-82.59150391 34.55705078 -82.62050781 33.61410156 -82.65039062 32.64257812 C-82.7508044 21.40395946 -78.10733564 11.96278775 -71.25 3.1875 C-52.02903133 -16.09906924 -21.09203134 -16.99080303 0 0 Z " fill="#8EC9E4" transform="translate(332.25,25.8125)"/>
<path d="M0 0 C7.38887727 6.59535348 12.73058719 15.10190228 14.21875 24.98046875 C14.87245591 39.40760609 13.4427787 51.59923988 4.03125 63.23046875 C-3.07904234 70.86516443 -13.22275446 75.89936481 -23.68359375 76.37890625 C-25.3619471 76.3918938 -27.04058328 76.38366646 -28.71875 76.35546875 C-29.59974365 76.34459229 -30.4807373 76.33371582 -31.38842773 76.32250977 C-43.49045032 76.0253694 -52.71197454 72.2775823 -61.85546875 64.1328125 C-71.56636967 53.87422519 -73.31293789 41.64355988 -73.05859375 27.9921875 C-72.56834232 17.63836995 -67.15009208 7.83098102 -59.65625 0.79296875 C-42.69382685 -12.76182475 -17.30581179 -13.17601579 0 0 Z " fill="#E4E4E3" transform="translate(408.78125,388.01953125)"/>
<path d="M0 0 C0.93102539 0.00757324 1.86205078 0.01514648 2.82128906 0.02294922 C9.4684025 0.18288152 14.86474321 0.92461612 20.625 4.4375 C21.40875 4.87320313 22.1925 5.30890625 23 5.7578125 C32.07721763 11.22205864 37.01990558 19.30960541 40.2109375 29.265625 C42.28615642 40.15073557 40.86804251 51.4767619 35.08203125 60.96875 C28.06188905 70.60738917 18.44361814 76.56294576 6.625 78.4375 C-6.00471127 79.29824048 -16.12798674 77.04956699 -26.375 69.4375 C-31.73838024 64.57661619 -34.92384222 59.19851341 -37.375 52.4375 C-37.73207031 51.50550781 -38.08914062 50.57351562 -38.45703125 49.61328125 C-41.66461756 38.51639754 -39.2278677 28.03173761 -34.16015625 18.04296875 C-29.36498943 9.88423564 -21.47775318 4.14149137 -12.60595703 1.00878906 C-8.43318958 -0.05974627 -4.28585034 -0.04861516 0 0 Z " fill="#8DC8E3" transform="translate(194.375,32.5625)"/>
<path d="M0 0 C1.41408966 1.18691641 2.8110171 2.39466876 4.1875 3.625 C4.81398438 4.17027344 5.44046875 4.71554687 6.0859375 5.27734375 C10.90626437 9.75035449 14.22783077 14.77389599 17.1875 20.625 C17.60386719 21.42679687 18.02023437 22.22859375 18.44921875 23.0546875 C24.30432885 36.90150927 23.20553204 56.43454202 17.73046875 70.3125 C15.41225002 75.28933414 12.76889161 79.46971399 9.1875 83.625 C8.54167969 84.40359375 7.89585937 85.1821875 7.23046875 85.984375 C-3.03758276 97.33828725 -18.29456799 102.46397134 -33.22265625 103.96875 C-49.08242595 104.43124632 -64.25638478 99.6373364 -76.3125 89.1875 C-87.00218873 78.81272845 -93.57637358 66.3823441 -94.11328125 51.3203125 C-94.13255982 49.46363764 -94.13609414 47.6067418 -94.125 45.75 C-94.12008545 44.77836914 -94.1151709 43.80673828 -94.11010742 42.80566406 C-93.99901195 36.02143376 -93.46080875 29.9401978 -90.8125 23.625 C-90.48378906 22.79355469 -90.15507812 21.96210938 -89.81640625 21.10546875 C-83.53002371 6.94479389 -71.34732516 -2.50348667 -57.29296875 -8.15234375 C-38.60269509 -14.71806278 -15.9915595 -12.06808043 0 0 Z M-70.6875 17.375 C-79.83130262 28.62891091 -80.94732436 41.42266241 -79.5390625 55.32421875 C-77.5420893 65.81774772 -71.73715267 75.48753595 -62.9765625 81.60546875 C-50.45090798 89.25652976 -36.28240673 90.98917249 -21.9375 87.75 C-10.75229849 83.74021078 -2.17588826 76.84830864 3.40625 66.328125 C8.16565501 56.19739148 8.99140918 43.10419283 6.0625 32.25 C1.66542295 20.08134491 -5.63517938 12.35465362 -17.125 6.66796875 C-35.58935885 -0.4977054 -56.84071364 2.74726691 -70.6875 17.375 Z " fill="#050403" transform="translate(415.8125,375.375)"/>
<path d="M0 0 C5.6563601 1.20725074 10.59319346 4.52003216 15.53515625 7.390625 C16.6348877 8.01815674 17.73461914 8.64568848 18.86767578 9.29223633 C27.86350256 14.44425064 36.79402432 19.70878604 45.69921875 25.015625 C51.8124493 28.65309948 57.97858164 32.19823751 64.16162109 35.71557617 C65.26691162 36.34943237 65.26691162 36.34943237 66.39453125 36.99609375 C67.0400293 37.36371826 67.68552734 37.73134277 68.35058594 38.11010742 C69.97265625 39.140625 69.97265625 39.140625 71.97265625 41.140625 C72.41015625 44.453125 72.41015625 44.453125 71.97265625 48.140625 C68.3091241 52.54809279 64.13621133 54.95917778 59.16015625 57.578125 C57.5416054 58.45321221 55.92449194 59.33096163 54.30859375 60.2109375 C53.44588867 60.68047852 52.58318359 61.15001953 51.69433594 61.63378906 C46.84119381 64.32069193 42.06774485 67.14318945 37.28515625 69.953125 C34.22608059 71.74082931 31.16588673 73.52660648 28.10546875 75.31201172 C25.98203825 76.55145175 23.85967446 77.79272076 21.73828125 79.03564453 C18.59352965 80.87340622 15.44053017 82.69617638 12.28515625 84.515625 C10.84233276 85.36411011 10.84233276 85.36411011 9.37036133 86.22973633 C8.47212646 86.74431396 7.5738916 87.2588916 6.6484375 87.7890625 C5.86380127 88.24458496 5.07916504 88.70010742 4.27075195 89.16943359 C1.54044638 90.32327993 -0.09432941 90.61435911 -3.02734375 90.140625 C-5.14860535 88.61068726 -5.14860535 88.61068726 -7.02734375 86.140625 C-7.42207886 83.36846701 -7.57498865 80.99317449 -7.54492188 78.22265625 C-7.55193115 77.42870453 -7.55894043 76.63475281 -7.56616211 75.81674194 C-7.58375161 73.19517936 -7.57211648 70.57469835 -7.55859375 67.953125 C-7.5612884 66.12996209 -7.5651706 64.30680057 -7.57019043 62.48364258 C-7.57608675 58.66376047 -7.56751829 54.84425265 -7.54882812 51.02441406 C-7.52603839 46.12807931 -7.53916076 41.23262155 -7.56311798 36.33631897 C-7.57757239 32.57191358 -7.57297163 28.8077161 -7.56260681 25.04330444 C-7.55993853 23.23798519 -7.56321285 21.43264706 -7.57252502 19.62734985 C-7.58268493 17.10392258 -7.56719862 14.58191526 -7.54492188 12.05859375 C-7.5530188 11.31249847 -7.56111572 10.5664032 -7.56945801 9.79769897 C-7.51311782 6.3527479 -7.26098043 4.45576141 -5.1842041 1.65454102 C-3.02734375 0.140625 -3.02734375 0.140625 0 0 Z " fill="#020303" transform="translate(253.02734375,155.859375)"/>
<path d="M0 0 C9.07573836 4.53786918 17.86339447 9.09414784 26.5625 14.25 C27.60212891 14.86101562 28.64175781 15.47203125 29.71289062 16.1015625 C32.47868542 17.7287096 35.24146679 19.36057668 38 21 C38.93320068 21.51788086 39.86640137 22.03576172 40.82788086 22.56933594 C41.54468018 23.04145508 42.26147949 23.51357422 43 24 C43 24.66 43 25.32 43 26 C42.29093506 26.40726318 41.58187012 26.81452637 40.85131836 27.23413086 C37.54587001 29.13379226 34.24150409 31.03532838 30.9375 32.9375 C30.34541748 33.27814484 29.75333496 33.61878967 29.14331055 33.96975708 C21.43562919 38.40623741 13.74798015 42.86954741 6.19116211 47.56030273 C2.21091744 50 2.21091744 50 0 50 C0 33.5 0 17 0 0 Z " fill="#E3E3E2" transform="translate(260,176)"/>
</svg>
