<?xml version="1.0" encoding="UTF-8"?>
<svg version="1.1" xmlns="http://www.w3.org/2000/svg" width="64" height="64">
<path d="M0 0 C2.1314207 -0.00969489 4.26187274 -0.04069969 6.39306641 -0.07226562 C7.74592525 -0.07879663 9.09879101 -0.08404672 10.45166016 -0.08789062 C12.30380127 -0.10190918 12.30380127 -0.10190918 14.19335938 -0.11621094 C17.27197266 0.24023438 17.27197266 0.24023438 18.94210815 1.43240356 C20.74826415 3.88770968 20.64006176 5.48895748 20.62841797 8.52197266 C20.63141907 9.59963898 20.63442017 10.6773053 20.63751221 11.78762817 C20.62516541 12.95019135 20.6128186 14.11275452 20.60009766 15.31054688 C20.59822449 16.50251678 20.59635132 17.69448669 20.59442139 18.9225769 C20.58769568 21.44271643 20.57377102 23.96284543 20.55322266 26.48291016 C20.52204262 30.35654309 20.51225051 34.2297696 20.50634766 38.10351562 C20.49717912 40.54753104 20.48680383 42.99154229 20.47509766 45.43554688 C20.46872284 47.18546432 20.46872284 47.18546432 20.46221924 48.97073364 C20.45261169 50.04209564 20.44300415 51.11345764 20.43310547 52.21728516 C20.42627747 53.16532013 20.41944946 54.1133551 20.41241455 55.09011841 C20.27197266 57.24023438 20.27197266 57.24023438 19.27197266 58.24023438 C15.03325948 58.48244656 10.78881284 58.46875069 6.54394531 58.48046875 C4.41252462 58.49016364 2.28207257 58.52116844 0.15087891 58.55273438 C-1.20197994 58.55926538 -2.5548457 58.56451547 -3.90771484 58.56835938 C-5.75985596 58.58237793 -5.75985596 58.58237793 -7.64941406 58.59667969 C-10.72802734 58.24023438 -10.72802734 58.24023438 -12.39816284 57.04806519 C-14.20431883 54.59275907 -14.09611645 52.99151127 -14.08447266 49.95849609 C-14.08747375 48.88082977 -14.09047485 47.80316345 -14.09356689 46.69284058 C-14.08122009 45.5302774 -14.06887329 44.36771423 -14.05615234 43.16992188 C-14.05427917 41.97795197 -14.05240601 40.78598206 -14.05047607 39.55789185 C-14.04375037 37.03775232 -14.02982571 34.51762332 -14.00927734 31.99755859 C-13.9780973 28.12392566 -13.96830519 24.25069915 -13.96240234 20.37695312 C-13.95323381 17.93293771 -13.94285852 15.48892646 -13.93115234 13.04492188 C-13.92690247 11.87831024 -13.92265259 10.71169861 -13.91827393 9.50973511 C-13.90866638 8.43837311 -13.89905884 7.36701111 -13.88916016 6.26318359 C-13.88233215 5.31514862 -13.87550415 4.36711365 -13.86846924 3.39035034 C-13.5021056 -2.218548 -4.40657526 0.01216446 0 0 Z " fill="#CCEEF5" transform="translate(28.72802734375,2.759765625)"/>
<path d="M0 0 C0.66 0.33 1.32 0.66 2 1 C2.02526605 8.67211202 2.04283123 16.3442134 2.05493164 24.01635742 C2.05997377 26.62866619 2.06680725 29.24097211 2.07543945 31.85327148 C2.08751036 35.59880268 2.09322935 39.34429672 2.09765625 43.08984375 C2.10281754 44.26586655 2.10797882 45.44188934 2.11329651 46.65354919 C2.11337204 47.73459427 2.11344757 48.81563934 2.11352539 49.92944336 C2.115746 50.88652695 2.11796661 51.84361053 2.12025452 52.82969666 C2 55 2 55 1 56 C-1.21855264 56.08783542 -3.43988496 56.10694609 -5.66015625 56.09765625 C-6.65685585 56.09553383 -6.65685585 56.09553383 -7.6736908 56.09336853 C-9.80333899 56.08775518 -11.93288339 56.07520054 -14.0625 56.0625 C-15.50325369 56.05748671 -16.94400903 56.05292351 -18.38476562 56.04882812 C-21.92321102 56.03778145 -25.46159539 56.02050792 -29 56 C-29.33 55.34 -29.66 54.68 -30 54 C-29.15703369 53.97494385 -28.31406738 53.9498877 -27.44555664 53.92407227 C-24.32758326 53.82911845 -21.20978497 53.72987552 -18.09204102 53.62768555 C-16.74085853 53.58428777 -15.38961947 53.5426163 -14.03833008 53.50268555 C-12.09963299 53.44510048 -10.16113724 53.38085702 -8.22265625 53.31640625 C-7.05484619 53.27974854 -5.88703613 53.24309082 -4.68383789 53.20532227 C-2.08220205 53.29923812 -2.08220205 53.29923812 -1 52 C-0.84003834 49.40846893 -0.74061303 46.8404798 -0.68359375 44.24609375 C-0.66281265 43.47064713 -0.64203156 42.6952005 -0.62062073 41.89625549 C-0.55504198 39.41009692 -0.49620201 36.92382955 -0.4375 34.4375 C-0.39432267 32.75584796 -0.35070864 31.07420706 -0.30664062 29.39257812 C-0.19935221 25.26183129 -0.09810868 21.13097464 0 17 C-0.66 17 -1.32 17 -2 17 C-2 23.27 -2 29.54 -2 36 C-2.33 36 -2.66 36 -3 36 C-3 33.69 -3 31.38 -3 29 C-3.99 29 -4.98 29 -6 29 C-6 27.35 -6 25.7 -6 24 C-8.97 24 -11.94 24 -15 24 C-15 22.68 -15 21.36 -15 20 C-13.35 20 -11.7 20 -10 20 C-10 17.36 -10 14.72 -10 12 C-13.96 12 -17.92 12 -22 12 C-22 14.64 -22 17.28 -22 20 C-20.35 20 -18.7 20 -17 20 C-17 21.32 -17 22.64 -17 24 C-19.97 24 -22.94 24 -26 24 C-26 25.65 -26 27.3 -26 29 C-26.99 29 -27.98 29 -29 29 C-29 31.64 -29 34.28 -29 37 C-29.33 37 -29.66 37 -30 37 C-30 26.44 -30 15.88 -30 5 C-20.76 5 -11.52 5 -2 5 C-2 6.32 -2 7.64 -2 9 C-1.34 9 -0.68 9 0 9 C0 6.03 0 3.06 0 0 Z " fill="#D2F9FD" transform="translate(47,5)"/>
<path d="M0 0 C0.66209473 -0.00095673 1.32418945 -0.00191345 2.00634766 -0.00289917 C3.40852961 -0.00358076 4.8107147 -0.00172792 6.21289062 0.00244141 C8.36595713 0.00779004 10.51881502 0.0024958 12.671875 -0.00390625 C14.03125046 -0.00324546 15.3906258 -0.00196429 16.75 0 C18.61785156 0.00169189 18.61785156 0.00169189 20.5234375 0.00341797 C23.375 0.1328125 23.375 0.1328125 24.375 1.1328125 C24.44705511 2.81890216 24.45886068 4.50781909 24.4375 6.1953125 C24.42847656 7.11441406 24.41945312 8.03351562 24.41015625 8.98046875 C24.39855469 9.69074219 24.38695312 10.40101562 24.375 11.1328125 C24.045 11.1328125 23.715 11.1328125 23.375 11.1328125 C23.375 9.4828125 23.375 7.8328125 23.375 6.1328125 C13.475 6.1328125 3.575 6.1328125 -6.625 6.1328125 C-6.625 19.6628125 -6.625 33.1928125 -6.625 47.1328125 C3.275 47.1328125 13.175 47.1328125 23.375 47.1328125 C23.375 37.8928125 23.375 28.6528125 23.375 19.1328125 C23.705 19.1328125 24.035 19.1328125 24.375 19.1328125 C24.4243651 24.08071427 24.46070269 29.02847333 24.48486328 33.9765625 C24.49493317 35.66050716 24.50858988 37.34443429 24.52587891 39.02832031 C24.55008426 41.44600751 24.56147296 43.86346393 24.5703125 46.28125 C24.58063507 47.0365097 24.59095764 47.79176941 24.60159302 48.56991577 C24.60199318 50.4257523 24.49722716 52.2810053 24.375 54.1328125 C22.375 56.1328125 22.375 56.1328125 19.50170898 56.37573242 C17.70455444 56.36956909 17.70455444 56.36956909 15.87109375 56.36328125 C14.57365234 56.36134766 13.27621094 56.35941406 11.93945312 56.35742188 C11.26277588 56.35121826 10.58609863 56.34501465 9.88891602 56.33862305 C7.81709529 56.32035302 5.74572103 56.31811345 3.67382812 56.31835938 C-6.48491743 56.27289507 -6.48491743 56.27289507 -7.625 55.1328125 C-7.7237517 53.45026015 -7.75298904 51.76357222 -7.75439453 50.078125 C-7.75754669 49.00030762 -7.76069885 47.92249023 -7.76394653 46.81201172 C-7.7619223 45.63912598 -7.75989807 44.46624023 -7.7578125 43.2578125 C-7.75876923 42.0630127 -7.75972595 40.86821289 -7.76071167 39.63720703 C-7.76139371 37.1051427 -7.75953778 34.57307662 -7.75537109 32.04101562 C-7.75002321 28.1496999 -7.75531533 24.25849961 -7.76171875 20.3671875 C-7.76105797 17.91406224 -7.75977682 15.46093706 -7.7578125 13.0078125 C-7.75983673 11.83492676 -7.76186096 10.66204102 -7.76394653 9.45361328 C-7.76079437 8.3757959 -7.75764221 7.29797852 -7.75439453 6.1875 C-7.75359894 5.23343262 -7.75280334 4.27936523 -7.75198364 3.29638672 C-7.48026622 -1.33319235 -3.86680257 0.00350254 0 0 Z " fill="#474172" transform="translate(22.625,2.8671875)"/>
<path d="M0 0 C3.96 0 7.92 0 12 0 C12 2.64 12 5.28 12 8 C10.35 8 8.7 8 7 8 C7 9.32 7 10.64 7 12 C9.97 12 12.94 12 16 12 C16 13.65 16 15.3 16 17 C16.99 17 17.98 17 19 17 C19 19.31 19 21.62 19 24 C16.36 24 13.72 24 11 24 C11 21.69 11 19.38 11 17 C11.99 17 12.98 17 14 17 C14 15.68 14 14.36 14 13 C11.69 13 9.38 13 7 13 C7 14.32 7 15.64 7 17 C7.99 17 8.98 17 10 17 C10 19.31 10 21.62 10 24 C7.36 24 4.72 24 2 24 C2 21.69 2 19.38 2 17 C2.99 17 3.98 17 5 17 C5 15.68 5 14.36 5 13 C2.69 13 0.38 13 -2 13 C-2 14.32 -2 15.64 -2 17 C-1.01 17 -0.02 17 1 17 C1 19.31 1 21.62 1 24 C-1.64 24 -4.28 24 -7 24 C-7 21.69 -7 19.38 -7 17 C-6.01 17 -5.02 17 -4 17 C-4 15.35 -4 13.7 -4 12 C-1.03 12 1.94 12 5 12 C5 10.68 5 9.36 5 8 C3.35 8 1.7 8 0 8 C0 5.36 0 2.72 0 0 Z " fill="#5D527D" transform="translate(25,17)"/>
<path d="M0 0 C9.9 0 19.8 0 30 0 C30 1.98 30 3.96 30 6 C27.31512835 8.68487165 25.93523019 8.25769449 22.1875 8.265625 C21.02992187 8.26820312 19.87234375 8.27078125 18.6796875 8.2734375 C17.46539062 8.26570313 16.25109375 8.25796875 15 8.25 C13.78570312 8.25773437 12.57140625 8.26546875 11.3203125 8.2734375 C9.58394531 8.26957031 9.58394531 8.26957031 7.8125 8.265625 C6.21341797 8.26224121 6.21341797 8.26224121 4.58203125 8.25878906 C2 8 2 8 0 6 C0 4.02 0 2.04 0 0 Z " fill="#70B5E0" transform="translate(16,50)"/>
<path d="M0 0 C0.66 0.33 1.32 0.66 2 1 C2.02526605 8.67211202 2.04283123 16.3442134 2.05493164 24.01635742 C2.05997377 26.62866619 2.06680725 29.24097211 2.07543945 31.85327148 C2.08751036 35.59880268 2.09322935 39.34429672 2.09765625 43.08984375 C2.10281754 44.26586655 2.10797882 45.44188934 2.11329651 46.65354919 C2.11337204 47.73459427 2.11344757 48.81563934 2.11352539 49.92944336 C2.115746 50.88652695 2.11796661 51.84361053 2.12025452 52.82969666 C2 55 2 55 1 56 C-1.21855264 56.08783542 -3.43988496 56.10694609 -5.66015625 56.09765625 C-6.65685585 56.09553383 -6.65685585 56.09553383 -7.6736908 56.09336853 C-9.80333899 56.08775518 -11.93288339 56.07520054 -14.0625 56.0625 C-15.50325369 56.05748671 -16.94400903 56.05292351 -18.38476562 56.04882812 C-21.92321102 56.03778145 -25.46159539 56.02050792 -29 56 C-29.33 55.34 -29.66 54.68 -30 54 C-29.15703369 53.97494385 -28.31406738 53.9498877 -27.44555664 53.92407227 C-24.32758326 53.82911845 -21.20978497 53.72987552 -18.09204102 53.62768555 C-16.74085853 53.58428777 -15.38961947 53.5426163 -14.03833008 53.50268555 C-12.09963299 53.44510048 -10.16113724 53.38085702 -8.22265625 53.31640625 C-7.05484619 53.27974854 -5.88703613 53.24309082 -4.68383789 53.20532227 C-2.08220205 53.29923812 -2.08220205 53.29923812 -1 52 C-0.9234786 48.9299616 -0.90942072 45.88213753 -0.9375 42.8125 C-0.94128662 41.88083008 -0.94507324 40.94916016 -0.94897461 39.98925781 C-0.96533771 35.99131941 -0.99321855 31.99348197 -1.02050781 27.99560547 C-1.03873079 25.08040856 -1.05074807 22.16522909 -1.0625 19.25 C-1.07079834 18.35901611 -1.07909668 17.46803223 -1.08764648 16.55004883 C-1.10922853 10.95082516 -0.7140326 5.55483627 0 0 Z " fill="#E1E2E4" transform="translate(47,5)"/>
<path d="M0 0 C8.58 0 17.16 0 26 0 C26.66 1.32 27.32 2.64 28 4 C18.1 4 8.2 4 -2 4 C-1.34 2.68 -0.68 1.36 0 0 Z " fill="#58BBF3" transform="translate(18,4)"/>
<path d="M0 0 C3.96 0 7.92 0 12 0 C12 2.64 12 5.28 12 8 C10.35 8 8.7 8 7 8 C7 9.32 7 10.64 7 12 C6.34 12 5.68 12 5 12 C5 10.68 5 9.36 5 8 C3.35 8 1.7 8 0 8 C0 5.36 0 2.72 0 0 Z " fill="#705F88" transform="translate(25,17)"/>
<path d="M0 0 C0.66 0 1.32 0 2 0 C2 1.32 2 2.64 2 4 C2.99 4 3.98 4 5 4 C5 6.31 5 8.62 5 11 C2.36 11 -0.28 11 -3 11 C-3 8.69 -3 6.38 -3 4 C-2.01 4 -1.02 4 0 4 C0 2.68 0 1.36 0 0 Z " fill="#655983" transform="translate(30,30)"/>
<path d="M0 0 C5.94 0 11.88 0 18 0 C18.66 1.32 19.32 2.64 20 4 C13.73 4 7.46 4 1 4 C1 3.67 1 3.34 1 3 C3.97 3 6.94 3 10 3 C10 2.34 10 1.68 10 1 C6.7 1 3.4 1 0 1 C0 0.67 0 0.34 0 0 Z " fill="#6AC6F5" transform="translate(26,4)"/>
<path d="M0 0 C3.3 0 6.6 0 10 0 C10 1.65 10 3.3 10 5 C6.7 5 3.4 5 0 5 C0 3.35 0 1.7 0 0 Z " fill="#F1719B" transform="translate(26,18)"/>
<path d="M0 0 C2.31 0.33 4.62 0.66 7 1 C7 2.65 7 4.3 7 6 C4.69 6.33 2.38 6.66 0 7 C0 4.69 0 2.38 0 0 Z " fill="#D56F98" transform="translate(36,34)"/>
<path d="M0 0 C0 2.31 0 4.62 0 7 C-2.31 6.67 -4.62 6.34 -7 6 C-7 4.35 -7 2.7 -7 1 C-1.125 0 -1.125 0 0 0 Z " fill="#D56F98" transform="translate(26,34)"/>
<path d="M0 0 C1.98 0 3.96 0 6 0 C6 1.65 6 3.3 6 5 C4.02 5 2.04 5 0 5 C0 3.35 0 1.7 0 0 Z " fill="#EC6F99" transform="translate(28,35)"/>
<path d="M0 0 C2.64 0 5.28 0 8 0 C8 0.99 8 1.98 8 3 C5.36 3 2.72 3 0 3 C0 2.01 0 1.02 0 0 Z " fill="#0D91EF" transform="translate(27,53)"/>
</svg>
