<?xml version="1.0" encoding="UTF-8"?>
<svg version="1.1" xmlns="http://www.w3.org/2000/svg" width="512" height="512">
<path d="M0 0 C1.72210693 0.0616333 1.72210693 0.0616333 3.47900391 0.12451172 C45.65668421 1.82509319 96.12226512 5.94192358 127 38 C137.60645918 49.6937322 141.69931841 63.33325734 141.30078125 78.7578125 C140.73221599 89.30083737 135.7999461 97.33543121 130.38671875 106.05859375 C121.01252486 121.31028874 116.05988956 134.07913813 120 152 C122.54171855 160.90586655 126.73361001 168.42671871 132 176 C132.59296875 175.22269531 133.1859375 174.44539062 133.796875 173.64453125 C137.60950948 169.06801788 141.17900128 167.26014267 146.9375 166.4375 C151.77699603 166.71996086 155.44635487 168.78052792 159 172 C162.02286934 176.76330926 162.37247144 180.50786515 161.5078125 185.92578125 C160.19365687 191.29360154 157.22048299 193.7105059 153 197 C163.71539338 206.94572053 163.71539338 206.94572053 174.796875 216.4765625 C179.3854493 220.27330318 183.2051665 224.41607069 187 229 C187.42941895 229.50644043 187.85883789 230.01288086 188.30126953 230.53466797 C204.47026415 249.64751939 217.25237023 271.78791672 224 296 C224.19464844 296.65742188 224.38929688 297.31484375 224.58984375 297.9921875 C232.9343543 326.89800837 228.92153605 356.90030312 215.30859375 383.27734375 C211.29229401 390.51786556 206.43014025 396.770499 201 403 C200.28972656 403.83273437 199.57945312 404.66546875 198.84765625 405.5234375 C172.32225267 435.9341172 133.48473407 458.77679898 95.10546875 470.50390625 C91.44251316 471.70522876 89.15244123 473.19473783 86.4375 476 C79.14872685 482.93260273 70.91164697 484.15203465 61.10775757 484.14044189 C60.31903751 484.14341302 59.53031745 484.14638414 58.71769679 484.1494453 C56.07790034 484.15810865 53.43814937 484.15963855 50.79833984 484.16113281 C48.90414331 484.16576273 47.0099477 484.17078762 45.11575317 484.17617798 C39.970847 484.18928888 34.82595388 484.1957446 29.68103361 484.20018864 C26.46423003 484.203122 23.24743 484.20722735 20.0306282 484.21169281 C9.95898848 484.22536544 -0.11264312 484.23503276 -10.18429148 484.2388947 C-21.79708673 484.24337241 -33.40976411 484.26090802 -45.02252352 484.2898953 C-54.00701309 484.31154068 -62.99146957 484.32160054 -71.97598493 484.32293582 C-77.33796496 484.32398197 -82.69983415 484.32984911 -88.06178665 484.34775543 C-93.10971726 484.36428508 -98.15745428 484.36636789 -103.20540237 484.35761642 C-105.05200724 484.35684862 -106.89862273 484.36115473 -108.74520111 484.37107468 C-134.17726517 484.49961855 -134.17726517 484.49961855 -144 475 C-151.31891106 467.26524172 -152.98810381 458.88429782 -153.6875 448.5390625 C-154.13120847 444.9339312 -155.45759052 442.27762014 -157 439 C-158.1018199 434.03039017 -158.13596693 429.20892781 -158.11352539 424.14892578 C-158.11367142 423.27998184 -158.11381744 422.4110379 -158.1139679 421.51576233 C-158.11327421 418.65891985 -158.10550735 415.80214351 -158.09765625 412.9453125 C-158.09579014 410.95848628 -158.09436715 408.97165961 -158.09336853 406.98483276 C-158.08955857 401.76687337 -158.0797413 396.54894201 -158.06866455 391.33099365 C-158.05841769 386.00191629 -158.0538639 380.67283438 -158.04882812 375.34375 C-158.03811764 364.89582105 -158.02105953 354.44791286 -158 344 C-158.90242432 344.00523682 -159.80484863 344.01047363 -160.73461914 344.01586914 C-164.10978851 344.03299758 -167.4849111 344.04549212 -170.86010742 344.05493164 C-172.31584404 344.05993417 -173.77157571 344.0667383 -175.22729492 344.07543945 C-177.32992788 344.087685 -179.43249391 344.09326923 -181.53515625 344.09765625 C-182.797229 344.10289307 -184.05930176 344.10812988 -185.35961914 344.11352539 C-189 344 -189 344 -192.84155273 343.36889648 C-193.88384033 343.24716064 -194.92612793 343.1254248 -196 343 C-196.66 343.66 -197.32 344.32 -198 345 C-199.423125 345.309375 -199.423125 345.309375 -200.875 345.625 C-204.90085308 347.39637535 -205.56141624 349.30997122 -207.23828125 353.22265625 C-208 355 -208 355 -209 356 C-211.875 356.375 -211.875 356.375 -215 356 C-216.6875 353.8125 -216.6875 353.8125 -218 351 C-219.74917948 347.41834678 -220.35109 346.259564 -224.125 344.75 C-225.07375 344.5025 -226.0225 344.255 -227 344 C-228 343 -228 343 -228.0625 339.4375 C-228.041875 338.303125 -228.02125 337.16875 -228 336 C-224.535 334.515 -224.535 334.515 -221 333 C-221.83660156 332.37996094 -222.67320312 331.75992187 -223.53515625 331.12109375 C-238.61409081 319.74014575 -251.0887797 307.13025601 -261 291 C-261.40444336 290.34918457 -261.80888672 289.69836914 -262.22558594 289.02783203 C-278.24695248 262.92976658 -283.37793776 235.33606885 -283.31567383 205.03198242 C-283.3125226 201.83542449 -283.33602387 198.63980311 -283.36132812 195.44335938 C-283.41377276 178.72901359 -282.12866443 162.32257286 -277.25 146.25 C-276.99323486 145.3849585 -276.73646973 144.51991699 -276.47192383 143.62866211 C-272.25044724 129.8571263 -266.27931425 117.76422969 -258 106 C-257.278125 104.97132812 -256.55625 103.94265625 -255.8125 102.8828125 C-251.12956302 96.44377415 -246.02848397 90.57409264 -240.578125 84.7890625 C-238.77573988 82.8392095 -237.07170535 80.90133625 -235.39453125 78.8515625 C-232.25066355 75.10764175 -228.72708381 72.14355048 -225 69 C-224.19304687 68.28199219 -223.38609375 67.56398438 -222.5546875 66.82421875 C-203.04346719 49.8422307 -180.01985744 36.8824136 -156.14526367 27.16430664 C-150.10438081 24.64818731 -145.45902106 21.70175521 -140.30859375 17.66015625 C-133.66281339 12.88104178 -126.4763465 12.87918366 -118.54931641 12.61669922 C-111.28192576 12.24847654 -104.34522501 10.74040473 -97.25 9.1875 C-65.45799603 2.31282937 -32.56368551 -1.17057221 0 0 Z M144.1875 179.1875 C142.74709672 180.95054109 142.74709672 180.95054109 143.3125 183.1875 C143.539375 183.785625 143.76625 184.38375 144 185 C145.83700789 185.77242269 145.83700789 185.77242269 148 186 C149.91666667 184.91666667 149.91666667 184.91666667 151 183 C150.77242269 180.83700789 150.77242269 180.83700789 150 179 C146.99251085 177.84137694 146.99251085 177.84137694 144.1875 179.1875 Z " fill="#2A2ABC" transform="translate(284,14)"/>
<path d="M0 0 C78.54 0 157.08 0 238 0 C238 117.15 238 234.3 238 355 C230.41 355 222.82 355 215 355 C214.94392578 350.53919922 214.94392578 350.53919922 214.88671875 345.98828125 C214.84048309 343.10222088 214.78925682 340.21628916 214.73754883 337.33032227 C214.70433273 335.32747236 214.67629048 333.3245296 214.65356445 331.3215332 C214.61995766 328.43921406 214.56763852 325.55774332 214.51171875 322.67578125 C214.50213387 321.33644279 214.50213387 321.33644279 214.49235535 319.970047 C214.3798794 315.1941255 214.13898988 311.85771032 211 308 C208.62465291 306.81232646 207.15875924 306.86254062 204.50753784 306.84178162 C203.56240326 306.8319928 202.61726868 306.82220398 201.64349365 306.81211853 C200.08335541 306.80348534 200.08335541 306.80348534 198.49169922 306.79467773 C197.39900726 306.78477814 196.30631531 306.77487854 195.18051147 306.76467896 C191.55525914 306.7329969 187.92999368 306.70828002 184.3046875 306.68359375 C181.79647473 306.66303001 179.28826548 306.6420337 176.78005981 306.62062073 C170.8444346 306.57099567 164.90878617 306.5257459 158.97311127 306.48259836 C151.55365216 306.42839825 144.13425124 306.36743626 136.71484375 306.30664062 C123.47660207 306.19898582 110.23832112 306.09736924 97 306 C97.27714844 306.73605469 97.55429688 307.47210938 97.83984375 308.23046875 C98.20207031 309.20628906 98.56429687 310.18210937 98.9375 311.1875 C99.29714844 312.15042969 99.65679687 313.11335938 100.02734375 314.10546875 C104.06987524 326.13565282 103.35997324 340.5562615 98 352 C97.34 352.99 96.68 353.98 96 355 C64.32 355 32.64 355 0 355 C0 237.85 0 120.7 0 0 Z " fill="#FDFEFE" transform="translate(137,75)"/>
<path d="M0 0 C1.72210693 0.0616333 1.72210693 0.0616333 3.47900391 0.12451172 C45.65668421 1.82509319 96.12226512 5.94192358 127 38 C137.60645918 49.6937322 141.69931841 63.33325734 141.30078125 78.7578125 C140.73221599 89.30083737 135.7999461 97.33543121 130.38671875 106.05859375 C121.01252486 121.31028874 116.05988956 134.07913813 120 152 C122.54171855 160.90586655 126.73361001 168.42671871 132 176 C132.59296875 175.22269531 133.1859375 174.44539062 133.796875 173.64453125 C137.60950948 169.06801788 141.17900128 167.26014267 146.9375 166.4375 C151.77699603 166.71996086 155.44635487 168.78052792 159 172 C162.02286934 176.76330926 162.37247144 180.50786515 161.5078125 185.92578125 C160.19365687 191.29360154 157.22048299 193.7105059 153 197 C163.71539338 206.94572053 163.71539338 206.94572053 174.796875 216.4765625 C179.3854493 220.27330318 183.2051665 224.41607069 187 229 C187.42941895 229.50644043 187.85883789 230.01288086 188.30126953 230.53466797 C204.47026415 249.64751939 217.25237023 271.78791672 224 296 C224.19464844 296.65742188 224.38929688 297.31484375 224.58984375 297.9921875 C232.9343543 326.89800837 228.92153605 356.90030312 215.30859375 383.27734375 C211.29229401 390.51786556 206.43014025 396.770499 201 403 C200.28972656 403.83273437 199.57945312 404.66546875 198.84765625 405.5234375 C165.37147784 443.90299828 112.57308273 471.70663147 62 477 C39.66612102 478.28330835 8.79442102 478.49591417 -10 464 C-8.96984772 463.99635437 -7.93969543 463.99270874 -6.87832642 463.98895264 C2.86083257 463.9519068 12.59967818 463.8940298 22.33859825 463.81609726 C27.34472278 463.77669767 32.35067338 463.7444724 37.35693359 463.72900391 C42.19416611 463.7137877 47.03092023 463.67925449 51.867939 463.63169098 C53.70733085 463.61692822 55.54679102 463.60896193 57.38624191 463.60811615 C71.34830426 463.59524743 81.24488617 462.53669615 91.796875 452.515625 C97.42091407 446.0938499 100.1184924 438.92262068 100.14260101 430.46986675 C100.14585203 429.80031522 100.14910305 429.13076368 100.15245259 428.44092271 C100.16217234 426.18120169 100.16474704 423.92152857 100.1673584 421.66178894 C100.17280366 420.03163032 100.17866699 418.40147305 100.18491411 416.7713173 C100.20078747 412.2787038 100.21028788 407.78609577 100.21867895 403.29346287 C100.22667652 399.44299629 100.23836854 395.59254451 100.25009376 391.74208774 C100.29202995 377.94656733 100.31921455 364.1510295 100.34375 350.35546875 C100.3457249 349.26661213 100.3476998 348.1777555 100.34973454 347.05590323 C100.38890279 325.43456529 100.42260778 303.8132216 100.44481659 282.19185925 C100.44978592 277.43658121 100.45483023 272.68130326 100.45996094 267.92602539 C100.46123161 266.74412018 100.46250228 265.56221496 100.46381146 264.34449444 C100.4851592 245.20990532 100.53414063 226.07548825 100.59420508 206.94098564 C100.65536794 187.29442925 100.69001072 167.64796151 100.6992898 148.00131112 C100.70519668 136.97118092 100.72291045 125.94134189 100.77067566 114.91130638 C100.8113306 105.51447689 100.82813368 96.11798609 100.81402284 86.72107258 C100.80756733 81.92928418 100.81231279 77.13821674 100.84789658 72.34654045 C100.88026772 67.95200933 100.87977072 63.55870325 100.85407954 59.16413931 C100.85045215 57.58187159 100.85845987 55.99952084 100.87986106 54.41739371 C101.02695816 42.83680584 98.99689967 32.91348058 91.16176176 23.8808009 C83.27304733 16.45310295 72.75912847 13.69143143 62.16650391 13.7215271 C61.42054553 13.7157347 60.67458715 13.7099423 59.90602398 13.70397437 C57.42949182 13.68709411 54.95314735 13.6841083 52.4765625 13.68115234 C50.69214935 13.67184588 48.90774052 13.66167615 47.12333679 13.65071106 C42.29546126 13.62347796 37.4676148 13.60828151 32.63968277 13.59528303 C27.58812385 13.57962317 22.53662404 13.55284207 17.48510742 13.5272522 C7.92662655 13.48051492 -1.63186549 13.44374637 -11.19040203 13.41057932 C-22.07554401 13.37232223 -32.96062655 13.32292146 -43.84571838 13.27259517 C-66.23043483 13.16935045 -88.61518949 13.08006581 -111 13 C-107.56179207 11.1936925 -104.46235672 10.34763712 -100.63671875 9.59765625 C-99.36965088 9.34854492 -98.10258301 9.09943359 -96.79711914 8.84277344 C-95.42743867 8.58167005 -94.05756023 8.32160335 -92.6875 8.0625 C-91.98994598 7.92960571 -91.29239197 7.79671143 -90.57369995 7.65979004 C-60.82372829 2.0163 -30.31560195 -1.08975998 0 0 Z M144.1875 179.1875 C142.74709672 180.95054109 142.74709672 180.95054109 143.3125 183.1875 C143.539375 183.785625 143.76625 184.38375 144 185 C145.83700789 185.77242269 145.83700789 185.77242269 148 186 C149.91666667 184.91666667 149.91666667 184.91666667 151 183 C150.77242269 180.83700789 150.77242269 180.83700789 150 179 C146.99251085 177.84137694 146.99251085 177.84137694 144.1875 179.1875 Z " fill="#FEDAED" transform="translate(284,14)"/>
<path d="M0 0 C0.99 0.495 0.99 0.495 2 1 C1.67386719 1.44988281 1.34773437 1.89976563 1.01171875 2.36328125 C-5.39369814 11.79190375 -6.44661496 21.49775542 -6.39872742 32.67399597 C-6.40869766 34.51956722 -6.40869766 34.51956722 -6.41886932 36.40242273 C-6.43419982 39.78679792 -6.43635442 43.17070017 -6.43273985 46.55507576 C-6.43211261 50.21616544 -6.44876765 53.87718313 -6.46325684 57.53823853 C-6.48598579 63.87103506 -6.49791806 70.20377681 -6.50238609 76.53661156 C-6.50886181 85.69265971 -6.5318241 94.84860904 -6.55872939 104.00461725 C-6.60194391 118.86186958 -6.63194109 133.71911773 -6.65356445 148.57641602 C-6.67459016 163.00352021 -6.70187912 177.43059028 -6.73754883 191.85766602 C-6.73974765 192.74788773 -6.74194648 193.63810945 -6.74421193 194.55530759 C-6.75528198 199.02156817 -6.76647472 203.48782844 -6.77772844 207.95408857 C-6.87083797 244.96936292 -6.94247092 281.9846541 -7 319 C-11.28669858 319.02487594 -15.57335795 319.04294275 -19.86010742 319.05493164 C-21.31584404 319.05993417 -22.77157571 319.0667383 -24.22729492 319.07543945 C-26.32992788 319.087685 -28.43249391 319.09326923 -30.53515625 319.09765625 C-31.797229 319.10289307 -33.05930176 319.10812988 -34.35961914 319.11352539 C-38 319 -38 319 -41.84155273 318.36889648 C-42.88384033 318.24716064 -43.92612793 318.1254248 -45 318 C-45.66 318.66 -46.32 319.32 -47 320 C-48.423125 320.309375 -48.423125 320.309375 -49.875 320.625 C-53.90085308 322.39637535 -54.56141624 324.30997122 -56.23828125 328.22265625 C-57 330 -57 330 -58 331 C-60.875 331.375 -60.875 331.375 -64 331 C-65.6875 328.8125 -65.6875 328.8125 -67 326 C-68.74917948 322.41834678 -69.35109 321.259564 -73.125 319.75 C-74.07375 319.5025 -75.0225 319.255 -76 319 C-77 318 -77 318 -77.0625 314.4375 C-77.041875 313.303125 -77.02125 312.16875 -77 311 C-73.535 309.515 -73.535 309.515 -70 308 C-70.83660156 307.37996094 -71.67320313 306.75992187 -72.53515625 306.12109375 C-87.61409081 294.74014575 -100.0887797 282.13025601 -110 266 C-110.40444336 265.34918457 -110.80888672 264.69836914 -111.22558594 264.02783203 C-127.24695248 237.92976658 -132.37793776 210.33606885 -132.31567383 180.03198242 C-132.3125226 176.83542449 -132.33602387 173.63980311 -132.36132812 170.44335938 C-132.41377276 153.72901359 -131.12866443 137.32257286 -126.25 121.25 C-125.99323486 120.3849585 -125.73646973 119.51991699 -125.47192383 118.62866211 C-121.25044724 104.8571263 -115.27931425 92.76422969 -107 81 C-106.278125 79.97132812 -105.55625 78.94265625 -104.8125 77.8828125 C-100.12956302 71.44377415 -95.02848397 65.57409264 -89.578125 59.7890625 C-87.77573988 57.8392095 -86.07170535 55.90133625 -84.39453125 53.8515625 C-81.25066355 50.10764175 -77.72708381 47.14355048 -74 44 C-73.19304687 43.28199219 -72.38609375 42.56398437 -71.5546875 41.82421875 C-52.9407543 25.62320282 -30.89150373 12.85509709 -8.25 3.1875 C-7.44546387 2.84348145 -6.64092773 2.49946289 -5.81201172 2.14501953 C-3.90089975 1.36261238 -1.95282612 0.67155047 0 0 Z " fill="#FED9EC" transform="translate(133,39)"/>
<path d="M0 0 C0.71618067 -0.00367669 1.43236134 -0.00735338 2.17024446 -0.01114148 C4.5822738 -0.02219926 6.99426011 -0.0260257 9.40631104 -0.02983093 C11.13084043 -0.03609402 12.85536847 -0.04274068 14.57989502 -0.04974365 C19.27423991 -0.06716816 23.96857461 -0.07770945 28.66294384 -0.08594918 C31.59475825 -0.09109646 34.52656948 -0.09717233 37.45838165 -0.10346031 C46.62820099 -0.12251678 55.79801225 -0.13674672 64.96784759 -0.14507228 C75.55859678 -0.15484618 86.14913705 -0.18116778 96.73981261 -0.22157317 C104.92162179 -0.25171875 113.10337104 -0.26653969 121.28523469 -0.26985329 C126.17374827 -0.27220564 131.06203877 -0.28118995 135.95049286 -0.30631447 C140.55027474 -0.32957283 145.14968631 -0.33383746 149.74951172 -0.32355309 C151.43696574 -0.32305706 153.12443786 -0.3293971 154.81183624 -0.34310913 C157.11784013 -0.3607981 159.42251079 -0.35373785 161.72851562 -0.34057617 C163.66314981 -0.3441587 163.66314981 -0.3441587 165.63686752 -0.34781361 C170.25555623 0.30887846 173.56197127 2.18046087 176.47605896 5.86312866 C177.48190788 9.44070992 177.4041569 13.00599886 177.3928833 16.69184875 C177.39799423 17.55246918 177.40310516 18.4130896 177.40837097 19.29978943 C177.42226637 22.1435187 177.42131027 24.9870056 177.41900635 27.83076477 C177.42289325 29.8084726 177.42722791 31.78617959 177.43199158 33.7638855 C177.43945363 37.90900885 177.43916256 42.05404703 177.43389893 46.19917297 C177.42810373 51.51001265 177.44503664 56.82050364 177.4682436 62.13128567 C177.48297799 66.21565793 177.48385304 70.29994616 177.48073387 74.38434029 C177.48124721 76.34234877 177.48648732 78.30036194 177.49654579 80.25834465 C177.50888737 82.9968263 177.50213226 85.73462793 177.49053955 88.47309875 C177.49818329 89.28105392 177.50582703 90.08900909 177.51370239 90.92144775 C177.47069214 95.51999431 177.02924722 98.53038109 174.1182251 102.14717102 C170.58924018 105.57448504 167.72793058 105.52586872 162.9132843 105.53485107 C161.82314102 105.54292938 161.82314102 105.54292938 160.71097463 105.55117089 C158.27501948 105.5654817 155.83960536 105.55833926 153.40362549 105.55122375 C151.65747134 105.55692571 149.91132092 105.56388929 148.16517639 105.57202148 C143.42137357 105.5899875 138.67775537 105.58877804 133.93392873 105.5830791 C129.97505781 105.57999218 126.01622261 105.58607417 122.05735677 105.59211785 C112.71864799 105.60617281 103.38003067 105.60459374 94.0413208 105.59321594 C84.40391218 105.58173376 74.7667818 105.59580988 65.12940985 105.62261242 C56.85753736 105.64475686 48.58575229 105.65140963 40.31385225 105.64553601 C35.37232994 105.64216221 30.43098601 105.64460948 25.4894886 105.66178703 C20.84286499 105.67723408 16.19665409 105.67332562 11.55004692 105.65448189 C9.84444636 105.65078977 8.13881537 105.6539226 6.4332428 105.66436768 C4.10506711 105.67753732 1.77826585 105.66606743 -0.54985046 105.64837646 C-1.85267943 105.64816718 -3.1555084 105.6479579 -4.49781704 105.64774227 C-8.44183996 105.06432352 -10.08402195 103.93085704 -12.8817749 101.14717102 C-14.54127216 97.8281765 -14.05644906 94.1127778 -14.074646 90.46235657 C-14.08282349 89.56301392 -14.09100098 88.66367126 -14.09942627 87.73707581 C-14.12429498 84.75268729 -14.14079957 81.76834636 -14.1552124 78.78388977 C-14.16053608 77.76593637 -14.16585976 76.74798298 -14.17134476 75.69918251 C-14.19808204 70.31181719 -14.21745559 64.9244751 -14.23187256 59.5370636 C-14.24852695 53.96819965 -14.29330995 48.39992676 -14.344244 42.83128643 C-14.37787362 38.55305285 -14.38944528 34.27496034 -14.39509964 29.99660683 C-14.40182336 27.94366244 -14.41707437 25.89072769 -14.44099045 23.83791161 C-14.47255438 20.9648384 -14.47269198 18.09336961 -14.465271 15.22016907 C-14.48167633 14.37166885 -14.49808167 13.52316864 -14.51498413 12.6489563 C-14.46887342 8.2892615 -14.29538589 6.66250847 -11.4703064 3.14260864 C-7.37044321 -0.01787879 -5.17098679 0.01715362 0 0 Z " fill="#A0B1FE" transform="translate(174.88177490234375,98.85282897949219)"/>
<path d="M0 0 C14.51653275 -0.11684445 29.0329925 -0.20466089 43.5498991 -0.25906086 C50.29050613 -0.28483364 57.03082084 -0.31996567 63.77124023 -0.37719727 C70.2745587 -0.43238932 76.77768737 -0.46141179 83.28122902 -0.47438622 C85.76400347 -0.48363386 88.24676105 -0.50169213 90.72940636 -0.52865028 C94.20367915 -0.56488011 97.67669214 -0.56994763 101.15112305 -0.56762695 C102.18042938 -0.58560333 103.20973572 -0.60357971 104.27023315 -0.62210083 C111.26135885 -0.57148 111.26135885 -0.57148 115.11555481 2.41047668 C117.46894058 5.64439792 118.12524551 7.16799905 118.11352539 11.08251953 C118.11344986 11.92324005 118.11337433 12.76396057 118.11329651 13.63015747 C118.10555458 14.99272171 118.10555458 14.99272171 118.09765625 16.3828125 C118.09553383 17.77691849 118.09553383 17.77691849 118.09336853 19.19918823 C118.08776053 22.17449124 118.07520668 25.14971964 118.0625 28.125 C118.05748603 30.13932183 118.05292295 32.15364484 118.04882812 34.16796875 C118.03863838 39.1120312 118.01906453 44.05593185 118 49 C125.59 49 133.18 49 141 49 C141.7529747 71.73983609 141.7529747 71.73983609 136 78 C130.94658188 83.37750907 125.47464644 86.66470958 118.05874157 87.38031673 C116.59616502 87.3979268 115.1333353 87.39944642 113.67070007 87.38768005 C112.85914784 87.39306559 112.0475956 87.39845113 111.21145087 87.40399987 C108.50628915 87.41824739 105.80161898 87.41118367 103.09643555 87.40405273 C101.15105803 87.40975806 99.20568385 87.41672295 97.26031494 87.42485046 C91.98538451 87.44278112 86.71062045 87.44161337 81.43566871 87.43590808 C77.02727559 87.43281544 72.61891439 87.43890969 68.21052581 87.44494683 C57.80674601 87.45899078 47.40304833 87.45743243 36.99926758 87.44604492 C26.27865937 87.43456966 15.55830151 87.44862981 4.83772629 87.4754414 C-4.37695013 87.49762105 -13.59154811 87.50423048 -22.80624932 87.49836498 C-28.30511639 87.49499894 -33.80382308 87.49738691 -39.30266762 87.51461601 C-44.47626966 87.53011858 -49.64950199 87.52609272 -54.8230896 87.50731087 C-56.71687437 87.50363386 -58.61068673 87.50670743 -60.50444603 87.51719666 C-81.37518579 87.62392815 -81.37518579 87.62392815 -89.65625 80.81640625 C-90.2646875 80.07261719 -90.873125 79.32882812 -91.5 78.5625 C-92.1290625 77.82128906 -92.758125 77.08007812 -93.40625 76.31640625 C-99.55486044 67.37982294 -97 61.39739681 -97 49 C-49.48 48.505 -49.48 48.505 -1 48 C4.37586384 34.5603404 6.42038755 21.26116264 1.75390625 7.26171875 C0.95344924 4.86034773 0.47685348 2.48349403 0 0 Z " fill="#6584FD" transform="translate(234,381)"/>
<path d="M0 0 C0.99 0.495 0.99 0.495 2 1 C1.67386719 1.44988281 1.34773438 1.89976563 1.01171875 2.36328125 C-5.39369814 11.79190375 -6.44661496 21.49775542 -6.39872742 32.67399597 C-6.40869766 34.51956722 -6.40869766 34.51956722 -6.41886932 36.40242273 C-6.43419982 39.78679792 -6.43635442 43.17070017 -6.43273985 46.55507576 C-6.43211261 50.21616544 -6.44876765 53.87718313 -6.46325684 57.53823853 C-6.48598579 63.87103506 -6.49791806 70.20377681 -6.50238609 76.53661156 C-6.50886181 85.69265971 -6.5318241 94.84860904 -6.55872939 104.00461725 C-6.60194391 118.86186958 -6.63194109 133.71911773 -6.65356445 148.57641602 C-6.67459016 163.00352021 -6.70187912 177.43059028 -6.73754883 191.85766602 C-6.73974765 192.74788773 -6.74194648 193.63810945 -6.74421193 194.55530759 C-6.75528198 199.02156817 -6.76647472 203.48782844 -6.77772844 207.95408857 C-6.87083797 244.96936292 -6.94247092 281.9846541 -7 319 C-11.3050091 319.02483806 -15.60997951 319.04292512 -19.91503906 319.05493164 C-21.37761157 319.05994045 -22.84017911 319.06674938 -24.30273438 319.07543945 C-26.41277291 319.08765698 -28.52274487 319.09326295 -30.6328125 319.09765625 C-31.90012207 319.10289307 -33.16743164 319.10812988 -34.47314453 319.11352539 C-38 319 -38 319 -44 318 C-44.33 240.12 -44.66 162.24 -45 82 C-46.32 82.99 -47.64 83.98 -49 85 C-51.5 84.6875 -51.5 84.6875 -54 83 C-54.9609375 81.1796875 -54.9609375 81.1796875 -55.875 79.0625 C-57.31857768 75.78326182 -58.34465681 74.42414692 -61.6875 73.0625 C-62.780625 72.711875 -63.87375 72.36125 -65 72 C-66 71 -66 71 -66.0625 67.9375 C-66.041875 66.968125 -66.02125 65.99875 -66 65 C-65.07767578 64.70609375 -65.07767578 64.70609375 -64.13671875 64.40625 C-59.20744493 62.74776493 -59.20744493 62.74776493 -55.9453125 58.98828125 C-55.5319317 57.56696577 -55.12909983 56.14252797 -54.73828125 54.71484375 C-54.49464844 54.14894531 -54.25101563 53.58304688 -54 53 C-51 51.875 -51 51.875 -48 52 C-47.01 52.66 -46.02 53.32 -45 54 C-44.690625 55.670625 -44.690625 55.670625 -44.375 57.375 C-43.42701407 61.06197413 -43.42701407 61.06197413 -40.91015625 62.13671875 C-39.29212039 62.74252364 -37.65276851 63.29478052 -35.99609375 63.78515625 C-35.33738281 64.18605469 -34.67867187 64.58695312 -34 65 C-33.67 66.98 -33.34 68.96 -33 71 C-32.67 52.52 -32.34 34.04 -32 15 C-13.1375 5.56875 -13.1375 5.56875 -7.125 2.9375 C-6.45082031 2.63134766 -5.77664062 2.32519531 -5.08203125 2.00976562 C-3.41455918 1.27627841 -1.70967498 0.62887047 0 0 Z " fill="#FEDAEB" transform="translate(133,39)"/>
<path d="M0 0 C1.87340702 1.87340702 1.17683986 5.05221729 1.20874023 7.55175781 C1.21852402 8.23637589 1.2283078 8.92099396 1.23838806 9.62635803 C1.2684078 11.90192707 1.28974789 14.17743694 1.30859375 16.453125 C1.31516558 17.2292791 1.3217374 18.0054332 1.32850838 18.80510712 C1.3611343 22.9151375 1.38557449 27.02514164 1.4050293 31.13525391 C1.42283356 34.53830734 1.45763276 37.94053068 1.50756836 41.34326172 C1.56775424 45.44883402 1.59850299 49.55363735 1.60820198 53.65962982 C1.61676304 55.22417895 1.63559764 56.78870718 1.6649456 58.35300446 C1.70387391 60.54646663 1.70489541 62.73693832 1.69702148 64.93066406 C1.71248268 66.80144623 1.71248268 66.80144623 1.72825623 68.71002197 C0.95432466 72.20634342 0.00259184 73.98718856 -2.93736553 76.09724617 C-7.46399915 78.07841923 -12.39525326 77.64304219 -17.24755859 77.56762695 C-18.47738464 77.56835709 -19.70721069 77.56908722 -20.9743042 77.56983948 C-24.33395395 77.56695959 -27.69205375 77.54194595 -31.05142927 77.50696969 C-34.56676097 77.47564122 -38.08211494 77.47277038 -41.5975647 77.46684265 C-48.24868153 77.4513231 -54.89938579 77.41032079 -61.55032122 77.3600952 C-69.12462301 77.30414245 -76.69894485 77.27670042 -84.27340198 77.25161803 C-99.84917331 77.19940279 -115.42453338 77.11149794 -131 77 C-131.01683194 74.2772363 -131.02912195 71.55457787 -131.03881836 68.83178711 C-131.04402245 68.06544701 -131.04922653 67.2991069 -131.05458832 66.50954437 C-131.06912204 61.06451921 -130.68440692 55.90068967 -129.5625 50.5625 C-129.42779297 49.84513672 -129.29308594 49.12777344 -129.15429688 48.38867188 C-128.1843798 43.3687596 -128.1843798 43.3687596 -127 41 C-126.0713916 40.98018066 -125.1427832 40.96036133 -124.18603516 40.93994141 C-120.7454948 40.86191387 -117.30540109 40.77522538 -113.86523438 40.68261719 C-112.37541111 40.64430002 -110.88549446 40.60945192 -109.39550781 40.578125 C-107.25551952 40.53253271 -105.11617564 40.47453126 -102.9765625 40.4140625 C-101.68830566 40.3826416 -100.40004883 40.3512207 -99.07275391 40.31884766 C-95.89518495 40.31541732 -95.89518495 40.31541732 -94 38 C-94.28983269 34.69316534 -94.28983269 34.69316534 -96 32 C-97.92478813 31.84193469 -99.8549921 31.748865 -101.78515625 31.68359375 C-103.53989258 31.62075195 -103.53989258 31.62075195 -105.33007812 31.55664062 C-106.56177734 31.51732422 -107.79347656 31.47800781 -109.0625 31.4375 C-110.29806641 31.39431641 -111.53363281 31.35113281 -112.80664062 31.30664062 C-115.87097335 31.20015802 -118.93539073 31.09814576 -122 31 C-120.94124926 27.59687262 -119.99097846 24.98646769 -118 22 C-115.89282227 21.61523438 -115.89282227 21.61523438 -113.31640625 21.59375 C-112.38892578 21.57183594 -111.46144531 21.54992187 -110.50585938 21.52734375 C-109.04889648 21.51380859 -109.04889648 21.51380859 -107.5625 21.5 C-105.64696382 21.48213357 -103.73149274 21.45143594 -101.81640625 21.40625 C-100.53938843 21.39561523 -100.53938843 21.39561523 -99.23657227 21.38476562 C-96.52581974 20.91842505 -95.60136977 20.21023934 -94 18 C-94.07533247 15.3727086 -94.07533247 15.3727086 -95 13 C-97.56893838 11.71553081 -99.76576337 11.67022856 -102.625 11.4375 C-103.62789062 11.35371094 -104.63078125 11.26992187 -105.6640625 11.18359375 C-106.43492187 11.12300781 -107.20578125 11.06242187 -108 11 C-99.28893966 -0.6977096 -86.34839516 -7.00504765 -73 -12 C-72.05125 -12.36222656 -71.1025 -12.72445312 -70.125 -13.09765625 C-46.91357709 -20.35122591 -19.30733537 -13.70673427 0 0 Z " fill="#8399FE" transform="translate(350,127)"/>
<path d="M0 0 C0.79336032 -0.00297112 1.58672063 -0.00594224 2.40412217 -0.0090034 C5.06551208 -0.01768262 7.72685695 -0.019198 10.38825989 -0.02069092 C12.29540605 -0.02531969 14.20255128 -0.03034443 16.10969543 -0.03573608 C21.29378148 -0.04885752 26.47785458 -0.0553047 31.66195464 -0.05974674 C34.90168606 -0.06267824 38.14141394 -0.06678323 41.38114357 -0.07125092 C51.52005852 -0.08492597 61.6589654 -0.09459225 71.79788893 -0.09845281 C83.49674462 -0.10293191 95.19548337 -0.12047295 106.8943035 -0.1494534 C115.93988763 -0.17108227 124.98543889 -0.18115775 134.0310486 -0.18249393 C139.4321033 -0.1835412 144.83304809 -0.18943256 150.23407555 -0.20731354 C155.31727967 -0.2238147 160.40029149 -0.22593974 165.48351288 -0.21717453 C167.34546995 -0.21640522 169.20743745 -0.22073286 171.06936836 -0.23063278 C194.44973422 -0.34761929 194.44973422 -0.34761929 203.17658997 8.14044189 C210.88346962 18.34307273 209.17658997 23.25458334 209.17658997 38.14044189 C130.63658997 38.14044189 52.09658997 38.14044189 -28.82341003 38.14044189 C-28.82341003 15.91821967 -28.82341003 15.91821967 -22.57341003 8.45294189 C-15.16908541 2.22657801 -9.66473212 -0.01130222 0 0 Z " fill="#6481FD" transform="translate(165.8234100341797,36.85955810546875)"/>
<path d="M0 0 C14.51653275 -0.11684445 29.0329925 -0.20466089 43.5498991 -0.25906086 C50.29050613 -0.28483364 57.03082084 -0.31996567 63.77124023 -0.37719727 C70.2745587 -0.43238932 76.77768737 -0.46141179 83.28122902 -0.47438622 C85.76400347 -0.48363386 88.24676105 -0.50169213 90.72940636 -0.52865028 C94.20367915 -0.56488011 97.67669214 -0.56994763 101.15112305 -0.56762695 C102.18042938 -0.58560333 103.20973572 -0.60357971 104.27023315 -0.62210083 C111.26135885 -0.57148 111.26135885 -0.57148 115.11555481 2.41047668 C124.27092857 14.99139649 118 33.44042379 118 49 C78.73 49 39.46 49 -1 49 C0.65 44.05 2.3 39.1 4 34 C4.39502518 30.66307679 4.64374026 28.01179827 4.5 24.75 C4.47667603 23.6204187 4.47667603 23.6204187 4.45288086 22.46801758 C4.26290557 17.17989935 3.43301047 12.29903142 1.75390625 7.26171875 C0.95344924 4.86034773 0.47685348 2.48349403 0 0 Z " fill="#02FEB3" transform="translate(234,381)"/>
<path d="M0 0 C0.33 86.46 0.66 172.92 1 262 C1.99 261.01 2.98 260.02 4 259 C6.5 259 6.5 259 9 260 C10.695887 262.3239933 11.81280397 264.49601069 12.8125 267.1875 C14.59731972 269.91169852 16.95972299 270.11325254 20 271 C22 273 22 273 22.25 276 C22 279 22 279 20 281 C19.05125 281.20625 18.1025 281.4125 17.125 281.625 C13.09914692 283.39637535 12.43858376 285.30997122 10.76171875 289.22265625 C10 291 10 291 9 292 C6.125 292.375 6.125 292.375 3 292 C1.3125 289.8125 1.3125 289.8125 0 287 C-1.74917948 283.41834678 -2.35109 282.259564 -6.125 280.75 C-7.548125 280.37875 -7.548125 280.37875 -9 280 C-10 279 -10 279 -10.0625 275.4375 C-10.041875 274.303125 -10.02125 273.16875 -10 272 C-7.69 271.01 -5.38 270.02 -3 269 C-3.98742188 268.24074219 -4.97484375 267.48148437 -5.9921875 266.69921875 C-7.28664112 265.69554819 -8.58090193 264.69162894 -9.875 263.6875 C-10.52597656 263.18798828 -11.17695312 262.68847656 -11.84765625 262.17382812 C-12.47285156 261.68720703 -13.09804688 261.20058594 -13.7421875 260.69921875 C-14.3182373 260.25408936 -14.89428711 259.80895996 -15.48779297 259.3503418 C-17.52668421 257.52969157 -18.88381905 255.8580622 -19.25694364 253.1023255 C-19.26019338 252.3809065 -19.26344313 251.6594875 -19.26679134 250.91620731 C-19.27956502 249.66432577 -19.27956502 249.66432577 -19.29259676 248.38715369 C-19.29132315 247.01179824 -19.29132315 247.01179824 -19.2900238 245.60865784 C-19.29682146 244.63450879 -19.30361911 243.66035973 -19.31062275 242.65669101 C-19.33071988 239.37729956 -19.33621379 236.09804991 -19.34155273 232.81860352 C-19.35240354 230.473126 -19.3639559 228.12765165 -19.37615967 225.78218079 C-19.41176183 218.06443278 -19.42466879 210.34672554 -19.43359375 202.62890625 C-19.43532632 201.31592269 -19.43705889 200.00293912 -19.43884397 198.65016818 C-19.45413833 186.26644316 -19.4607519 173.88273787 -19.44666958 161.49900913 C-19.44355819 158.63060582 -19.44057374 155.76220243 -19.43774414 152.89379883 C-19.43703256 152.18089551 -19.43632098 151.4679922 -19.43558783 150.73348575 C-19.42551806 139.19871197 -19.46704247 127.66471454 -19.52945196 116.13012911 C-19.59263968 104.27821061 -19.6065574 92.42700665 -19.57352406 80.57496017 C-19.55626573 73.92415657 -19.56215097 67.27471967 -19.62081718 60.62408638 C-19.67501794 54.36128717 -19.66748341 48.1015294 -19.61338806 41.83875847 C-19.60418269 39.54588084 -19.61699324 37.25278786 -19.65396309 34.96018982 C-19.92748989 16.77355934 -19.92748989 16.77355934 -15.13972664 11.00132561 C-12.03747373 7.87121403 -8.67273084 5.4235812 -5 3 C-4.22346793 2.4074772 -3.44693586 1.8149544 -2.64687252 1.20447636 C-1 0 -1 0 0 0 Z " fill="#FFDAEC" transform="translate(66,78)"/>
<path d="M0 0 C0.76420761 0.00404846 1.52841522 0.00809692 2.31578064 0.01226807 C3.52330994 0.00701111 3.52330994 0.00701111 4.75523376 0.00164795 C7.4246729 -0.00717701 10.09384842 -0.00131702 12.76329041 0.00543213 C14.61412609 0.00408556 16.46496143 0.00214511 18.3157959 -0.00036621 C22.19880026 -0.00331862 26.08171273 0.00098341 29.96470642 0.01031494 C34.94616492 0.0217016 39.92740774 0.01515573 44.9088583 0.00317001 C48.73236724 -0.00405223 52.55582493 -0.00175884 56.3793354 0.0034256 C58.21618233 0.0047615 60.05303388 0.00311646 61.88987541 -0.00153351 C64.45644855 -0.00660382 67.02267115 0.00111892 69.58921814 0.01226807 C70.35140152 0.0082196 71.1135849 0.00417114 71.89886475 0 C75.6512058 0.03024818 77.31356684 0.13530392 80.51719666 2.27105713 C80.89814758 4.2444458 80.89814758 4.2444458 80.90538025 6.68902588 C80.91483673 7.60337402 80.92429321 8.51772217 80.93403625 9.45977783 C80.92796356 10.449375 80.92189087 11.43897217 80.91563416 12.45855713 C80.91850433 13.47200195 80.92137451 14.48544678 80.92433167 15.52960205 C80.92637553 17.6748714 80.92082327 19.82015924 80.90830994 21.96539307 C80.89226124 25.25780728 80.9081482 28.5489938 80.92735291 31.84136963 C80.92537053 33.92210152 80.92152698 36.00283264 80.91563416 38.08355713 C80.92170685 39.0731543 80.92777954 40.06275146 80.93403625 41.08233643 C80.91985153 42.45385864 80.91985153 42.45385864 80.90538025 43.85308838 C80.90299347 44.6597998 80.90060669 45.46651123 80.89814758 46.29766846 C80.77243378 46.94888672 80.64671997 47.60010498 80.51719666 48.27105713 C76.7871731 50.7577395 73.90573962 50.5527741 69.58921814 50.52984619 C68.78244629 50.53335083 67.97567444 50.53685547 67.14445496 50.54046631 C64.47564613 50.54927462 61.80710197 50.54343823 59.13829041 50.53668213 C57.28648833 50.53802891 55.4346866 50.53996954 53.58288574 50.54248047 C49.70166152 50.5454304 45.82052933 50.54113779 41.9393158 50.53179932 C36.95666664 50.52039691 31.97423274 50.52697006 26.99159145 50.53894424 C23.16812508 50.54615959 19.34471003 50.54387656 15.52124214 50.53868866 C13.6835687 50.53735167 11.84589064 50.53900159 10.00822258 50.54364777 C7.44394902 50.54870854 4.88002785 50.5410096 2.31578064 50.52984619 C1.55157303 50.53389465 0.78736542 50.53794312 0 50.54211426 C-5.25427311 50.49958737 -5.25427311 50.49958737 -7.48280334 48.27105713 C-7.73677063 46.29766846 -7.73677063 46.29766846 -7.74159241 43.85308838 C-7.74789673 42.93874023 -7.75420105 42.02439209 -7.76069641 41.08233643 C-7.75664795 40.09273926 -7.75259949 39.10314209 -7.74842834 38.08355713 C-7.7503418 37.0701123 -7.75225525 36.05666748 -7.75422668 35.01251221 C-7.75558926 32.86724601 -7.75188782 30.7219716 -7.74354553 28.57672119 C-7.73284716 25.28454141 -7.74343854 21.99290735 -7.75624084 18.70074463 C-7.75491926 16.62001425 -7.7523569 14.53928422 -7.74842834 12.45855713 C-7.75247681 11.46895996 -7.75652527 10.47936279 -7.76069641 9.45977783 C-7.75439209 8.54542969 -7.74808777 7.63108154 -7.74159241 6.68902588 C-7.74000122 5.88231445 -7.73841003 5.07560303 -7.73677063 4.2444458 C-7.14097326 -0.38504722 -3.90081767 0.03157233 0 0 Z " fill="#8399FE" transform="translate(168.48280334472656,288.72894287109375)"/>
<path d="M0 0 C0.79541199 -0.00350464 1.59082397 -0.00700928 2.41033936 -0.01062012 C5.04187729 -0.01942888 7.67314679 -0.01359133 10.3046875 -0.00683594 C12.1316737 -0.00818283 13.95865956 -0.01012357 15.78564453 -0.01263428 C19.61559459 -0.01558438 23.4454514 -0.01129155 27.27539062 -0.00195312 C32.18844017 0.00944134 37.10127122 0.00288126 42.01431274 -0.00909805 C45.78720755 -0.01631972 49.56005042 -0.01402731 53.33294678 -0.00884247 C55.14467393 -0.00750682 56.95640577 -0.00915073 58.76812744 -0.01380157 C61.29867064 -0.01887182 63.82885832 -0.01114963 66.359375 0 C67.1106366 -0.00404846 67.86189819 -0.00809692 68.63592529 -0.01226807 C72.36709902 0.01823941 73.99219754 0.13379576 77.1796875 2.25878906 C77.56063843 4.23217773 77.56063843 4.23217773 77.56787109 6.67675781 C77.57732758 7.59110596 77.58678406 8.5054541 77.5965271 9.44750977 C77.59045441 10.43710693 77.58438171 11.4267041 77.578125 12.44628906 C77.58099518 13.45973389 77.58386536 14.47317871 77.58682251 15.51733398 C77.58886637 17.66260333 77.58331411 19.80789118 77.57080078 21.953125 C77.55475209 25.24553922 77.57063905 28.53672574 77.58984375 31.82910156 C77.58786138 33.90983345 77.58401782 35.99056457 77.578125 38.07128906 C77.58419769 39.06088623 77.59027039 40.0504834 77.5965271 41.07006836 C77.58234238 42.44159058 77.58234238 42.44159058 77.56787109 43.84082031 C77.56548431 44.64753174 77.56309753 45.45424316 77.56063843 46.28540039 C77.43492462 46.93661865 77.30921082 47.58783691 77.1796875 48.25878906 C73.47363393 50.72949144 70.64653969 50.54068116 66.359375 50.51757812 C65.16625702 50.52283508 65.16625702 50.52283508 63.94903564 50.52819824 C61.31749771 50.537007 58.68622821 50.53116946 56.0546875 50.52441406 C54.2277013 50.52576096 52.40071544 50.5277017 50.57373047 50.5302124 C46.74378041 50.5331625 42.9139236 50.52886967 39.08398438 50.51953125 C34.17093483 50.50813678 29.25810378 50.51469686 24.34506226 50.52667618 C20.57216745 50.53389784 16.79932458 50.53160544 13.02642822 50.52642059 C11.21470107 50.52508495 9.40296923 50.52672885 7.59124756 50.5313797 C5.06070436 50.53644995 2.53051668 50.52872775 0 50.51757812 C-0.7512616 50.52162659 -1.50252319 50.52567505 -2.27655029 50.52984619 C-6.00772402 50.49933871 -7.63282254 50.38378237 -10.8203125 48.25878906 C-11.20126343 46.28540039 -11.20126343 46.28540039 -11.20849609 43.84082031 C-11.21795258 42.92647217 -11.22740906 42.01212402 -11.2371521 41.07006836 C-11.23107941 40.08047119 -11.22500671 39.09087402 -11.21875 38.07128906 C-11.22162018 37.05784424 -11.22449036 36.04439941 -11.22744751 35.00024414 C-11.22949137 32.85497479 -11.22393911 30.70968695 -11.21142578 28.56445312 C-11.19537709 25.27203891 -11.21126405 21.98085239 -11.23046875 18.68847656 C-11.22848638 16.60774467 -11.22464282 14.52701355 -11.21875 12.44628906 C-11.22785904 10.96189331 -11.22785904 10.96189331 -11.2371521 9.44750977 C-11.22769562 8.53316162 -11.21823914 7.61881348 -11.20849609 6.67675781 C-11.20610931 5.87004639 -11.20372253 5.06333496 -11.20126343 4.23217773 C-11.01269272 3.25535034 -11.01269272 3.25535034 -10.8203125 2.25878906 C-7.11425893 -0.21191332 -4.28716469 -0.02310304 0 0 Z " fill="#FFC4DF" transform="translate(273.8203125,288.7412109375)"/>
<path d="M0 0 C0.77512939 0.00404846 1.55025879 0.00809692 2.34887695 0.01226807 C3.16525635 0.00876343 3.98163574 0.00525879 4.82275391 0.00164795 C7.52946399 -0.00717635 10.23591407 -0.0013178 12.94262695 0.00543213 C14.81827851 0.00408568 16.69392972 0.00214532 18.56958008 -0.00036621 C22.50385861 -0.00331842 26.43804644 0.00098327 30.37231445 0.01031494 C35.4233726 0.02170953 40.47421822 0.01515057 45.52526855 0.00317001 C49.39934907 -0.00404598 53.27337893 -0.00176186 57.14746094 0.0034256 C59.01025416 0.00476282 60.87305193 0.00311186 62.73583984 -0.00153351 C65.33614337 -0.00659448 67.9360994 0.00110532 70.53637695 0.01226807 C71.31150635 0.0082196 72.08663574 0.00417114 72.88525391 0 C78.21409851 0.04252869 78.21409851 0.04252869 80.44262695 2.27105713 C80.70332336 4.19975281 80.70332336 4.19975281 80.71728516 6.58135986 C80.72681717 7.47245956 80.73634918 8.36355927 80.74617004 9.28166199 C80.74525864 10.24624832 80.74434723 11.21083466 80.7434082 12.20465088 C80.74769333 13.19352798 80.75197845 14.18240509 80.75639343 15.20124817 C80.76214332 17.29522943 80.76263217 19.38923066 80.75830078 21.48321533 C80.75514311 24.69213873 80.77858413 27.9001386 80.80395508 31.10894775 C80.80622818 33.14084763 80.80693152 35.17274999 80.8059082 37.20465088 C80.81511795 38.16721298 80.8243277 39.12977509 80.83381653 40.12150574 C80.82758774 41.0157576 80.82135895 41.91000946 80.81494141 42.83135986 C80.81557083 43.61808578 80.81620026 44.40481171 80.81684875 45.21537781 C80.44262695 47.27105713 80.44262695 47.27105713 79.40812683 49.02427673 C76.33308742 50.97487408 73.15036055 50.68775907 69.62231445 50.65924072 C68.42919647 50.66712616 68.42919647 50.66712616 67.2119751 50.6751709 C64.5803265 50.68838459 61.9492818 50.67962816 59.31762695 50.66949463 C57.49064009 50.67151497 55.66365402 50.67442608 53.83666992 50.67819214 C50.00667649 50.68261734 46.17689288 50.67617815 42.34692383 50.66217041 C37.4337799 50.64507838 32.52112759 50.65491852 27.60800171 50.6728878 C23.83508591 50.68372036 20.06228696 50.68028174 16.28936768 50.67250443 C14.4776402 50.67050095 12.66590217 50.67296684 10.85418701 50.67994308 C8.32348465 50.68754894 5.79358213 50.675966 3.26293945 50.65924072 C2.13604706 50.66834976 2.13604706 50.66834976 0.98638916 50.67764282 C-1.90912753 50.64213057 -4.0404018 50.59898878 -6.52287292 49.02427673 C-7.8277314 46.81286718 -7.9317397 45.39642668 -7.9296875 42.83135986 C-7.93591629 41.937108 -7.94214508 41.04285614 -7.94856262 40.12150574 C-7.93935287 39.15894363 -7.93014313 38.19638153 -7.9206543 37.20465088 C-7.92140205 35.71990013 -7.92140205 35.71990013 -7.92216492 34.20515442 C-7.91982433 32.11292513 -7.91009672 30.02069303 -7.89355469 27.92852783 C-7.86993941 24.71757985 -7.87299672 21.50746062 -7.87963867 18.29644775 C-7.87406281 16.26584382 -7.86695351 14.2352434 -7.8581543 12.20465088 C-7.8590657 11.24006454 -7.85997711 10.27547821 -7.86091614 9.28166199 C-7.85138412 8.39056229 -7.84185211 7.49946259 -7.83203125 6.58135986 C-7.82742386 5.79542953 -7.82281647 5.00949921 -7.81806946 4.19975281 C-7.19294271 -0.42508747 -3.88503085 0.03100583 0 0 Z " fill="#04FFB3" transform="translate(270.557373046875,227.72894287109375)"/>
<path d="M0 0 C0.77512939 0.00404846 1.55025879 0.00809692 2.34887695 0.01226807 C3.16525635 0.00876343 3.98163574 0.00525879 4.82275391 0.00164795 C7.52946399 -0.00717635 10.23591407 -0.0013178 12.94262695 0.00543213 C14.81827851 0.00408568 16.69392972 0.00214532 18.56958008 -0.00036621 C22.50385861 -0.00331842 26.43804644 0.00098327 30.37231445 0.01031494 C35.4233726 0.02170953 40.47421822 0.01515057 45.52526855 0.00317001 C49.39934907 -0.00404598 53.27337893 -0.00176186 57.14746094 0.0034256 C59.01025416 0.00476282 60.87305193 0.00311186 62.73583984 -0.00153351 C65.33614337 -0.00659448 67.9360994 0.00110532 70.53637695 0.01226807 C71.31150635 0.0082196 72.08663574 0.00417114 72.88525391 0 C78.21409851 0.04252869 78.21409851 0.04252869 80.44262695 2.27105713 C80.70332336 4.19975281 80.70332336 4.19975281 80.71728516 6.58135986 C80.72681717 7.47245956 80.73634918 8.36355927 80.74617004 9.28166199 C80.74525864 10.24624832 80.74434723 11.21083466 80.7434082 12.20465088 C80.74769333 13.19352798 80.75197845 14.18240509 80.75639343 15.20124817 C80.76214332 17.29522943 80.76263217 19.38923066 80.75830078 21.48321533 C80.75514311 24.69213873 80.77858413 27.9001386 80.80395508 31.10894775 C80.80622818 33.14084763 80.80693152 35.17274999 80.8059082 37.20465088 C80.81511795 38.16721298 80.8243277 39.12977509 80.83381653 40.12150574 C80.82758774 41.0157576 80.82135895 41.91000946 80.81494141 42.83135986 C80.81557083 43.61808578 80.81620026 44.40481171 80.81684875 45.21537781 C80.44262695 47.27105713 80.44262695 47.27105713 79.40812683 49.02427673 C76.33308742 50.97487408 73.15036055 50.68775907 69.62231445 50.65924072 C68.42919647 50.66712616 68.42919647 50.66712616 67.2119751 50.6751709 C64.5803265 50.68838459 61.9492818 50.67962816 59.31762695 50.66949463 C57.49064009 50.67151497 55.66365402 50.67442608 53.83666992 50.67819214 C50.00667649 50.68261734 46.17689288 50.67617815 42.34692383 50.66217041 C37.4337799 50.64507838 32.52112759 50.65491852 27.60800171 50.6728878 C23.83508591 50.68372036 20.06228696 50.68028174 16.28936768 50.67250443 C14.4776402 50.67050095 12.66590217 50.67296684 10.85418701 50.67994308 C8.32348465 50.68754894 5.79358213 50.675966 3.26293945 50.65924072 C2.13604706 50.66834976 2.13604706 50.66834976 0.98638916 50.67764282 C-1.90912753 50.64213057 -4.0404018 50.59898878 -6.52287292 49.02427673 C-7.8277314 46.81286718 -7.9317397 45.39642668 -7.9296875 42.83135986 C-7.93591629 41.937108 -7.94214508 41.04285614 -7.94856262 40.12150574 C-7.93935287 39.15894363 -7.93014313 38.19638153 -7.9206543 37.20465088 C-7.92140205 35.71990013 -7.92140205 35.71990013 -7.92216492 34.20515442 C-7.91982433 32.11292513 -7.91009672 30.02069303 -7.89355469 27.92852783 C-7.86993941 24.71757985 -7.87299672 21.50746062 -7.87963867 18.29644775 C-7.87406281 16.26584382 -7.86695351 14.2352434 -7.8581543 12.20465088 C-7.8590657 11.24006454 -7.85997711 10.27547821 -7.86091614 9.28166199 C-7.85138412 8.39056229 -7.84185211 7.49946259 -7.83203125 6.58135986 C-7.82742386 5.79542953 -7.82281647 5.00949921 -7.81806946 4.19975281 C-7.19294271 -0.42508747 -3.88503085 0.03100583 0 0 Z " fill="#FF7FB8" transform="translate(168.557373046875,227.72894287109375)"/>
<path d="M0 0 C1.08318437 -0.00256327 1.08318437 -0.00256327 2.18825126 -0.00517833 C4.60816605 -0.00847282 7.02780362 0.00252968 9.44769287 0.01345825 C11.18225091 0.01402238 12.91680943 0.01370578 14.65136719 0.01257324 C19.36176564 0.01199877 24.0720625 0.02376837 28.78243732 0.03772116 C33.70452168 0.05021278 38.62660829 0.05139778 43.54870605 0.05377197 C52.87007793 0.05999135 62.19140296 0.07640838 71.5127542 0.09647095 C82.12448856 0.11881569 92.73622514 0.1298198 103.34797716 0.13986182 C125.17779137 0.1607742 147.00756339 0.19595909 168.83734131 0.24050903 C168.83734131 0.57050903 168.83734131 0.90050903 168.83734131 1.24050903 C132.53734131 1.24050903 96.23734131 1.24050903 58.83734131 1.24050903 C60.15734131 4.87050903 61.47734131 8.50050903 62.83734131 12.24050903 C65.19223247 24.01496482 64.99483629 36.22906901 59.83734131 47.24050903 C59.17734131 48.23050903 58.51734131 49.22050903 57.83734131 50.24050903 C54.82546997 50.60127258 54.82546997 50.60127258 50.90911865 50.58108521 C50.19681595 50.58152328 49.48451324 50.58196136 48.75062561 50.58241272 C46.39123319 50.58031913 44.0325474 50.55696228 41.67327881 50.53347778 C40.03946318 50.52788383 38.40564252 50.52361279 36.77182007 50.52061462 C32.46773429 50.50914997 28.16395133 50.47966911 23.85998535 50.44650269 C19.46966651 50.41583654 15.07929883 50.4021167 10.68890381 50.38699341 C2.07157721 50.35480074 -6.54550309 50.30358511 -15.16265869 50.24050903 C-15.26177559 44.36897673 -15.3342448 38.4979349 -15.38238525 32.62576294 C-15.40246038 30.62958286 -15.42972658 28.63346129 -15.4644165 26.63748169 C-15.51311526 23.76282283 -15.53566856 20.88894364 -15.55328369 18.01394653 C-15.57392883 17.12621552 -15.59457397 16.2384845 -15.61584473 15.32385254 C-15.61782432 9.81723089 -14.96168424 6.53212434 -11.16265869 2.24050903 C-7.56575508 -0.18822165 -4.25832876 -0.006066 0 0 Z " fill="#95FED2" transform="translate(175.16265869140625,379.7594909667969)"/>
<path d="M0 0 C1.010625 0.350625 2.02125 0.70125 3.0625 1.0625 C3.8046875 2.7734375 3.8046875 2.7734375 4.375 4.875 C5.21025537 7.75996182 5.54403828 8.77068821 8.20703125 10.26953125 C10.65657994 11.21081416 10.65657994 11.21081416 13.1015625 11.8828125 C15.0625 13.0625 15.0625 13.0625 15.67754269 15.50744057 C16.17070886 20.06180278 16.19694407 24.54552222 16.18275452 29.12313843 C16.18360894 30.13281886 16.18446337 31.14249929 16.18534368 32.18277609 C16.18698992 35.56376335 16.18149109 38.94470091 16.17602539 42.32568359 C16.17574331 44.75018309 16.17590166 47.17468268 16.1764679 49.59918213 C16.17669557 54.81781875 16.17386033 60.03644416 16.16823006 65.25507736 C16.16009498 72.80029819 16.15749778 80.34551298 16.15624207 87.89073773 C16.1540547 100.13305384 16.14740317 112.37536329 16.13793945 124.61767578 C16.12875717 136.50830044 16.12168033 148.39892329 16.11743164 160.28955078 C16.11716892 161.02277535 16.11690619 161.75599992 16.11663551 162.51144342 C16.11533045 166.18990113 16.11406675 169.86835886 16.11282361 173.54681659 C16.10246082 204.05204917 16.08477663 234.55727366 16.0625 265.0625 C16.7225 265.3925 17.3825 265.7225 18.0625 266.0625 C17.7325 266.3925 17.4025 266.7225 17.0625 267.0625 C13.1025 266.7325 9.1425 266.4025 5.0625 266.0625 C4.7325 188.1825 4.4025 110.3025 4.0625 30.0625 C2.7425 31.0525 1.4225 32.0425 0.0625 33.0625 C-2.4375 32.75 -2.4375 32.75 -4.9375 31.0625 C-5.8984375 29.2421875 -5.8984375 29.2421875 -6.8125 27.125 C-8.25607768 23.84576182 -9.28215681 22.48664692 -12.625 21.125 C-13.718125 20.774375 -14.81125 20.42375 -15.9375 20.0625 C-16.9375 19.0625 -16.9375 19.0625 -17 16 C-16.979375 15.030625 -16.95875 14.06125 -16.9375 13.0625 C-16.32261719 12.8665625 -15.70773438 12.670625 -15.07421875 12.46875 C-10.14784794 10.76044983 -10.14784794 10.76044983 -6.7421875 7.05078125 C-6.06912582 5.07764779 -5.49717379 3.07074126 -4.9375 1.0625 C-2.9375 0.0625 -2.9375 0.0625 0 0 Z " fill="#FEDAEB" transform="translate(83.9375,90.9375)"/>
<path d="M0 0 C0.33 0 0.66 0 1 0 C1.33 86.46 1.66 172.92 2 262 C2.99 261.01 3.98 260.02 5 259 C7.5 259 7.5 259 10 260 C11.695887 262.3239933 12.81280397 264.49601069 13.8125 267.1875 C15.59731972 269.91169852 17.95972299 270.11325254 21 271 C23 273 23 273 23.25 276 C23 279 23 279 21 281 C20.05125 281.20625 19.1025 281.4125 18.125 281.625 C14.09914692 283.39637535 13.43858376 285.30997122 11.76171875 289.22265625 C11 291 11 291 10 292 C7.125 292.375 7.125 292.375 4 292 C2.3125 289.8125 2.3125 289.8125 1 287 C-0.74917948 283.41834678 -1.35109 282.259564 -5.125 280.75 C-6.548125 280.37875 -6.548125 280.37875 -8 280 C-9 279 -9 279 -9.0625 275.4375 C-9.041875 274.303125 -9.02125 273.16875 -9 272 C-6.69 271.01 -4.38 270.02 -2 269 C-2.00075944 268.43579554 -2.00151888 267.87159108 -2.00230134 267.29028952 C-2.04701943 233.88001975 -2.08135384 200.46975746 -2.10213066 167.05946449 C-2.10463219 163.05136169 -2.10722082 159.04325896 -2.10986328 155.03515625 C-2.1103879 154.23718673 -2.11091252 153.4392172 -2.11145304 152.61706679 C-2.12016496 139.68212233 -2.13593924 126.74719559 -2.15430559 113.81226166 C-2.17298279 100.54816755 -2.18411209 87.28408274 -2.18817699 74.01997602 C-2.19092659 65.82974561 -2.19962311 57.63956524 -2.21583293 49.44935022 C-2.22761564 43.1780241 -2.22891688 36.90673645 -2.22621536 30.63540077 C-2.22676807 28.05614602 -2.23077893 25.47688947 -2.23841095 22.89764595 C-2.24828394 19.39064652 -2.24599699 15.88386551 -2.24050903 12.37686157 C-2.24924756 10.8272753 -2.24924756 10.8272753 -2.25816262 9.24638426 C-2.25418052 8.31233555 -2.25019842 7.37828683 -2.24609566 6.41593361 C-2.2468551 5.60561042 -2.24761454 4.79528724 -2.24839699 3.96040881 C-2 2 -2 2 0 0 Z " fill="#FFD9E9" transform="translate(65,78)"/>
<path d="M0 0 C0.33 0 0.66 0 1 0 C1.40343839 7.99405699 1.31146802 15.42138861 -3.53125 22.1171875 C-7.14227754 24.87116736 -10.84233581 25.38271078 -15.25 26.1875 C-16.07113281 26.35185547 -16.89226562 26.51621094 -17.73828125 26.68554688 C-45.23642003 32.06751223 -75.17349439 30.5265746 -101 19 C-102.3452928 18.01614784 -103.68027329 17.01788957 -105 16 C-103.96984772 15.99635437 -102.93969543 15.99270874 -101.87832642 15.98895264 C-92.13916743 15.9519068 -82.40032182 15.8940298 -72.66140175 15.81609726 C-67.65527722 15.77669767 -62.64932662 15.7444724 -57.64306641 15.72900391 C-52.80583389 15.7137877 -47.96907977 15.67925449 -43.132061 15.63169098 C-41.29266915 15.61692822 -39.45320898 15.60896193 -37.61375809 15.60811615 C-25.26379563 15.59673329 -14.87251348 15.43140138 -5.4375 6.375 C-4.61121094 5.59898437 -3.78492188 4.82296875 -2.93359375 4.0234375 C-0.95113408 2.14777827 -0.95113408 2.14777827 0 0 Z " fill="#DBBCE3" transform="translate(379,462)"/>
<path d="M0 0 C4.03825066 -0.12406007 8.07575638 -0.21455045 12.11547852 -0.2746582 C13.48807102 -0.29972617 14.86053102 -0.33379082 16.23266602 -0.37719727 C18.21050696 -0.43817531 20.18934184 -0.46361009 22.16796875 -0.48828125 C23.35672607 -0.51446533 24.5454834 -0.54064941 25.77026367 -0.56762695 C30.04595045 0.18382605 31.46639649 1.51129618 34 5 C34.56762695 8.22973633 34.56762695 8.22973633 34.48828125 11.83203125 C34.47216797 13.12431641 34.45605469 14.41660156 34.43945312 15.74804688 C34.39768274 17.10288157 34.35535809 18.45769928 34.3125 19.8125 C34.28740069 21.18680866 34.26459036 22.56116116 34.24414062 23.93554688 C34.18526461 27.29147976 34.1030642 30.6451809 34 34 C23.42890943 34.11041311 16.83023332 30.73725248 9.19921875 23.4296875 C3.14649956 16.74266914 0 9.05013272 0 0 Z " fill="#01ECA5" transform="translate(317,381)"/>
<path d="M0 0 C1.01733467 -0.00744736 1.01733467 -0.00744736 2.05522156 -0.01504517 C4.302531 -0.02967022 6.54976989 -0.0364688 8.79711914 -0.04199219 C10.35649112 -0.04774271 11.91586306 -0.05350046 13.47523499 -0.05926514 C16.74618866 -0.06977565 20.01711775 -0.07561819 23.28808594 -0.07910156 C27.48266767 -0.08459092 31.67692555 -0.10862787 35.8714056 -0.13707352 C39.09270687 -0.15568069 42.31392976 -0.16090443 45.53528023 -0.16243744 C47.08187191 -0.16546812 48.62846208 -0.17351064 50.17500114 -0.18662262 C52.33697171 -0.20364605 54.49814617 -0.20181267 56.66015625 -0.1953125 C57.89100449 -0.19895813 59.12185272 -0.20260376 60.38999939 -0.20635986 C63.39477539 0.16113281 63.39477539 0.16113281 65.32740784 1.52325439 C66.39477539 3.16113281 66.39477539 3.16113281 66.20727539 5.72363281 C65.39477539 8.16113281 65.39477539 8.16113281 63.39477539 10.16113281 C60.51698303 10.42182922 60.51698303 10.42182922 56.78955078 10.43579102 C56.11132767 10.44090195 55.43310455 10.44601288 54.73432922 10.45127869 C52.48694086 10.46520629 50.23985809 10.46421555 47.99243164 10.46191406 C46.43305853 10.46579938 44.87368647 10.47013371 43.3143158 10.47489929 C40.04333061 10.48236839 36.77245334 10.48206536 33.50146484 10.47680664 C29.30685341 10.47101228 25.11268358 10.48793851 20.91814518 10.51115131 C17.6968273 10.525874 14.47561611 10.52676236 11.25427055 10.52364159 C9.70768802 10.52415558 8.16109963 10.52940797 6.61454964 10.53945351 C4.4525384 10.55177218 2.29139163 10.54505464 0.12939453 10.53344727 C-1.71687782 10.5343914 -1.71687782 10.5343914 -3.60044861 10.53535461 C-6.60522461 10.16113281 -6.60522461 10.16113281 -8.53785706 8.83317566 C-9.60522461 7.16113281 -9.60522461 7.16113281 -9.41772461 4.03613281 C-9.14959961 3.08738281 -8.88147461 2.13863281 -8.60522461 1.16113281 C-5.72243268 -0.28026315 -3.22135219 0.01788168 0 0 Z " fill="#FEFEFE" transform="translate(190.605224609375,157.8388671875)"/>
<path d="M0 0 C1.04900482 -0.0076664 1.04900482 -0.0076664 2.11920166 -0.01548767 C4.43632508 -0.0294149 6.75315215 -0.02842478 9.0703125 -0.02612305 C10.67692171 -0.03000793 12.28352988 -0.03434217 13.89013672 -0.03910828 C17.25947396 -0.04657697 20.62870643 -0.0462743 23.99804688 -0.04101562 C28.32278779 -0.03521648 32.64710107 -0.0521593 36.97177124 -0.0753603 C40.28998333 -0.09006744 43.60809166 -0.09097355 46.92633057 -0.08785057 C48.52118783 -0.08836519 50.11605068 -0.09362917 51.71087646 -0.10366249 C53.93774501 -0.1159533 56.16377069 -0.10928084 58.390625 -0.09765625 C59.65922363 -0.09828568 60.92782227 -0.0989151 62.23486328 -0.0995636 C63.70028564 0.08567619 63.70028564 0.08567619 65.1953125 0.2746582 C67.1953125 3.2746582 67.1953125 3.2746582 66.8828125 5.8996582 C66.1953125 8.2746582 66.1953125 8.2746582 65.1953125 9.2746582 C62.96686779 9.37957056 60.73505327 9.41323032 58.50415039 9.41992188 C57.80495987 9.42328049 57.10576935 9.4266391 56.38539124 9.43009949 C54.06289924 9.43963614 51.74047913 9.44155395 49.41796875 9.44262695 C47.80993113 9.44583767 46.20189381 9.4492016 44.59385681 9.45271301 C41.21857018 9.45871109 37.84330917 9.46055222 34.46801758 9.45996094 C30.1354995 9.45985928 25.80314517 9.47351204 21.47066593 9.49073315 C18.14818054 9.50183272 14.82573499 9.50388078 11.50323296 9.50335121 C9.90558749 9.5045344 8.3079411 9.50897502 6.7103138 9.51668358 C4.47871444 9.52644243 2.24747384 9.52362192 0.01586914 9.51757812 C-1.89155312 9.51971565 -1.89155312 9.51971565 -3.83750916 9.52189636 C-6.8046875 9.2746582 -6.8046875 9.2746582 -8.8046875 7.2746582 C-9.0546875 4.7746582 -9.0546875 4.7746582 -8.8046875 2.2746582 C-5.94933764 -0.58069166 -3.99957497 0.01452596 0 0 Z " fill="#FEFEFF" transform="translate(189.8046875,138.725341796875)"/>
<path d="M0 0 C3.30468766 2.68412414 5.74999219 6.09171254 6.30859375 10.35546875 C6.53873819 15.41167237 6.62640707 19.03482833 3.3125 23.0625 C-0.38107229 26.66977387 -3.28320209 27.84392746 -8.4375 28.3125 C-13.6782569 27.85278448 -16.74131762 26.36073771 -20.3125 22.5 C-23.19834629 18.22467216 -23.66634133 14.04383368 -23 9 C-21.62840501 5.23556809 -19.73826323 2.55369742 -16.5 0.125 C-10.71042801 -2.48030739 -5.96878761 -2.15378582 0 0 Z M-9 9 C-9.99 9.66 -10.98 10.32 -12 11 C-11.67 12.65 -11.34 14.3 -11 16 C-9.10820797 16.6814823 -9.10820797 16.6814823 -7 17 C-6.34 16.34 -5.68 15.68 -5 15 C-5.32041397 12.39719432 -5.32041397 12.39719432 -6 10 C-6.99 9.67 -7.98 9.34 -9 9 Z " fill="#FF5AA8" transform="translate(430,140)"/>
<path d="M0 0 C3.67186079 2.04141985 5.60262067 3.78421951 7.87890625 7.37109375 C9.29306801 13.02774078 8.89068292 17.6502574 6.56640625 22.99609375 C3.78612186 26.37215337 1.6842177 27.88726087 -2.7421875 28.44140625 C-7.33002173 28.62815663 -10.47802525 28.44867912 -14.68359375 26.49609375 C-18.9501636 22.44285239 -20.35077899 18.92850108 -20.62109375 13.12109375 C-20.45794395 8.40393644 -19.46355236 5.65999646 -16.18359375 2.12109375 C-11.07778982 -1.36013621 -5.75287697 -2.31555871 0 0 Z M-8.99609375 11.30859375 C-10.43649703 13.07163484 -10.43649703 13.07163484 -9.87109375 15.30859375 C-9.64421875 15.90671875 -9.41734375 16.50484375 -9.18359375 17.12109375 C-7.34658586 17.89351644 -7.34658586 17.89351644 -5.18359375 18.12109375 C-3.26692708 17.03776042 -3.26692708 17.03776042 -2.18359375 15.12109375 C-2.41117106 12.95810164 -2.41117106 12.95810164 -3.18359375 11.12109375 C-6.1910829 9.96247069 -6.1910829 9.96247069 -8.99609375 11.30859375 Z " fill="#6584FD" transform="translate(437.18359375,181.87890625)"/>
<path d="M0 0 C2.33944736 0.28730055 4.6739143 0.61936779 7 1 C7.4640625 2.85625 7.4640625 2.85625 7.9375 4.75 C8.97114471 7.60772362 9.6207102 8.75521013 12.203125 10.421875 C14.44590886 11.39515856 16.67115103 12.25789299 19 13 C19 15.31 19 17.62 19 20 C18.07767578 20.29390625 18.07767578 20.29390625 17.13671875 20.59375 C12.19296798 22.32975719 12.19296798 22.32975719 8.734375 26.046875 C7.81307492 28.47701322 7.81307492 28.47701322 7 32 C3.535 32.495 3.535 32.495 0 33 C-1.78727646 30.80652435 -2.94806175 29.17745569 -3.75 26.4375 C-5.59047368 22.84857633 -8.34908923 22.43428638 -12 21 C-14 18 -14 18 -13.75 15.4375 C-13 13 -13 13 -11 11 C-10.05125 10.79375 -9.1025 10.5875 -8.125 10.375 C-4.09914692 8.60362465 -3.43858376 6.69002878 -1.76171875 2.77734375 C-1 1 -1 1 0 0 Z " fill="#00EBA5" transform="translate(85,385)"/>
<path d="M0 0 C2.4375 0.0625 2.4375 0.0625 5 1 C6.695887 3.3239933 7.81280397 5.49601069 8.8125 8.1875 C10.59731972 10.91169852 12.95972299 11.11325254 16 12 C18 14 18 14 18.25 17 C18 20 18 20 16 22 C15.05125 22.20625 14.1025 22.4125 13.125 22.625 C9.09914692 24.39637535 8.43858376 26.30997122 6.76171875 30.22265625 C6 32 6 32 5 33 C2.125 33.375 2.125 33.375 -1 33 C-2.6875 30.8125 -2.6875 30.8125 -4 28 C-5.74917948 24.41834678 -6.35109 23.259564 -10.125 21.75 C-11.07375 21.5025 -12.0225 21.255 -13 21 C-14 20 -14 20 -14.0625 16.4375 C-14.041875 15.303125 -14.02125 14.16875 -14 13 C-13.38511719 12.79246094 -12.77023438 12.58492188 -12.13671875 12.37109375 C-7.34566829 10.67577599 -7.34566829 10.67577599 -3.8046875 7.24609375 C-3.12283639 5.52711123 -2.55531147 3.76393056 -2 2 C-1.34 1.34 -0.68 0.68 0 0 Z " fill="#FF5CA8" transform="translate(70,337)"/>
<path d="M0 0 C1.010625 0.350625 2.02125 0.70125 3.0625 1.0625 C3.8046875 2.7734375 3.8046875 2.7734375 4.375 4.875 C5.22204258 7.78736245 5.65778774 8.79921945 8.2421875 10.48046875 C10.4934289 11.45179876 12.72697066 12.31826424 15.0625 13.0625 C15.3125 15.875 15.3125 15.875 15.0625 19.0625 C12.98727995 21.21458005 11.36358001 21.97437902 8.5 22.8125 C5.6776249 23.93246071 5.6776249 23.93246071 4.5625 27.5625 C3.0625 31.0625 3.0625 31.0625 0.625 32.6875 C-1.9375 33.0625 -1.9375 33.0625 -4.0625 32.125 C-5.9375 30.0625 -5.9375 30.0625 -7.25 26.5625 C-9.07415513 22.77309141 -9.07415513 22.77309141 -12.5625 21.1875 C-13.67625 20.81625 -14.79 20.445 -15.9375 20.0625 C-16.9375 19.0625 -16.9375 19.0625 -17 16 C-16.979375 15.030625 -16.95875 14.06125 -16.9375 13.0625 C-16.32261719 12.8665625 -15.70773438 12.670625 -15.07421875 12.46875 C-10.14784794 10.76044983 -10.14784794 10.76044983 -6.7421875 7.05078125 C-6.06912582 5.07764779 -5.49717379 3.07074126 -4.9375 1.0625 C-2.9375 0.0625 -2.9375 0.0625 0 0 Z " fill="#06EBA6" transform="translate(83.9375,90.9375)"/>
<path d="M0 0 C0.91112045 -0.00953201 1.82224091 -0.01906403 2.76097107 -0.02888489 C4.24066124 -0.02751778 4.24066124 -0.02751778 5.75024414 -0.02612305 C6.76131729 -0.03040817 7.77239044 -0.0346933 8.81410217 -0.03910828 C10.95516205 -0.0448584 13.09624147 -0.04534684 15.23730469 -0.04101562 C18.51864882 -0.03785792 21.79908986 -0.06129893 25.08032227 -0.08666992 C27.15779508 -0.08894301 29.23527033 -0.08964637 31.31274414 -0.08862305 C32.29718002 -0.09783279 33.28161591 -0.10704254 34.29588318 -0.11653137 C35.21015579 -0.11030258 36.12442841 -0.10407379 37.06640625 -0.09765625 C38.27314247 -0.09860039 38.27314247 -0.09860039 39.5042572 -0.0995636 C42.12255204 0.36843545 43.01045241 1.17286634 44.59790039 3.2746582 C44.91040039 5.8371582 44.91040039 5.8371582 44.59790039 8.2746582 C42.13935534 10.73320326 41.46627026 10.52692768 38.08813477 10.53344727 C37.15376587 10.53975159 36.21939697 10.54605591 35.25671387 10.55255127 C34.24524292 10.54850281 33.23377197 10.54445435 32.19165039 10.5402832 C31.15600952 10.54219666 30.12036865 10.54411011 29.05334473 10.54608154 C26.86100014 10.54744417 24.6686475 10.54374234 22.47631836 10.53540039 C19.11171423 10.52470213 15.74764407 10.53529323 12.38305664 10.5480957 C10.25675337 10.54677412 8.13045044 10.54421176 6.00415039 10.5402832 C4.48694397 10.5463559 4.48694397 10.5463559 2.93908691 10.55255127 C2.00471802 10.54624695 1.07034912 10.53994263 0.10766602 10.53344727 C-1.12904846 10.53106049 -1.12904846 10.53106049 -2.39074707 10.52862549 C-4.40209961 10.2746582 -4.40209961 10.2746582 -6.40209961 8.2746582 C-6.65209961 5.2746582 -6.65209961 5.2746582 -6.40209961 2.2746582 C-3.96635856 -0.16108285 -3.33885723 0.01914087 0 0 Z " fill="#859BFE" transform="translate(167.402099609375,359.725341796875)"/>
<path d="M0 0 C1.28753174 0.00607269 1.28753174 0.00607269 2.60107422 0.01226807 C3.92147705 0.00939789 3.92147705 0.00939789 5.26855469 0.00646973 C7.13135056 0.00510755 8.99415591 0.00880625 10.85693359 0.01715088 C13.71457158 0.02785 16.57158088 0.01725675 19.42919922 0.00445557 C21.23649228 0.00577716 23.04378495 0.00833954 24.85107422 0.01226807 C25.70942871 0.0082196 26.5677832 0.00417114 27.45214844 0 C33.49615677 0.04797562 33.49615677 0.04797562 35.72607422 2.27789307 C36.03857422 5.27789307 36.03857422 5.27789307 35.72607422 8.27789307 C31.81751851 10.88359687 28.50543684 10.56559474 23.97216797 10.54351807 C23.11551041 10.54543152 22.25885284 10.54734497 21.37623596 10.54931641 C19.56649481 10.5506768 17.75674386 10.54699054 15.94702148 10.53863525 C13.17067673 10.52792048 10.39497712 10.53854211 7.61865234 10.55133057 C5.86148945 10.5500092 4.10432696 10.54744729 2.34716797 10.54351807 C1.51382431 10.54756653 0.68048065 10.55161499 -0.17811584 10.55578613 C-6.04399847 10.50782038 -6.04399847 10.50782038 -8.27392578 8.27789307 C-8.52392578 5.27789307 -8.52392578 5.27789307 -8.27392578 2.27789307 C-5.61322373 -0.38280898 -3.619129 0.02872762 0 0 Z " fill="#B5C3FE" transform="translate(242.27392578125,49.72210693359375)"/>
<path d="M0 0 C0.33 0 0.66 0 1 0 C1 42.9 1 85.8 1 130 C-2.04407507 125.94123323 -2.37489895 125.46672149 -2.36076355 120.8114624 C-2.36488754 119.76260864 -2.36901154 118.71375488 -2.3732605 117.63311768 C-2.36247467 116.4880072 -2.35168884 115.34289673 -2.34057617 114.16308594 C-2.34101425 112.95305908 -2.34145233 111.74303223 -2.34190369 110.49633789 C-2.34017235 107.18241061 -2.32513249 103.86904471 -2.30418181 100.55521679 C-2.2854216 97.09055932 -2.2836651 93.62589428 -2.28010559 90.16119385 C-2.27078317 83.60221785 -2.24616682 77.04339196 -2.21605712 70.48448205 C-2.18251917 63.01659611 -2.16602864 55.54870299 -2.15097082 48.08076048 C-2.11961736 32.72042007 -2.06685314 17.3602294 -2 2 C-1.34 2 -0.68 2 0 2 C0 1.34 0 0.68 0 0 Z " fill="#FFCCE5" transform="translate(11,151)"/>
<path d="M0 0 C0.33 0 0.66 0 1 0 C1 27.06 1 54.12 1 82 C-4.91349018 70.17301964 -3.31105139 54.53048683 -3.26074219 41.64746094 C-3.24999725 38.37416156 -3.2607048 35.10140806 -3.2734375 31.828125 C-3.28748788 10.05870666 -3.28748788 10.05870666 -1 1 C-0.67 0.67 -0.34 0.34 0 0 Z " fill="#FFDBFF" transform="translate(4,177)"/>
<path d="M0 0 C1.09924805 0.00483398 1.09924805 0.00483398 2.22070312 0.00976562 C2.94966797 -0.00634766 3.67863281 -0.02246094 4.4296875 -0.0390625 C9.74022328 -0.04393009 9.74022328 -0.04393009 12.29882812 1.68164062 C13.28320312 3.32226562 13.28320312 3.32226562 13.09570312 5.88476562 C12.28320312 8.32226562 12.28320312 8.32226562 10.28320312 10.32226562 C7.40693483 10.54733946 4.65867288 10.64656969 1.78320312 10.63476562 C0.99816406 10.65087891 0.213125 10.66699219 -0.59570312 10.68359375 C-2.87304688 10.68554688 -2.87304688 10.68554688 -6.71679688 10.32226562 C-8.71679688 7.32226562 -8.71679688 7.32226562 -8.46679688 4.75976562 C-6.98834702 -0.04519641 -4.64389286 0.04690801 0 0 Z " fill="#FBC3E0" transform="translate(189.716796875,114.677734375)"/>
<path d="M0 0 C0.33 0 0.66 0 1 0 C1 42.9 1 85.8 1 130 C-2 126 -2 126 -2 124 C-1.34 124 -0.68 124 0 124 C0 84.07 0 44.14 0 3 C-0.66 2.67 -1.32 2.34 -2 2 C-1.34 2 -0.68 2 0 2 C0 1.34 0 0.68 0 0 Z " fill="#FFD4D5" transform="translate(11,151)"/>
<path d="M0 0 C2.5625 0.3125 2.5625 0.3125 4.4375 1.5 C5.5625 3.3125 5.5625 3.3125 5.375 5.875 C4.5625 8.3125 4.5625 8.3125 2.5625 10.3125 C-0.5625 9.9375 -0.5625 9.9375 -3.4375 9.3125 C-4.0625 5.9375 -4.0625 5.9375 -4.4375 2.3125 C-2.4375 0.3125 -2.4375 0.3125 0 0 Z " fill="#B2C1FF" transform="translate(296.4375,49.6875)"/>
</svg>
