<?xml version="1.0" encoding="UTF-8"?>
<svg version="1.1" xmlns="http://www.w3.org/2000/svg" width="512" height="512">
<path d="M0 0 C0.97010521 -0.00453111 1.94021042 -0.00906223 2.93971276 -0.01373065 C6.18139459 -0.02636283 9.42290815 -0.02475502 12.66461182 -0.02310181 C14.99259659 -0.02908781 17.32057938 -0.03589352 19.64855957 -0.04345703 C25.96687458 -0.06111743 32.28513541 -0.06581245 38.60347271 -0.0670886 C42.55297852 -0.0685108 46.50247057 -0.07278171 50.45197296 -0.07808304 C63.52523281 -0.09562934 76.59845858 -0.10492327 89.67173025 -0.10342209 C90.37578742 -0.10334218 91.07984458 -0.10326227 91.80523682 -0.10317993 C92.8626204 -0.10305729 92.8626204 -0.10305729 93.94136527 -0.10293217 C105.35989801 -0.10211965 116.77829872 -0.12125079 128.19679329 -0.14945666 C139.93677623 -0.17822654 151.67669488 -0.19199469 163.41671395 -0.19026911 C170.00158109 -0.18975973 176.5862988 -0.19543018 183.17113495 -0.21662521 C189.36657174 -0.23602255 195.56171678 -0.2361215 201.757164 -0.22159195 C204.02625964 -0.2195046 206.2953736 -0.22420026 208.56443787 -0.23631287 C224.01577064 -0.3134279 236.44067857 0.04462648 248.19683838 11.26742554 C258.39064822 21.94569367 260.38274627 34.32037825 260.31036377 48.54110718 C260.3105098 49.31295349 260.31065582 50.0847998 260.31080627 50.8800354 C260.31011736 53.3959142 260.30237351 55.91171615 260.29449463 58.42758179 C260.29262681 60.18591776 260.29120463 61.94425426 260.29020691 63.70259094 C260.28641036 68.30401069 260.27660488 72.90539828 260.26550293 77.50680542 C260.25522691 82.21281499 260.25069609 86.91882982 260.2456665 91.62484741 C260.23497973 100.83905416 260.21793815 110.05323716 260.19683838 119.26742554 C261.31308846 119.56541801 261.31308846 119.56541801 262.45188904 119.86943054 C263.92508354 120.26620247 263.92508354 120.26620247 265.42803955 120.67098999 C266.39908127 120.93152664 267.37012299 121.19206329 268.37059021 121.460495 C272.19391845 122.55210484 275.8446489 123.92085914 279.50933838 125.45492554 C280.23153564 125.75680786 280.95373291 126.05869019 281.69781494 126.36972046 C314.81763674 140.56756934 341.20169452 168.20095726 355.19683838 201.26742554 C357.90835577 208.15248666 360.1709331 215.15274004 362.19683838 222.26742554 C362.39180908 222.94224976 362.58677979 223.61707397 362.78765869 224.31234741 C372.05038156 258.35241119 363.96491674 297.07324576 347.19683838 327.26742554 C328.78282028 359.17968447 299.81639299 380.85915725 265.19683838 392.26742554 C263.53352045 392.61708588 261.86728868 392.95360282 260.19683838 393.26742554 C260.2012796 394.2282756 260.20572083 395.18912567 260.21029663 396.17909241 C260.2510394 405.28432095 260.28091648 414.38953073 260.30046272 423.49483013 C260.3108498 428.17468283 260.324915 432.85446126 260.34771729 437.53427124 C260.36962831 442.06006908 260.38144505 446.585796 260.38659286 451.11164284 C260.39025614 452.82859219 260.3974084 454.54553817 260.40829849 456.26245689 C260.5140749 473.64835815 259.94324489 488.89448746 247.43902588 502.22445679 C238.76282328 510.12977728 229.81292941 512.57422941 218.39367676 512.53485107 C217.42357155 512.53938219 216.45346633 512.5439133 215.45396399 512.54858172 C212.21228217 512.56121391 208.97076861 512.55960609 205.72906494 512.55795288 C203.40108016 512.56393888 201.07309737 512.57074459 198.74511719 512.57830811 C192.42680218 512.59596851 186.10854135 512.60066353 179.79020405 512.60193968 C175.84069824 512.60336187 171.89120619 512.60763279 167.9417038 512.61293411 C154.86844395 512.63048041 141.79521817 512.63977435 128.72194651 512.63827316 C128.01788934 512.63819325 127.31383217 512.63811334 126.58843994 512.63803101 C125.88351755 512.63794924 125.17859516 512.63786748 124.45231149 512.63778324 C113.03377875 512.63697073 101.61537804 512.65610186 90.19688347 512.68430774 C78.45690052 512.71307761 66.71698188 512.72684576 54.9769628 512.72512019 C48.39209567 512.7246108 41.80737796 512.73028126 35.22254181 512.75147629 C29.02710502 512.77087362 22.83195998 512.77097258 16.63651276 512.75644302 C14.36741712 512.75435568 12.09830316 512.75905133 9.82923889 512.77116394 C-5.62209388 512.84827897 -18.04700182 512.49022459 -29.80316162 501.26742554 C-39.99697146 490.58915741 -41.98906952 478.21447283 -41.91668701 463.9937439 C-41.91683304 463.22189758 -41.91697906 462.45005127 -41.91712952 461.65481567 C-41.9164406 459.13893687 -41.90869676 456.62313493 -41.90081787 454.10726929 C-41.89895005 452.34893331 -41.89752787 450.59059681 -41.89653015 448.83226013 C-41.8927336 444.23084039 -41.88292812 439.6294528 -41.87182617 435.02804565 C-41.86155015 430.32203608 -41.85701933 425.61602125 -41.85198975 420.91000366 C-41.84130298 411.69579692 -41.82426139 402.48161391 -41.80316162 393.26742554 C-42.54855194 393.06794815 -43.29394226 392.86847076 -44.06192017 392.66294861 C-45.04500153 392.39779953 -46.02808289 392.13265045 -47.04095459 391.85946655 C-48.01321991 391.59811417 -48.98548523 391.33676178 -49.98721313 391.06748962 C-67.69143827 386.03738528 -84.12316945 376.46093037 -97.80316162 364.26742554 C-99.0773999 363.17301147 -99.0773999 363.17301147 -100.37738037 362.05648804 C-125.69196468 339.95953083 -143.73920418 306.9910819 -146.80316162 273.26742554 C-149.30523561 229.42911828 -138.65266675 192.54555814 -109.42816162 159.20492554 C-92.10593403 140.32399156 -67.3798371 124.07244232 -41.80316162 119.26742554 C-41.80760284 118.30657547 -41.81204407 117.3457254 -41.81661987 116.35575867 C-41.85736264 107.25053012 -41.88723972 98.14532035 -41.90678596 89.04002094 C-41.91717304 84.36016825 -41.93123824 79.68038981 -41.95404053 75.00057983 C-41.97595155 70.47478199 -41.9877683 65.94905507 -41.99291611 61.42320824 C-41.99657938 59.70625888 -42.00373164 57.98931291 -42.01462173 56.27239418 C-42.12039815 38.88649293 -41.54956813 23.64036361 -29.04534912 10.31039429 C-20.36914652 2.4050738 -11.41925266 -0.03937834 0 0 Z " fill="#229BFE" transform="translate(146.80316162109375,-0.267425537109375)"/>
<path d="M0 0 C0.86270508 0.24669434 1.72541016 0.49338867 2.61425781 0.74755859 C34.06037035 9.99074108 60.0905308 27.86187005 80 54 C78.5638863 57.98758475 76.62714626 61.27004531 74.3125 64.8125 C66.67627228 76.91556296 61.70402108 90.22382393 58 104 C57.51853516 105.71896484 57.51853516 105.71896484 57.02734375 107.47265625 C49.25789441 140.68253506 56.28697922 178.59507579 73 208 C74.88918846 210.74382134 76.8060915 213.36949973 78.9453125 215.921875 C80 218 80 218 79.52734375 220.375 C77.56918828 223.74042322 75.11627229 226.45686713 72.4375 229.25 C71.89665771 229.82210205 71.35581543 230.3942041 70.79858398 230.98364258 C69.70760623 232.13337398 68.61301139 233.27968503 67.51464844 234.42236328 C66.22058699 235.77023966 64.94081212 237.13180779 63.6640625 238.49609375 C44.72546123 258.24433783 18.75362429 271.06697879 -8 276 C-9.3147229 276.2616394 -9.3147229 276.2616394 -10.65600586 276.52856445 C-46.48507914 283.2011733 -84.70053992 275.06034311 -114.8515625 254.75292969 C-118.72531595 252.01915413 -122.38140045 249.06549754 -126 246 C-126.50724609 245.57106445 -127.01449219 245.14212891 -127.53710938 244.70019531 C-150.46208979 225.10209735 -164.79285682 199.82229641 -173 171 C-173.1949707 170.32517578 -173.38994141 169.65035156 -173.59082031 168.95507812 C-182.85354318 134.91501435 -174.76807836 96.19417978 -158 66 C-142.74317483 39.55928767 -119.77703831 19.32843892 -92 7 C-91.38785645 6.72317383 -90.77571289 6.44634766 -90.14501953 6.16113281 C-62.6440121 -6.01421307 -28.89538126 -8.33770613 0 0 Z " fill="#FEAF40" transform="translate(176,119)"/>
<path d="M0 0 C0.97010521 -0.00453111 1.94021042 -0.00906223 2.93971276 -0.01373065 C6.18139459 -0.02636283 9.42290815 -0.02475502 12.66461182 -0.02310181 C14.99259659 -0.02908781 17.32057938 -0.03589352 19.64855957 -0.04345703 C25.96687458 -0.06111743 32.28513541 -0.06581245 38.60347271 -0.0670886 C42.55297852 -0.0685108 46.50247057 -0.07278171 50.45197296 -0.07808304 C63.52523281 -0.09562934 76.59845858 -0.10492327 89.67173025 -0.10342209 C90.37578742 -0.10334218 91.07984458 -0.10326227 91.80523682 -0.10317993 C92.8626204 -0.10305729 92.8626204 -0.10305729 93.94136527 -0.10293217 C105.35989801 -0.10211965 116.77829872 -0.12125079 128.19679329 -0.14945666 C139.93677623 -0.17822654 151.67669488 -0.19199469 163.41671395 -0.19026911 C170.00158109 -0.18975973 176.5862988 -0.19543018 183.17113495 -0.21662521 C189.36657174 -0.23602255 195.56171678 -0.2361215 201.757164 -0.22159195 C204.02625964 -0.2195046 206.2953736 -0.22420026 208.56443787 -0.23631287 C224.01577064 -0.3134279 236.44067857 0.04462648 248.19683838 11.26742554 C258.39064822 21.94569367 260.38274627 34.32037825 260.31036377 48.54110718 C260.3105098 49.31295349 260.31065582 50.0847998 260.31080627 50.8800354 C260.31011736 53.3959142 260.30237351 55.91171615 260.29449463 58.42758179 C260.29262681 60.18591776 260.29120463 61.94425426 260.29020691 63.70259094 C260.28641036 68.30401069 260.27660488 72.90539828 260.26550293 77.50680542 C260.25522691 82.21281499 260.25069609 86.91882982 260.2456665 91.62484741 C260.23497973 100.83905416 260.21793815 110.05323716 260.19683838 119.26742554 C257.63403918 118.9572395 255.07161728 118.64435663 252.50933838 118.32992554 C251.78810791 118.24291382 251.06687744 118.1559021 250.3237915 118.06625366 C246.57324883 117.60385799 242.90121059 117.0240327 239.19683838 116.26742554 C234.42972793 116.01702419 229.65738004 116.02295871 224.88433838 116.01742554 C224.20832581 116.01608612 223.53231323 116.0147467 222.83581543 116.0133667 C212.59028869 116.01778012 203.12699769 116.68319131 193.19683838 119.26742554 C192.1887915 119.48398804 191.18074463 119.70055054 190.14215088 119.92367554 C164.45163232 125.64782291 143.14442232 139.3929791 124.19683838 157.26742554 C123.56133057 157.86168335 122.92582275 158.45594116 122.27105713 159.06820679 C117.75084154 163.42805996 113.94813894 168.23908649 110.19683838 173.26742554 C106.35582673 171.75169 104.56361566 169.50397758 102.07183838 166.26742554 C83.63606648 143.2377235 59.54244063 129.20496625 31.50933838 121.01742554 C30.66661377 120.77089233 29.82388916 120.52435913 28.95562744 120.27035522 C17.24712112 116.9905218 6.03217219 115.92504892 -6.11566162 115.95492554 C-7.41439209 115.93881226 -8.71312256 115.92269897 -10.0512085 115.90609741 C-18.23835233 115.90202623 -25.64980408 116.78829049 -33.58514404 118.62216187 C-36.45841205 119.19829777 -38.89359891 119.31846779 -41.80316162 119.26742554 C-41.84973371 109.19164404 -41.88515621 99.11588862 -41.90678596 89.04002094 C-41.91717304 84.36016825 -41.93123824 79.68038981 -41.95404053 75.00057983 C-41.97595155 70.47478199 -41.9877683 65.94905507 -41.99291611 61.42320824 C-41.99657938 59.70625888 -42.00373164 57.98931291 -42.01462173 56.27239418 C-42.12039815 38.88649293 -41.54956813 23.64036361 -29.04534912 10.31039429 C-20.36914652 2.4050738 -11.41925266 -0.03937834 0 0 Z " fill="#51888E" transform="translate(146.80316162109375,-0.267425537109375)"/>
<path d="M0 0 C0.52335938 0.67546875 1.04671875 1.3509375 1.5859375 2.046875 C26.53490335 32.56696914 59.53891563 53.02525539 99 58 C103.9558356 58.23691522 108.91408976 58.24237922 113.875 58.25 C114.91063583 58.25350464 114.91063583 58.25350464 115.9671936 58.25708008 C125.51725704 58.26929048 134.63081647 57.73609026 143.98046875 55.65625 C147 55 147 55 151 55 C151.04657209 65.0757815 151.08199459 75.15153692 151.10362434 85.22740459 C151.11401142 89.90725729 151.12807662 94.58703573 151.15087891 99.2668457 C151.17278993 103.79264354 151.18460667 108.31837046 151.18975449 112.8442173 C151.19341776 114.56116666 151.20057002 116.27811263 151.21146011 117.99503136 C151.31723653 135.38093261 150.74640651 150.62706193 138.2421875 163.95703125 C129.5659849 171.86235174 120.61609104 174.30680388 109.19683838 174.26742554 C108.22673317 174.27195665 107.25662796 174.27648776 106.25712562 174.28115618 C103.01544379 174.29378837 99.77393023 174.29218055 96.53222656 174.29052734 C94.20424179 174.29651334 91.87625899 174.30331906 89.54827881 174.31088257 C83.2299638 174.32854297 76.91170297 174.33323799 70.59336567 174.33451414 C66.64385986 174.33593634 62.69436781 174.34020725 58.74486542 174.34550858 C45.67160557 174.36305487 32.5983798 174.37234881 19.52510813 174.37084763 C18.82105096 174.37076772 18.1169938 174.3706878 17.39160156 174.37060547 C16.68667917 174.37052371 15.98175678 174.37044195 15.25547311 174.37035771 C3.83694037 174.36954519 -7.58146034 174.38867633 -18.99995491 174.4168822 C-30.73993786 174.44565207 -42.4798565 174.45942022 -54.21987557 174.45769465 C-60.80474271 174.45718526 -67.38946042 174.46285572 -73.97429657 174.48405075 C-80.16973336 174.50344808 -86.3648784 174.50354704 -92.56032562 174.48901749 C-94.82942126 174.48693014 -97.09853522 174.4916258 -99.36759949 174.5037384 C-114.81893226 174.58085343 -127.2438402 174.22279906 -139 163 C-149.19380984 152.32173187 -151.18590789 139.94704729 -151.11352539 125.72631836 C-151.11367142 124.95447205 -151.11381744 124.18262573 -151.1139679 123.38739014 C-151.11327898 120.87151134 -151.10553513 118.35570939 -151.09765625 115.83984375 C-151.09578843 114.08150778 -151.09436625 112.32317128 -151.09336853 110.56483459 C-151.08957198 105.96341485 -151.0797665 101.36202726 -151.06866455 96.76062012 C-151.05838853 92.05461054 -151.05385771 87.34859571 -151.04882812 82.64257812 C-151.03814136 73.42837138 -151.02109977 64.21418838 -151 55 C-146.43299438 55.55902746 -141.93827915 56.16979167 -137.41796875 57.03515625 C-102.55840474 62.89698232 -64.80004426 54.48935078 -35.5546875 34.7421875 C-28.20941732 29.39145543 -21.56357098 23.26565002 -15 17 C-14.24589844 16.28714844 -13.49179688 15.57429688 -12.71484375 14.83984375 C-7.97926168 10.25025265 -3.92304316 5.29610827 0 0 Z " fill="#50888E" transform="translate(256,338)"/>
<path d="M0 0 C0.52335938 0.67546875 1.04671875 1.3509375 1.5859375 2.046875 C26.53490335 32.56696914 59.53891563 53.02525539 99 58 C103.9558356 58.23691522 108.91408976 58.24237922 113.875 58.25 C114.91063583 58.25350464 114.91063583 58.25350464 115.9671936 58.25708008 C125.51725704 58.26929048 134.63081647 57.73609026 143.98046875 55.65625 C147 55 147 55 151 55 C151.04657209 65.0757815 151.08199459 75.15153692 151.10362434 85.22740459 C151.11401142 89.90725729 151.12807662 94.58703573 151.15087891 99.2668457 C151.17278993 103.79264354 151.18460667 108.31837046 151.18975449 112.8442173 C151.19341776 114.56116666 151.20057002 116.27811263 151.21146011 117.99503136 C151.31723653 135.38093261 150.74640651 150.62706193 138.2421875 163.95703125 C129.45467442 171.96377226 120.37699287 174.30351883 108.82421875 174.37109375 C107.8590181 174.38012222 106.89381744 174.3891507 105.89936829 174.39845276 C103.8646655 174.41290586 101.82991676 174.42182965 99.79516602 174.42553711 C96.70703605 174.4374248 93.6209118 174.4866526 90.53320312 174.53710938 C88.54688465 174.54657638 86.56055402 174.55381009 84.57421875 174.55859375 C83.208097 174.58789223 83.208097 174.58789223 81.81437683 174.61778259 C74.09649486 174.56433226 67.66693909 172.26181566 61.84819031 167.08592224 C56.58588744 161.67558942 54.50207448 155.9448709 53.5625 148.5625 C54.6352878 139.82694224 58.18189215 133.51283945 65 128 C70.04761277 124.47840969 73.98629008 123.87248181 80.078125 123.90234375 C81.12387695 123.90484131 82.16962891 123.90733887 83.24707031 123.90991211 C84.56803711 123.91901611 85.88900391 123.92812012 87.25 123.9375 C91.4575 123.958125 95.665 123.97875 100 124 C100 114.1 100 104.2 100 94 C96.7 94 93.4 94 90 94 C86.8435579 93.39494833 83.88757705 92.74247904 80.8125 91.875 C79.99152832 91.6490918 79.17055664 91.42318359 78.32470703 91.19042969 C59.57579797 85.87102254 42.12000743 77.33692914 27 65 C25.94820275 64.16370257 24.89611246 63.32777358 23.84375 62.4921875 C17.10252882 57.07289628 11.35502359 51.3290627 6.0625 44.5 C3.52742211 42.65630699 1.447201 42.27260243 -1.67016602 42.33935547 C-6.9466678 43.83555308 -10.42639224 48.88813093 -14 52.8125 C-22.28754586 61.55349608 -30.55388049 68.95198504 -41 75 C-41.73927734 75.43344727 -42.47855469 75.86689453 -43.24023438 76.31347656 C-65.15791886 88.97519655 -88.01062152 95.21779292 -113.3125 95.25 C-114.45126587 95.25300613 -114.45126587 95.25300613 -115.61303711 95.256073 C-142.4530577 95.27347115 -142.4530577 95.27347115 -151 91 C-151 79.12 -151 67.24 -151 55 C-146.36246202 55.57969225 -141.96732053 56.16423201 -137.41796875 57.03515625 C-102.55840474 62.89698232 -64.80004426 54.48935078 -35.5546875 34.7421875 C-28.20941732 29.39145543 -21.56357098 23.26565002 -15 17 C-14.24589844 16.28714844 -13.49179688 15.57429688 -12.71484375 14.83984375 C-7.97926168 10.25025265 -3.92304316 5.29610827 0 0 Z " fill="#3B7C7F" transform="translate(256,338)"/>
<path d="M0 0 C3.27688529 2.39448761 5.83771791 5.02356229 8.40234375 8.1328125 C8.87454346 8.70088623 9.34674316 9.26895996 9.83325195 9.85424805 C23.43834629 26.55692061 32.21467784 45.62508199 38.08984375 66.2578125 C38.28481445 66.93263672 38.47978516 67.60746094 38.68066406 68.30273438 C47.94338693 102.34279815 39.85792211 141.06363272 23.08984375 171.2578125 C7.85692831 197.65708827 -15.12937932 218.00099544 -42.91015625 230.2578125 C-43.94003662 230.71293213 -43.94003662 230.71293213 -44.99072266 231.17724609 C-54.07066939 235.09827646 -62.73917888 238.54375725 -72.59375 235.40234375 C-78.732147 232.72990642 -82.61439092 229.07100744 -85.91015625 223.2578125 C-87.90766115 217.26529779 -88.09414812 209.78212475 -86.07421875 203.76953125 C-81.52932672 195.91510376 -74.66099797 192.36830445 -66.34765625 189.4453125 C-49.93051902 183.64820867 -36.18416666 173.71901197 -25.60546875 159.81640625 C-23.30410612 157.70063738 -20.86667379 157.2372723 -17.91015625 156.2578125 C-14.8225725 154.28922608 -14.8225725 154.28922608 -11.84765625 151.9453125 C-10.84605469 151.18605469 -9.84445312 150.42679688 -8.8125 149.64453125 C-3.17923776 145.43570764 -3.17923776 145.43570764 -0.296875 139.3515625 C-1.10068048 135.29669665 -3.10294954 132.81917573 -5.72265625 129.7578125 C-6.73335701 128.52497244 -7.74376519 127.29189246 -8.75390625 126.05859375 C-9.27597656 125.43162598 -9.79804688 124.8046582 -10.3359375 124.15869141 C-12.84725752 121.1262569 -15.28785693 118.03930775 -17.72265625 114.9453125 C-18.18043457 114.36571777 -18.63821289 113.78612305 -19.10986328 113.18896484 C-22.62565666 108.70418138 -25.8817263 104.0879666 -28.91015625 99.2578125 C-28.15992188 98.32582031 -27.4096875 97.39382812 -26.63671875 96.43359375 C-20.71389005 89.06168652 -14.83163835 81.66488024 -9.11328125 74.1328125 C-7.75565881 72.36116336 -6.37474475 70.60675211 -4.95703125 68.8828125 C-1.71011887 64.88299932 -1.71011887 64.88299932 -0.47265625 59.9453125 C-0.85133148 57.16813875 -0.85133148 57.16813875 -1.91015625 54.2578125 C-3.22549035 53.55630098 -4.56382904 52.89783223 -5.91015625 52.2578125 C-8.89322756 50.00262742 -11.81768742 47.68208262 -14.7421875 45.3515625 C-17.81550698 43.07995978 -17.81550698 43.07995978 -21.5 42.296875 C-28.04482105 40.30269127 -31.8421337 33.85238798 -35.1484375 28.10546875 C-37.65353826 22.29980868 -38.15140909 15.8264144 -36.06640625 9.83203125 C-32.73643324 3.13833549 -27.84599801 -0.57747453 -21.41015625 -4.1171875 C-13.3318499 -6.13676409 -6.93566985 -4.15209229 0 0 Z " fill="#037CFE" transform="translate(470.91015625,155.7421875)"/>
<path d="M0 0 C5.43968417 3.16260708 7.97585215 8.20244073 10 14 C11.02915374 20.38652413 10.15522065 26.35141579 7 32 C2.19869275 38.22710262 -3.31024947 40.77188424 -10.5625 43.375 C-24.31851833 48.66963176 -35.4832322 55.50111786 -46 66 C-47.13695313 67.11955078 -47.13695313 67.11955078 -48.296875 68.26171875 C-65.83558857 86.55641136 -73.57811125 110.45159758 -73.34716797 135.45019531 C-72.94654258 151.57603058 -69.33049997 167.93760913 -60.28125 181.59375 C-57.50814944 186.80176813 -58.35616366 193.28443401 -59 199 C-61.25256031 205.36300157 -66.15837469 209.62304665 -71.79296875 213.109375 C-77.08510882 215.24496427 -84.1255791 214.95663616 -89.48828125 213.171875 C-91.40497202 212.20450565 -93.18949527 211.15099373 -95 210 C-95.65097656 209.77441406 -96.30195312 209.54882812 -96.97265625 209.31640625 C-100.1307693 207.26576251 -101.31566255 204.11970453 -102.875 200.8125 C-103.22014648 200.09779541 -103.56529297 199.38309082 -103.92089844 198.64672852 C-109.54497739 186.83538232 -114.28581871 174.84062672 -117 162 C-117.17805176 161.15864502 -117.35610352 160.31729004 -117.53955078 159.45043945 C-119.17577277 150.82554636 -119.3990058 142.30631107 -119.375 133.5625 C-119.37445618 132.81565948 -119.37391235 132.06881897 -119.37335205 131.29934692 C-119.23995049 91.33810755 -102.83654055 56.9722842 -74.76953125 28.7578125 C-63.13813667 17.80832547 -49.56979284 9.42816023 -35 3 C-34.31341309 2.69658691 -33.62682617 2.39317383 -32.91943359 2.08056641 C-21.85192518 -2.69876081 -11.32287763 -5.9334988 0 0 Z " fill="#FFDF58" transform="translate(119,123)"/>
<path d="M0 0 C1.36801758 -0.00773438 1.36801758 -0.00773438 2.76367188 -0.015625 C3.70919922 -0.00015625 4.65472656 0.0153125 5.62890625 0.03125 C6.57056641 0.01578125 7.51222656 0.0003125 8.48242188 -0.015625 C9.39572266 -0.01046875 10.30902344 -0.0053125 11.25 0 C12.07814209 0.00451172 12.90628418 0.00902344 13.75952148 0.01367188 C17.20134663 0.74619565 18.73672912 2.00894633 21.19140625 4.53125 C21.69469628 7.32529159 21.87386292 9.52012769 21.83496094 12.31323242 C21.84383835 13.09249588 21.85271576 13.87175934 21.86186218 14.67463684 C21.88553044 17.24576518 21.8743587 19.81552536 21.86328125 22.38671875 C21.87385792 24.17224107 21.88676815 25.95775097 21.9019165 27.74324036 C21.93614172 32.43978963 21.94149816 37.13592355 21.94000244 41.83258057 C21.94322788 48.46393224 21.98582989 55.09516814 22.02374268 61.72639465 C22.04382099 65.25874789 22.05309319 68.79088 22.05389404 72.32328796 C22.05771273 73.9280091 22.06155655 75.53273017 22.06542969 77.13745117 C22.06332993 77.8756308 22.06123016 78.61381042 22.05906677 79.37435913 C21.77399211 82.73825007 21.77399211 82.73825007 23.19140625 85.53125 C24.88699351 85.63057153 26.58666372 85.66205007 28.28515625 85.6640625 C29.31511719 85.66535156 30.34507813 85.66664063 31.40625 85.66796875 C32.49035156 85.66410156 33.57445312 85.66023438 34.69140625 85.65625 C36.31755859 85.66205078 36.31755859 85.66205078 37.9765625 85.66796875 C39.00652344 85.66667969 40.03648438 85.66539062 41.09765625 85.6640625 C42.04962891 85.66293457 43.00160156 85.66180664 43.98242188 85.66064453 C46.16592763 85.77824456 46.16592763 85.77824456 47.19140625 84.53125 C47.28981802 82.09352153 47.32442251 79.68333415 47.31738281 77.24511719 C47.31925095 76.48247055 47.32111908 75.71982391 47.32304382 74.93406677 C47.32705754 73.27200408 47.32912355 71.60993584 47.32950592 69.94786835 C47.33291059 66.415908 47.35426172 62.88413356 47.37473679 59.3522377 C47.41280992 52.77012018 47.44402264 46.18819709 47.44189453 39.60595703 C47.44110755 35.03338005 47.46446856 30.46147722 47.50377655 25.88907623 C47.51424419 24.14601929 47.51575493 22.4028846 47.50812531 20.65981293 C47.4985041 18.21745448 47.51968289 15.77713528 47.54785156 13.33496094 C47.53765488 12.61580002 47.52745819 11.8966391 47.51695251 11.15568542 C47.59731952 7.26488749 48.0976806 5.64695506 50.57963562 2.58296204 C53.42123132 0.35070778 54.58372572 -0.10076373 58.1328125 -0.09765625 C59.04611328 -0.09958984 59.95941406 -0.10152344 60.90039062 -0.10351562 C61.84205078 -0.07966797 62.78371094 -0.05582031 63.75390625 -0.03125 C65.17219727 -0.04768555 65.17219727 -0.04768555 66.61914062 -0.06445312 C73.46490708 0.00811684 73.46490708 0.00811684 76.30296326 2.05172729 C78.92151144 5.48987698 78.75231613 8.58610505 78.70898438 12.73706055 C78.71599365 13.56199509 78.72300293 14.38692963 78.73022461 15.23686218 C78.74782877 17.9642403 78.73616817 20.69058001 78.72265625 23.41796875 C78.72535176 25.31883442 78.72923468 27.21969874 78.73425293 29.12055969 C78.74015233 33.10776882 78.7315756 37.09461964 78.71289062 41.08178711 C78.69017834 46.17491531 78.70317218 51.26719674 78.72718048 56.36029339 C78.74169286 60.28874489 78.73700628 64.21699858 78.72666931 68.14545631 C78.72401299 70.0220023 78.72723299 71.89856662 78.73658752 73.77509117 C78.80677519 91.8237869 78.80677519 91.8237869 74.19140625 99.53125 C73.73378906 100.32917969 73.27617187 101.12710938 72.8046875 101.94921875 C67.47806015 109.19535145 60.03809962 114.4732756 51.19140625 116.53125 C46.75282171 116.9052377 42.34241646 116.96340957 37.89257812 116.92236328 C35.82744737 116.90633569 33.76428861 116.92223973 31.69921875 116.94140625 C18.61644363 116.96333791 9.8674795 114.68930604 0.28125 105.75 C-9.80159694 95.30322865 -9.40975017 82.82815512 -9.33984375 69.22265625 C-9.34254276 67.36465757 -9.34642858 65.50666027 -9.35144043 63.64866638 C-9.35730598 59.77646281 -9.34886128 55.90463079 -9.33007812 52.0324707 C-9.30717803 47.070204 -9.32049967 42.10879755 -9.34436798 37.14656162 C-9.35881062 33.31954946 -9.35422898 29.49274207 -9.34385681 25.6657238 C-9.34119106 23.83528478 -9.34445397 22.0048271 -9.35377502 20.17440987 C-9.36392784 17.62301235 -9.34846356 15.07302112 -9.32617188 12.52172852 C-9.3342688 11.76792908 -9.34236572 11.01412964 -9.35070801 10.23748779 C-9.29425433 6.75200271 -9.0671709 4.86905442 -6.92015076 2.06419373 C-4.40893518 0.24110671 -3.07993083 0.01680235 0 0 Z " fill="#F8FEFA" transform="translate(81.80859375,197.46875)"/>
<path d="M0 0 C4.13484426 2.60851749 6.78098323 6.0509346 9.6875 9.9375 C10.55319695 11.08607957 11.41908858 12.23451243 12.28515625 13.3828125 C12.72746582 13.97352539 13.16977539 14.56423828 13.62548828 15.17285156 C15.93246472 18.23953214 18.2806592 21.27435249 20.625 24.3125 C21.47154234 25.41261564 22.31791425 26.51286247 23.1640625 27.61328125 C23.76992188 28.40089844 24.37578125 29.18851563 25 30 C28.63413841 26.50787055 31.78868616 22.84888089 34.8125 18.8125 C35.68283451 17.66608987 36.55393861 16.52026362 37.42578125 15.375 C37.85584473 14.80910156 38.2859082 14.24320313 38.72900391 13.66015625 C46.53199498 3.46800502 46.53199498 3.46800502 50 0 C54.41029404 -0.57408937 56.50489187 -0.29718029 60.3515625 2.01171875 C61.45652013 2.88647688 62.54764406 3.77896419 63.625 4.6875 C64.1715625 5.12255859 64.718125 5.55761719 65.28125 6.00585938 C66.88741599 7.30270392 68.44547619 8.64191601 70 10 C71.43472656 11.21623047 71.43472656 11.21623047 72.8984375 12.45703125 C75 15 75 15 75.70703125 17.78125 C74.63865262 22.64502896 71.82274286 25.71820687 68.6875 29.5 C68.05610107 30.28592529 67.42470215 31.07185059 66.77416992 31.8815918 C65.48243414 33.48865494 64.18497668 35.09113585 62.88183594 36.68896484 C60.15659862 40.03575992 57.48298252 43.42199606 54.8125 46.8125 C54.36801514 47.36808594 53.92353027 47.92367187 53.46557617 48.49609375 C51.04960682 51.5405432 48.91839578 54.61937421 47 58 C47.63164062 58.80179687 48.26328125 59.60359375 48.9140625 60.4296875 C54.46275697 67.47922384 59.99096208 74.54442286 65.5 81.625 C66.09893066 82.39440918 66.69786133 83.16381836 67.31494141 83.95654297 C67.88132324 84.68502441 68.44770508 85.41350586 69.03125 86.1640625 C69.53205078 86.80811035 70.03285156 87.4521582 70.54882812 88.11572266 C71.02771484 88.73753418 71.50660156 89.3593457 72 90 C72.54591797 90.67853027 73.09183594 91.35706055 73.65429688 92.05615234 C75.61866858 94.89365734 75.55089003 96.62579854 75 100 C71.72529699 103.60393707 68.08584908 106.68190171 64.3125 109.75 C63.35988281 110.52859375 62.40726562 111.3071875 61.42578125 112.109375 C58.70822715 114.22740428 57.30673993 114.93114002 53.9375 115.6875 C47.55224709 114.57261457 44.86842978 109.93146171 41 105 C40.35828857 104.18982422 40.35828857 104.18982422 39.70361328 103.36328125 C34.96445491 97.36814983 30.37312645 91.26814791 26 85 C22.36586159 88.49212945 19.21131384 92.15111911 16.1875 96.1875 C15.31716549 97.33391013 14.44606139 98.47973638 13.57421875 99.625 C13.14415527 100.19089844 12.7140918 100.75679688 12.27099609 101.33984375 C1.97960148 114.78231078 1.97960148 114.78231078 -2.375 115.75 C-9.15528306 115.63844141 -14.38074016 109.36440412 -19 105 C-19.94488281 104.18917969 -20.88976562 103.37835938 -21.86328125 102.54296875 C-24 100 -24 100 -24.671875 97.18359375 C-23.69349786 92.54767881 -21.2075136 89.68472622 -18.25 86.0625 C-17.37722412 84.95793457 -17.37722412 84.95793457 -16.48681641 83.83105469 C-14.67258279 81.54181638 -12.8386628 79.26964537 -11 77 C-9.31178397 74.90035807 -7.62543547 72.79924035 -5.94042969 70.69702148 C-4.92246818 69.43091995 -3.89991509 68.16849174 -2.87207031 66.91040039 C-0.29329179 63.7333274 1.99254777 60.58377378 4 57 C3.17757813 55.99582031 2.35515625 54.99164063 1.5078125 53.95703125 C-5.47484862 45.41041369 -12.33454556 36.79641757 -19 28 C-19.56976563 27.29101562 -20.13953125 26.58203125 -20.7265625 25.8515625 C-22.80102054 23.1976469 -23.95997235 21.20013826 -24.625 17.875 C-23.36093927 12.06032065 -17.09938074 8.26924796 -12.5625 4.6875 C-12.01529297 4.23310547 -11.46808594 3.77871094 -10.90429688 3.31054688 C-7.18385252 0.38262321 -4.7161548 -0.88229545 0 0 Z " fill="#F6FEFC" transform="translate(396,198)"/>
<path d="M0 0 C1.57491211 -0.0299707 1.57491211 -0.0299707 3.18164062 -0.06054688 C4.69854492 -0.05958008 4.69854492 -0.05958008 6.24609375 -0.05859375 C7.63139282 -0.06137329 7.63139282 -0.06137329 9.04467773 -0.06420898 C12.45333295 0.61501011 13.45263679 1.6825435 15.5625 4.4375 C15.96041452 7.13564042 16.11716173 9.43080018 16.0925293 12.12768555 C16.10562637 13.28195038 16.10562637 13.28195038 16.11898804 14.45953369 C16.14334788 16.9979998 16.13995487 19.53565071 16.13671875 22.07421875 C16.14916122 23.83731985 16.1634947 25.60040855 16.17964172 27.36347961 C16.21767987 32.00076863 16.23285884 36.63784395 16.24243164 41.27526855 C16.26217414 48.70895709 16.31888007 56.14248259 16.37119484 63.57599831 C16.38659327 66.17801454 16.39374129 68.77994993 16.39933777 71.38200378 C16.40635027 72.96650229 16.4134509 74.5510004 16.4206543 76.13549805 C16.42012558 76.86432693 16.41959686 77.59315582 16.41905212 78.34407043 C16.14816313 81.67491482 16.14816313 81.67491482 17.5625 84.4375 C19.25808726 84.53682153 20.95775747 84.56830007 22.65625 84.5703125 C23.68621094 84.57160156 24.71617187 84.57289063 25.77734375 84.57421875 C26.86144531 84.57035156 27.94554687 84.56648438 29.0625 84.5625 C30.68865234 84.56830078 30.68865234 84.56830078 32.34765625 84.57421875 C33.37761719 84.57292969 34.40757812 84.57164062 35.46875 84.5703125 C36.42072266 84.56918457 37.37269531 84.56805664 38.35351562 84.56689453 C40.53702138 84.68449456 40.53702138 84.68449456 41.5625 83.4375 C41.66622078 80.99461945 41.70611837 78.57909457 41.7043457 76.13549805 C41.70782013 75.37124512 41.71129456 74.60699219 41.71487427 73.81958008 C41.72224453 72.1542452 41.72758311 70.48890042 41.73116493 68.82355309 C41.7383103 66.1885054 41.75396247 63.55364612 41.77250671 60.9186554 C41.82506513 53.42471923 41.87295801 45.93088404 41.88842773 38.43676758 C41.89850146 33.85777619 41.92781272 29.27925482 41.96974754 24.70044899 C41.98207405 22.95377976 41.98717579 21.20704417 41.98494911 19.46033287 C41.98259981 17.01560608 42.00473323 14.57222998 42.0324707 12.12768555 C42.02256859 11.04355125 42.02256859 11.04355125 42.01246643 9.93751526 C42.07605313 6.52668969 42.33805491 4.73056945 44.43826294 1.98822021 C47.09457284 0.04908003 48.61059454 -0.06515147 51.87890625 -0.05859375 C52.89017578 -0.05923828 53.90144531 -0.05988281 54.94335938 -0.06054688 C55.99330078 -0.04056641 57.04324219 -0.02058594 58.125 0 C59.17880859 -0.00708984 60.23261719 -0.01417969 61.31835938 -0.02148438 C68.93615314 0.04171366 68.93615314 0.04171366 71.18652344 1.4637146 C73.33474018 4.54524881 72.98779116 7.79726168 72.96655273 11.42211914 C72.97341599 12.23554779 72.98027924 13.04897644 72.98735046 13.88705444 C73.00568302 16.58243169 73.00176901 19.27722987 72.99609375 21.97265625 C73.00065526 23.85013518 73.00596074 25.72761245 73.01197815 27.60508728 C73.020924 31.54693362 73.01847268 35.48857759 73.00854492 39.43041992 C72.99710353 44.46179695 73.01718464 49.49246711 73.04646206 54.52375126 C73.06489446 58.405903 73.06451677 62.28788799 73.05882454 66.17007256 C73.05867191 68.02347232 73.0646673 69.87688381 73.07711601 71.73024178 C73.18409615 90.28379511 73.18409615 90.28379511 68.5625 98.4375 C67.985 99.489375 67.4075 100.54125 66.8125 101.625 C60.93752745 108.96871568 54.75978308 113.2311131 45.5625 115.4375 C40.59225583 115.91943689 35.69075827 116.01533267 30.70068359 115.95898438 C28.43349114 115.93746194 26.16944273 115.95891848 23.90234375 115.984375 C16.09561994 115.99951623 9.37388925 115.66381999 2.5625 111.4375 C1.76457031 110.97988281 0.96664063 110.52226562 0.14453125 110.05078125 C-7.33908835 104.54957744 -11.84609929 97.35052565 -14.4375 88.4375 C-14.8281383 85.54045081 -14.84897646 82.69441106 -14.82568359 79.77416992 C-14.83094055 78.94876709 -14.83619751 78.12336426 -14.84161377 77.27294922 C-14.85471487 74.57109115 -14.84611523 71.86983177 -14.8359375 69.16796875 C-14.83796012 67.28086739 -14.84087312 65.39376679 -14.84463501 63.50666809 C-14.8490441 59.56532294 -14.84266937 55.62418258 -14.82861328 51.68286133 C-14.81146331 46.62749929 -14.82140813 41.57261306 -14.83933067 36.51726818 C-14.85015667 32.62684014 -14.84672864 28.73652553 -14.8389473 24.84609413 C-14.83694505 22.98133602 -14.83940541 21.11656764 -14.84638596 19.25182152 C-14.85398743 16.6522209 -14.84241761 14.05339981 -14.82568359 11.45385742 C-14.83175629 10.68239883 -14.83782898 9.91094025 -14.84408569 9.11610413 C-14.78213195 3.93271506 -14.78213195 3.93271506 -13.06251526 1.46173096 C-9.33247163 -0.88927845 -4.25949075 -0.02865712 0 0 Z " fill="#F6FEFC" transform="translate(285.4375,198.5625)"/>
<path d="M0 0 C0.76543625 -0.00902847 1.5308725 -0.01805695 2.31950378 -0.02735901 C3.93049251 -0.04178632 5.54153884 -0.0507294 7.15258789 -0.05444336 C9.58908078 -0.06632632 12.0230254 -0.11556895 14.45898438 -0.16601562 C24.16841257 -0.26735809 32.12578404 0.236101 39.68041992 7.08129883 C44.84805574 12.42311547 46.90054797 18.41402127 47.29296875 25.74609375 C47.07487025 32.58300763 44.68762234 38.11203009 40.1484375 43.22265625 C31.19767256 51.42584037 23.391933 50.37109375 10.79296875 50.37109375 C10.79296875 71.82109375 10.79296875 93.27109375 10.79296875 115.37109375 C-4.55203125 115.86609375 -4.55203125 115.86609375 -20.20703125 116.37109375 C-25.15703125 117.36109375 -30.10703125 118.35109375 -35.20703125 119.37109375 C-36.85703125 119.37109375 -38.50703125 119.37109375 -40.20703125 119.37109375 C-40.25360334 109.29531225 -40.28902584 99.21955683 -40.31065559 89.14368916 C-40.32104267 84.46383646 -40.33510787 79.78405802 -40.35791016 75.10424805 C-40.37982118 70.57845021 -40.39163792 66.05272329 -40.39678574 61.52687645 C-40.40044901 59.80992709 -40.40760127 58.09298112 -40.41849136 56.37606239 C-40.52426778 38.99016114 -39.95343776 23.74403182 -27.44921875 10.4140625 C-19.47006354 3.14385662 -10.73941038 0.07999407 0 0 Z " fill="#669CA4" transform="translate(145.20703125,-0.37109375)"/>
<path d="M0 0 C3.27688529 2.39448761 5.83771791 5.02356229 8.40234375 8.1328125 C8.87454346 8.70088623 9.34674316 9.26895996 9.83325195 9.85424805 C23.43834629 26.55692061 32.21467784 45.62508199 38.08984375 66.2578125 C38.28481445 66.93263672 38.47978516 67.60746094 38.68066406 68.30273438 C41.55275579 78.85753418 41.36656533 89.71641313 41.40234375 100.5703125 C41.40620087 101.30406097 41.41005798 102.03780945 41.41403198 102.79379272 C41.43726987 111.78107676 40.93791483 120.42578877 39.08984375 129.2578125 C38.75984375 129.2578125 38.42984375 129.2578125 38.08984375 129.2578125 C38.00347656 128.40058594 37.91710937 127.54335938 37.828125 126.66015625 C36.81437567 118.41065483 35.76308506 113.00215134 29.18359375 107.73046875 C23.1014484 103.75283384 17.20218537 103.22099976 10.08984375 104.2578125 C4.22013352 105.9916048 0.47630627 109.12974069 -2.91015625 114.2578125 C-3.81476046 116.51932303 -4.56480797 118.76794428 -5.234375 121.109375 C-5.92428715 123.30273732 -6.83238915 125.2306931 -7.91015625 127.2578125 C-14.97119663 118.30398372 -21.9772273 109.31122514 -28.91015625 100.2578125 C-26.13169578 95.97782835 -23.15700076 91.93376086 -19.97265625 87.9453125 C-19.00870315 86.72037574 -18.04518165 85.49509926 -17.08203125 84.26953125 C-15.44159078 82.18779358 -13.79368199 80.1132425 -12.13085938 78.04931641 C-10.31531746 75.79538991 -8.51828027 73.52762169 -6.72265625 71.2578125 C-5.8574939 70.19953247 -5.8574939 70.19953247 -4.97485352 69.11987305 C-2.47198807 65.92905218 -1.0099144 64.03391262 -0.484375 59.9453125 C-0.8492174 57.16748965 -0.8492174 57.16748965 -1.91015625 54.2578125 C-3.22549035 53.55630098 -4.56382904 52.89783223 -5.91015625 52.2578125 C-8.89322756 50.00262742 -11.81768742 47.68208262 -14.7421875 45.3515625 C-17.81550698 43.07995978 -17.81550698 43.07995978 -21.5 42.296875 C-28.04482105 40.30269127 -31.8421337 33.85238798 -35.1484375 28.10546875 C-37.65353826 22.29980868 -38.15140909 15.8264144 -36.06640625 9.83203125 C-32.73643324 3.13833549 -27.84599801 -0.57747453 -21.41015625 -4.1171875 C-13.3318499 -6.13676409 -6.93566985 -4.15209229 0 0 Z " fill="#229BFE" transform="translate(470.91015625,155.7421875)"/>
<path d="M0 0 C5.42547713 5.13597538 8.9752643 9.71172605 9.3125 17.3125 C9.15747764 23.96738844 6.68463261 29.52446456 3 35 C0.87109375 36.88671875 0.87109375 36.88671875 -1.5625 38.6875 C-12.03478279 46.24205378 -12.03478279 46.24205378 -18 57 C-18.98395752 57.029729 -18.98395752 57.029729 -19.98779297 57.06005859 C-22.95061069 57.15512507 -25.91270532 57.26487752 -28.875 57.375 C-30.42380859 57.42140625 -30.42380859 57.42140625 -32.00390625 57.46875 C-32.99003906 57.50742188 -33.97617187 57.54609375 -34.9921875 57.5859375 C-35.90339355 57.6173584 -36.81459961 57.6487793 -37.75341797 57.68115234 C-40.19931186 57.79882511 -40.19931186 57.79882511 -42 60 C-42.16031669 62.7470482 -42.20430562 65.40276206 -42.16796875 68.1484375 C-42.17364658 69.80990157 -42.18085592 71.47136098 -42.18945312 73.1328125 C-42.19362984 75.7557922 -42.18747228 78.37720763 -42.15454102 81 C-42.12763383 83.52975154 -42.14442004 86.05621892 -42.16796875 88.5859375 C-42.14743942 89.36834808 -42.1269101 90.15075867 -42.10575867 90.95687866 C-42.14526367 93.18115234 -42.14526367 93.18115234 -43 97 C-47.82617463 101.46014164 -53.4555314 101.71716028 -59.703125 101.515625 C-66.29682162 100.48438335 -70.96437692 97.19220947 -75.4375 92.375 C-79.39156229 83.83422545 -80.92255795 77.72099798 -77.6875 68.75 C-76.54356646 65.79238415 -75.30058534 62.89185151 -74 60 C-73.690625 59.30793457 -73.38125 58.61586914 -73.0625 57.90283203 C-62.95921829 35.75454416 -48.25390797 16.29898622 -29 1.3125 C-28.46020508 0.89025146 -27.92041016 0.46800293 -27.36425781 0.03295898 C-19.40559573 -5.96608917 -8.04058685 -6.08981156 0 0 Z " fill="#7CBAF6" transform="translate(314,142)"/>
<path d="M0 0 C0.33 0 0.66 0 1 0 C1.09796875 0.64066406 1.1959375 1.28132812 1.296875 1.94140625 C2.8456307 10.90015688 5.54477339 16.56389726 13 22 C17.95973763 25.03744103 23.37336051 24.47996269 29 24 C35.17825612 22.4721641 39.62923706 18.42100159 44 14 C43.855625 14.59941406 43.71125 15.19882813 43.5625 15.81640625 C38.71725855 39.47060584 42.35077281 62.55607936 53 84 C53.5671875 84.8559375 54.134375 85.711875 54.71875 86.59375 C57.49185056 91.80176813 56.64383634 98.28443401 56 104 C53.74743969 110.36300157 48.84162531 114.62304665 43.20703125 118.109375 C37.91489118 120.24496427 30.8744209 119.95663616 25.51171875 118.171875 C23.59502798 117.20450565 21.81050473 116.15099373 20 115 C19.34902344 114.77441406 18.69804687 114.54882812 18.02734375 114.31640625 C14.8692307 112.26576251 13.68433745 109.11970453 12.125 105.8125 C11.77985352 105.09779541 11.43470703 104.38309082 11.07910156 103.64672852 C5.45502261 91.83538232 0.71418129 79.84062672 -2 67 C-2.17805176 66.15864502 -2.35610352 65.31729004 -2.53955078 64.45043945 C-4.17612504 55.82368942 -4.3924981 47.30742045 -4.375 38.5625 C-4.3764502 37.8213092 -4.37790039 37.08011841 -4.37939453 36.31646729 C-4.37670783 23.85251079 -3.11693427 12.10595008 0 0 Z " fill="#FFC650" transform="translate(4,218)"/>
<path d="M0 0 C1.7632507 2.64487605 2.57843145 4.46744484 3.5 7.4375 C5.00636612 13.02660418 5.00636612 13.02660418 8.75 17.0625 C9.4925 17.371875 10.235 17.68125 11 18 C11.804375 18.53625 12.60875 19.0725 13.4375 19.625 C18.99967037 21.7718026 26.14853124 22.44324349 31.8551178 20.30484009 C32.4663298 20.03102509 33.07754181 19.75721008 33.70727539 19.47509766 C34.79387451 18.98831543 35.88047363 18.5015332 37 18 C37.00142502 18.57470032 37.00285004 19.14940063 37.00431824 19.74151611 C37.0241589 25.77769382 37.078736 31.8128797 37.15258789 37.84863281 C37.17564137 40.09465392 37.19013358 42.34078119 37.19555664 44.58691406 C37.08614154 65.69214021 37.08614154 65.69214021 47.375 83.57421875 C49.10428805 85.09150273 50.88068441 86.11211429 52.875 87.25 C55.25664176 88.86251469 55.89838237 89.620303 56.65234375 92.4375 C57.07015073 99.77459813 54.78973777 104.56483657 50 110 C43.7379173 115.81479108 38.91367717 116.44771846 30.4921875 116.31640625 C24.68869388 115.79058636 20.90828879 114.12745859 17.02734375 109.80078125 C5.91521562 94.44934413 -0.31995784 74.55413803 -3 56 C-3.17128418 54.91485107 -3.34256836 53.82970215 -3.51904297 52.71166992 C-4.32221239 46.51340359 -4.24126206 40.30405859 -4.25 34.0625 C-4.25200409 33.37112946 -4.25400818 32.67975891 -4.256073 31.96743774 C-4.27274343 8.54548685 -4.27274343 8.54548685 0 0 Z " fill="#49ACFE" transform="translate(234,221)"/>
<path d="M0 0 C3.26158123 0.0397992 6.51910949 0.02061906 9.78076172 -0.00512695 C11.8810377 0.00243102 13.98130478 0.01338333 16.08154297 0.02807617 C17.52256882 0.01760002 17.52256882 0.01760002 18.9927063 0.00691223 C27.44391478 0.18105683 34.61516661 2.82729581 40.57373047 8.97729492 C45.00570591 14.75267369 46.89718928 21.49818621 46.13623047 28.72729492 C44.79111408 35.64343504 42.6073283 41.11488957 37.13623047 45.72729492 C31.56084186 49.31303505 26.12840887 50.81038096 19.50463867 50.92016602 C18.61633865 50.93622894 17.72803864 50.95229187 16.81282043 50.96884155 C12.76023545 51.01378211 8.70780579 51.0543566 4.6550293 51.07739258 C2.52633715 51.09392548 0.3976999 51.12118006 -1.73071289 51.15942383 C-4.82092703 51.21456769 -7.90984648 51.23612404 -11.00048828 51.25073242 C-11.939384 51.27340179 -12.87827972 51.29607117 -13.84562683 51.31942749 C-21.4838268 51.29534819 -28.04085673 49.20116459 -33.77983093 43.98617554 C-39.42942292 37.91905009 -41.40746711 31.64410931 -41.14892578 23.43823242 C-40.46131047 16.90117726 -37.96683943 11.03728557 -32.86376953 6.72729492 C-22.89320426 -0.80896557 -11.95648267 -0.16333007 0 0 Z " fill="#3B7C7F" transform="translate(244.86376953125,461.272705078125)"/>
<path d="M0 0 C4.95321872 3.29297319 9.83923222 8.47501077 11.109375 14.40234375 C11.96254036 21.82352816 11.25405309 29.06134052 7.109375 35.40234375 C2.70735667 39.82858226 -2.59789762 43.14948202 -7.890625 46.40234375 C-8.50405762 46.7802002 -9.11749023 47.15805664 -9.74951172 47.54736328 C-21.44267736 54.57345001 -38.93049412 64.55463137 -52.890625 61.40234375 C-60.28979587 59.02249347 -65.05842417 55.16172381 -68.890625 48.40234375 C-70.8881299 42.40982904 -71.07461687 34.926656 -69.0546875 28.9140625 C-64.07841233 20.31412387 -56.26378958 17.00086344 -47.25561523 13.86938477 C-38.0305057 10.55305694 -29.6688222 5.33366307 -21.890625 -0.59765625 C-15.03944955 -4.4262543 -6.79810499 -3.38699912 0 0 Z " fill="#0066F9" transform="translate(453.890625,330.59765625)"/>
<path d="M0 0 C5.48973214 3.16280864 10.45154191 8.55870267 12.75 14.5 C13.61677856 22.11958828 13.56184576 29.2576055 8.75 35.5 C-2.87343716 48.58914918 -26.79220596 60.47379821 -43.92578125 62.875 C-49.82331441 63.1613749 -54.48717984 62.04992807 -59.25 58.5 C-63.72165601 54.19592084 -67.86397888 49.893395 -68.5859375 43.546875 C-68.69032011 34.73698251 -67.79286445 29.30857929 -61.75 22.8125 C-58.10985823 20.07786613 -53.93012791 18.60640934 -49.7265625 16.9375 C-39.39636975 12.6661394 -29.74311919 7.50687435 -20.60546875 1.06640625 C-14.72918285 -2.8413726 -6.38925412 -2.83827923 0 0 Z " fill="#F87C15" transform="translate(222.25,329.5)"/>
<path d="M0 0 C0.86367187 -0.00193359 1.72734375 -0.00386719 2.6171875 -0.00585938 C3.50664062 0.01798828 4.39609375 0.04183594 5.3125 0.06640625 C6.64667969 0.0499707 6.64667969 0.0499707 8.0078125 0.03320312 C11.90708708 0.07685172 14.4213835 0.14988189 17.9183197 2.02967834 C21.5436948 5.96554572 21.00597811 9.57258606 20.94360352 14.75 C20.95075882 15.77803741 20.95791412 16.80607483 20.96528625 17.86526489 C20.98220566 21.2660963 20.96275055 24.66561557 20.94140625 28.06640625 C20.94223464 30.42765411 20.9446929 32.78890191 20.94871521 35.15014648 C20.95157545 40.09994861 20.9368492 45.0492988 20.90942383 49.99902344 C20.87534135 56.34813151 20.88135749 62.69643125 20.9000864 69.045578 C20.91064801 73.92174024 20.90172607 78.79771394 20.88670158 83.67385864 C20.88151318 86.01505982 20.88200951 88.35628063 20.88824654 90.69747925 C20.89368837 93.96802198 20.87335527 97.23740217 20.84594727 100.5078125 C20.85247314 101.4783255 20.85899902 102.4488385 20.86572266 103.44876099 C20.7723129 109.99409724 20.7723129 109.99409724 18.42979431 113.22813416 C14.41582551 115.88371938 9.97742879 115.24263609 5.3125 115.19140625 C3.81589844 115.22717773 3.81589844 115.22717773 2.2890625 115.26367188 C0.84660156 115.26077148 0.84660156 115.26077148 -0.625 115.2578125 C-1.50027344 115.2585376 -2.37554687 115.2592627 -3.27734375 115.26000977 C-6.89244655 114.31338895 -7.74800622 112.80979552 -9.6875 109.62890625 C-10.28108231 106.28494534 -10.24431203 102.98304646 -10.22094727 99.59375 C-10.22956284 98.58667999 -10.23817841 97.57960999 -10.24705505 96.54202271 C-10.26973884 93.21655503 -10.26297181 89.89192833 -10.25390625 86.56640625 C-10.25914049 84.25382232 -10.26541623 81.94124053 -10.27268982 79.62866211 C-10.28309833 74.78326365 -10.27852544 69.93815879 -10.26391602 65.09277344 C-10.24672208 58.88159002 -10.27022963 52.67133111 -10.30540562 46.46025085 C-10.32735812 41.68528099 -10.32594335 36.91053311 -10.3176403 32.13552856 C-10.31681973 29.84537746 -10.32370336 27.55521023 -10.33841133 25.2651062 C-10.35581808 22.06417869 -10.34134585 18.86492253 -10.31860352 15.6640625 C-10.33029572 14.7174173 -10.34198792 13.77077209 -10.35403442 12.79544067 C-10.28785335 8.22059846 -10.17662223 6.25972289 -7.2933197 2.54115295 C-4.54118178 0.52153253 -3.35622867 -0.00312046 0 0 Z " fill="#F8FEFA" transform="translate(188.6875,197.37109375)"/>
<path d="M0 0 C6.79906603 4.03430059 11.98534703 8.60410329 14.22436523 16.39916992 C14.82157629 20.74196063 14.74678173 25.04763089 14.72265625 29.42578125 C14.7212413 30.39533249 14.71982635 31.36488373 14.71836853 32.36381531 C14.71278513 35.45090867 14.70023564 38.53792867 14.6875 41.625 C14.68248286 43.72200416 14.67792032 45.81900946 14.67382812 47.91601562 C14.66282112 53.04820521 14.64556788 58.18034018 14.625 63.3125 C13.33420532 63.33437378 13.33420532 63.33437378 12.01733398 63.35668945 C8.74594536 63.41867827 5.47527276 63.49298149 2.2043457 63.57495117 C0.8034068 63.60768712 -0.59764784 63.63586824 -1.9987793 63.65893555 C-11.00464954 63.81102894 -19.39433813 64.66275094 -28.18334961 66.68041992 C-31.02602781 67.24338893 -33.49140208 67.43899442 -36.375 67.3125 C-36.44971366 61.2476667 -36.50386656 55.18310724 -36.53979492 49.11791992 C-36.55478857 47.05895311 -36.57519033 45.00001773 -36.60131836 42.94116211 C-36.93997412 15.54988724 -36.93997412 15.54988724 -29.125 6.03515625 C-21.48018078 -1.49021267 -10.07160813 -4.83125496 0 0 Z " fill="#80B0BB" transform="translate(141.375,51.6875)"/>
<path d="M0 0 C0.77108597 -0.0049649 1.54217194 -0.00992981 2.33662415 -0.01504517 C4.88873181 -0.02965526 7.4407773 -0.03646712 9.99291992 -0.04199219 C11.76787823 -0.04774491 13.54283652 -0.05350263 15.3177948 -0.05926514 C19.04096771 -0.06977207 22.76411904 -0.07561664 26.48730469 -0.07910156 C31.25213595 -0.0845834 36.01668104 -0.10860603 40.78142262 -0.13707352 C44.44891689 -0.15572167 48.11634256 -0.16090667 51.78388023 -0.16243744 C53.54011282 -0.16545995 55.29634431 -0.17347493 57.05253029 -0.18662262 C59.51310447 -0.20372764 61.9729838 -0.20179212 64.43359375 -0.1953125 C65.15536804 -0.20452728 65.87714233 -0.21374207 66.62078857 -0.22323608 C71.96480391 -0.17927793 76.10024888 1.00416977 80.05541992 4.69628906 C83.8803912 9.69817458 85.07251774 12.82839745 84.41088867 19.16113281 C82.5092002 24.10552284 80.06128241 27.81114432 75.2665863 30.25334167 C71.68025324 31.39339283 68.31755292 31.44858906 64.59472656 31.43579102 C63.82334854 31.44090195 63.05197052 31.44601288 62.25721741 31.45127869 C59.71591358 31.46514023 57.17488199 31.46422057 54.63354492 31.46191406 C52.86144409 31.46580279 51.08934419 31.47013782 49.31724548 31.47489929 C45.60599748 31.48235403 41.89484462 31.48207556 38.18359375 31.47680664 C33.43448781 31.47101195 28.68577186 31.48794655 23.93673038 31.51115131 C20.27780389 31.5259032 16.61897103 31.52675839 12.96002007 31.52364159 C11.20937769 31.52415403 9.45872998 31.52937736 7.70811653 31.53945351 C5.25730366 31.55182943 2.80724664 31.54501977 0.35644531 31.53344727 C-0.36218689 31.541091 -1.08081909 31.54873474 -1.82122803 31.55661011 C-7.15096275 31.50115631 -11.25337388 30.29159167 -15.23364258 26.66113281 C-18.74402668 22.15281343 -19.95513894 18.99520156 -19.87036133 13.21972656 C-19.24407064 8.63562666 -16.3278753 5.82782225 -13.02661133 2.84863281 C-8.78624079 -0.08700833 -4.96582948 0.00762674 0 0 Z " fill="#276D6B" transform="translate(223.589111328125,23.8388671875)"/>
<path d="M0 0 C3.2771662 2.39469287 5.83647796 5.02438478 8.40234375 8.1328125 C8.87091797 8.69291016 9.33949219 9.25300781 9.82226562 9.83007812 C14.82102563 15.93817052 19.00480551 22.5174994 23.08984375 29.2578125 C23.65316406 30.17175781 24.21648437 31.08570313 24.796875 32.02734375 C27.76904949 37.15456924 27.81076092 43.48209238 27.08984375 49.2578125 C24.7969981 56.55420451 20.84450001 61.61862394 14.08984375 65.2578125 C10.82734042 66.37908694 7.77176964 66.36116876 4.33984375 66.3203125 C3.355 66.31128906 2.37015625 66.30226563 1.35546875 66.29296875 C0.6078125 66.28136719 -0.13984375 66.26976562 -0.91015625 66.2578125 C-0.89855469 65.64292969 -0.88695312 65.02804688 -0.875 64.39453125 C-0.86597656 63.58628906 -0.85695313 62.77804688 -0.84765625 61.9453125 C-0.83605469 61.14480469 -0.82445312 60.34429687 -0.8125 59.51953125 C-0.8135777 57.08919916 -0.8135777 57.08919916 -1.91015625 54.2578125 C-3.22549035 53.55630098 -4.56382904 52.89783223 -5.91015625 52.2578125 C-8.89322756 50.00262742 -11.81768742 47.68208262 -14.7421875 45.3515625 C-17.81550698 43.07995978 -17.81550698 43.07995978 -21.5 42.296875 C-28.04482105 40.30269127 -31.8421337 33.85238798 -35.1484375 28.10546875 C-37.65353826 22.29980868 -38.15140909 15.8264144 -36.06640625 9.83203125 C-32.73643324 3.13833549 -27.84599801 -0.57747453 -21.41015625 -4.1171875 C-13.3318499 -6.13676409 -6.93566985 -4.15209229 0 0 Z " fill="#037CFE" transform="translate(470.91015625,155.7421875)"/>
<path d="M0 0 C0.07505712 3.94684991 0.12902215 7.89341427 0.16479492 11.84082031 C0.18701479 13.83152905 0.22516595 15.82203968 0.26367188 17.8125 C0.34022437 27.9174297 -0.41731244 36.91269814 -7 45 C-14.14609776 51.68004791 -19.85527956 53.64437942 -29.51953125 53.41015625 C-36.98457029 52.53043784 -41.91028064 48.70941107 -46.7109375 43.13671875 C-51.6600297 34.93322349 -51.36656248 27.37552795 -51.1875 18 C-51.17242476 16.63933774 -51.15874138 15.27865931 -51.14648438 13.91796875 C-51.11130983 10.61156157 -51.06208288 7.30599316 -51 4 C-49.77035522 3.97812622 -49.77035522 3.97812622 -48.51586914 3.95581055 C-27.65879026 3.61535731 -27.65879026 3.61535731 -7.0546875 0.62109375 C-4 0 -4 0 0 0 Z " fill="#266D6B" transform="translate(407,393)"/>
<path d="M0 0 C5.43968417 3.16260708 7.97585215 8.20244073 10 14 C11.02933081 20.387623 10.1540726 26.35004794 7 32 C2.1588561 38.29852165 -3.56051957 40.9453396 -10.875 43.625 C-17.92202832 46.2857111 -24.51899286 49.13867572 -31 53 C-29.17005076 48.29441624 -29.17005076 48.29441624 -27.953125 46.1875 C-25.777577 41.19443902 -26.21701636 34.82249194 -27.65234375 29.6484375 C-30.26422847 23.84175816 -34.62906876 19.72033732 -40.265625 16.84375 C-43.71464121 15.77948214 -46.70978263 15.80765949 -50.3125 15.875 C-51.56675781 15.89304688 -52.82101563 15.91109375 -54.11328125 15.9296875 C-55.06589844 15.95289063 -56.01851562 15.97609375 -57 16 C-45.04342704 2.75082456 -16.6154855 -8.70697066 0 0 Z " fill="#FFC650" transform="translate(119,123)"/>
<path d="M0 0 C5.91744083 3.45942695 10.48302781 8.19194453 13.03125 14.5625 C14.42835629 22.52600584 13.99718508 28.21443094 9.65625 35.125 C4.93713745 41.21017144 -1.22202264 43.48313635 -8.25756836 45.91333008 C-13.58923086 47.76209731 -18.35185232 50.12371348 -23.20703125 53.0234375 C-25.34375 54.125 -25.34375 54.125 -28.34375 54.125 C-27.33463542 52.43229167 -26.32552083 50.73958333 -25.31640625 49.046875 C-22.6784209 43.83447022 -22.31297877 37.54641535 -23.9921875 31.97265625 C-26.65535458 26.04312612 -30.84856427 21.88448125 -36.640625 18.96875 C-39.92842515 17.94250024 -42.71851119 17.93055073 -46.15625 18 C-47.31769531 18.01804688 -48.47914063 18.03609375 -49.67578125 18.0546875 C-50.99642578 18.08949219 -50.99642578 18.08949219 -52.34375 18.125 C-42.3492549 7.13767426 -14.53912212 -5.42793892 0 0 Z " fill="#47ABFE" transform="translate(345.34375,120.875)"/>
<path d="M0 0 C1.75087743 2.62631615 2.54274797 4.34678993 3.4453125 7.2890625 C3.7134375 8.14008545 3.9815625 8.9911084 4.2578125 9.86791992 C4.54398438 10.77775635 4.83015625 11.68759277 5.125 12.625 C9.34124948 25.60090975 14.08528986 38.35068919 22.9453125 48.921875 C24 51 24 51 23.52734375 53.375 C21.56909561 56.74058248 19.11559653 59.45609614 16.4375 62.25 C15.90608398 62.81485107 15.37466797 63.37970215 14.82714844 63.96166992 C10.31372153 68.73569512 5.6986214 73.40816545 1 78 C0.67 77.01 0.34 76.02 0 75 C0.30035156 74.40703125 0.60070312 73.8140625 0.91015625 73.203125 C3.20928509 68.55542368 2.58400162 63.03325104 2 58 C-0.34887462 51.66912762 -5.24738487 46.89273758 -11.23046875 43.875 C-14.69893633 42.77917949 -17.68208696 42.80714181 -21.3125 42.875 C-22.56675781 42.89304687 -23.82101563 42.91109375 -25.11328125 42.9296875 C-26.54220703 42.96449219 -26.54220703 42.96449219 -28 43 C-22.53922542 36.5590864 -22.53922542 36.5590864 -19.87890625 33.80078125 C-10.51641144 23.98395394 -4.80265339 12.60696516 0 0 Z " fill="#FD993B" transform="translate(232,286)"/>
<path d="M0 0 C1.15693359 0.01289063 2.31386719 0.02578125 3.50585938 0.0390625 C4.70404297 0.07257812 5.90222656 0.10609375 7.13671875 0.140625 C8.96299805 0.16769531 8.96299805 0.16769531 10.82617188 0.1953125 C13.82632297 0.24237369 16.82486764 0.3081119 19.82421875 0.390625 C19.03660156 1.00808594 18.24898437 1.62554688 17.4375 2.26171875 C13.83737988 5.19455203 12.05925921 7.25594243 11.5390625 11.98046875 C11.31184149 19.24508009 11.31184149 19.24508009 14.82421875 25.390625 C16.4789953 26.73868662 18.14449079 28.07378426 19.82421875 29.390625 C15.6372524 29.56581188 11.4512354 29.67177983 7.26171875 29.765625 C6.08029297 29.81589844 4.89886719 29.86617187 3.68164062 29.91796875 C-6.18148695 30.0837356 -6.18148695 30.0837356 -10.42578125 26.515625 C-14.12267332 22.71630015 -15.04739695 19.73866019 -15.55078125 14.453125 C-15.3981172 9.04881778 -12.74722532 5.88477937 -8.91723633 2.24316406 C-5.63493735 0.02514957 -3.92318345 -0.07730411 0 0 Z " fill="#145956" transform="translate(219.17578125,24.609375)"/>
<path d="M0 0 C4.2290362 -0.08725659 8.45784012 -0.1404789 12.6875 -0.1875 C13.88568359 -0.21263672 15.08386719 -0.23777344 16.31835938 -0.26367188 C17.47529297 -0.27333984 18.63222656 -0.28300781 19.82421875 -0.29296875 C20.88729248 -0.3086792 21.95036621 -0.32438965 23.0456543 -0.34057617 C27.69632568 0.19555196 30.20897615 2.09911173 33.25 5.5625 C36.2002726 9.67180827 36.52038179 13.01920285 36 18 C34.38879472 22.18913372 32.4323836 25.10392634 29 28 C25.82212459 29.0592918 23.57411057 29.11458939 20.23828125 29.09765625 C19.12001953 29.09443359 18.00175781 29.09121094 16.84960938 29.08789062 C15.68236328 29.07951172 14.51511719 29.07113281 13.3125 29.0625 C12.13365234 29.05798828 10.95480469 29.05347656 9.74023438 29.04882812 C6.82677211 29.03703273 3.91341137 29.0205727 1 29 C1.78761719 28.38253906 2.57523437 27.76507813 3.38671875 27.12890625 C6.98683887 24.19607297 8.76495954 22.13468257 9.28515625 17.41015625 C9.55961221 10.10789263 9.55961221 10.10789263 6 4 C2.93319201 2.17370206 2.93319201 2.17370206 0 1 C0 0.67 0 0.34 0 0 Z " fill="#145956" transform="translate(272,25)"/>
</svg>
